<ttFont>
    <TTGlyph name=".notdef" xMin="193" yMin="0" xMax="1034" yMax="1462">
      <contour>
        <pt x="193" y="1462" on="1"/>
        <pt x="1034" y="1462" on="1"/>
        <pt x="1034" y="0" on="1"/>
        <pt x="193" y="0" on="1"/>
      </contour>
      <contour>
        <pt x="297" y="104" on="1"/>
        <pt x="930" y="104" on="1"/>
        <pt x="930" y="1358" on="1"/>
        <pt x="297" y="1358" on="1"/>
      </contour>
    </TTGlyph>
    <TTGlyph name="A" xMin="-115" yMin="0" xMax="1346" yMax="1462">
      <contour>
        <pt x="408" y="489" on="1"/>
        <pt x="285" y="274" on="1"/>
        <pt x="246" y="206" on="0"/>
        <pt x="246" y="160" on="1"/>
        <pt x="246" y="86" on="0"/>
        <pt x="360" y="86" on="1"/>
        <pt x="408" y="86" on="1"/>
        <pt x="391" y="0" on="1"/>
        <pt x="-115" y="0" on="1"/>
        <pt x="-98" y="86" on="1"/>
        <pt x="-59" y="86" on="1"/>
        <pt x="-4" y="86" on="0"/>
        <pt x="70" y="143" on="0"/>
        <pt x="131" y="246" on="1"/>
        <pt x="844" y="1462" on="1"/>
        <pt x="1004" y="1462" on="1"/>
        <pt x="1198" y="195" on="1"/>
        <pt x="1208" y="131" on="0"/>
        <pt x="1258" y="86" on="0"/>
        <pt x="1319" y="86" on="1"/>
        <pt x="1346" y="86" on="1"/>
        <pt x="1329" y="0" on="1"/>
        <pt x="772" y="0" on="1"/>
        <pt x="788" y="86" on="1"/>
        <pt x="836" y="86" on="1"/>
        <pt x="983" y="86" on="0"/>
        <pt x="983" y="190" on="1"/>
        <pt x="983" y="232" on="0"/>
        <pt x="979" y="260" on="1"/>
        <pt x="946" y="489" on="1"/>
      </contour>
      <contour>
        <pt x="881" y="950" on="1"/>
        <pt x="850" y="1168" on="0"/>
        <pt x="848" y="1274" on="1"/>
        <pt x="801" y="1163" on="0"/>
        <pt x="688" y="969" on="1"/>
        <pt x="469" y="592" on="1"/>
        <pt x="932" y="592" on="1"/>
      </contour>
    </TTGlyph>
    <TTGlyph name="AE" xMin="-127" yMin="0" xMax="1970" yMax="1462">
      <contour>
        <pt x="-127" y="0" on="1"/>
        <pt x="-98" y="86" on="1"/>
        <pt x="-59" y="86" on="1"/>
        <pt x="-5" y="86" on="0"/>
        <pt x="76" y="142" on="0"/>
        <pt x="152" y="246" on="1"/>
        <pt x="967" y="1364" on="1"/>
        <pt x="793" y="1376" on="1"/>
        <pt x="811" y="1462" on="1"/>
        <pt x="1970" y="1462" on="1"/>
        <pt x="1905" y="1104" on="1"/>
        <pt x="1798" y="1104" on="1"/>
        <pt x="1808" y="1174" on="0"/>
        <pt x="1808" y="1223" on="1"/>
        <pt x="1808" y="1360" on="0"/>
        <pt x="1663" y="1360" on="1"/>
        <pt x="1319" y="1360" on="1"/>
        <pt x="1202" y="815" on="1"/>
        <pt x="1696" y="815" on="1"/>
        <pt x="1675" y="715" on="1"/>
        <pt x="1182" y="715" on="1"/>
        <pt x="1051" y="102" on="1"/>
        <pt x="1446" y="102" on="1"/>
        <pt x="1618" y="102" on="0"/>
        <pt x="1677" y="270" on="1"/>
        <pt x="1710" y="358" on="1"/>
        <pt x="1817" y="358" on="1"/>
        <pt x="1726" y="0" on="1"/>
        <pt x="629" y="0" on="1"/>
        <pt x="645" y="86" on="1"/>
        <pt x="672" y="86" on="1"/>
        <pt x="775" y="86" on="0"/>
        <pt x="857" y="157" on="0"/>
        <pt x="870" y="223" on="1"/>
        <pt x="926" y="489" on="1"/>
        <pt x="463" y="489" on="1"/>
        <pt x="309" y="274" on="1"/>
        <pt x="254" y="197" on="0"/>
        <pt x="254" y="154" on="1"/>
        <pt x="254" y="86" on="0"/>
        <pt x="358" y="86" on="1"/>
        <pt x="406" y="86" on="1"/>
        <pt x="377" y="0" on="1"/>
      </contour>
      <contour>
        <pt x="1110" y="1360" on="1"/>
        <pt x="1071" y="1360" on="1"/>
        <pt x="974" y="1192" on="0"/>
        <pt x="811" y="969" on="1"/>
        <pt x="539" y="592" on="1"/>
        <pt x="948" y="592" on="1"/>
      </contour>
    </TTGlyph>
    <TTGlyph name="AEacute" xMin="-127" yMin="0" xMax="1970" yMax="1907">
      <component glyphName="AE" x="0" y="0" flags="0x204"/>
      <component glyphName="acute" x="815" y="338" flags="0x4"/>
    </TTGlyph>
    <TTGlyph name="Aacute" xMin="-115" yMin="0" xMax="1346" yMax="1907">
      <component glyphName="A" x="0" y="0" flags="0x204"/>
      <component glyphName="acute" x="330" y="338" flags="0x4"/>
    </TTGlyph>
    <TTGlyph name="Abreve" xMin="-115" yMin="0" xMax="1346" yMax="1860">
      <component glyphName="A" x="0" y="0" flags="0x204"/>
      <component glyphName="breve" x="216" y="338" flags="0x4"/>
    </TTGlyph>
    <TTGlyph name="Acircumflex" xMin="-115" yMin="0" xMax="1346" yMax="1907">
      <component glyphName="A" x="0" y="0" flags="0x204"/>
      <component glyphName="circumflex" x="236" y="338" flags="0x4"/>
    </TTGlyph>
    <TTGlyph name="Adieresis" xMin="-115" yMin="0" xMax="1346" yMax="1864">
      <component glyphName="A" x="0" y="0" flags="0x204"/>
      <component glyphName="dieresis" x="242" y="338" flags="0x4"/>
    </TTGlyph>
    <TTGlyph name="Agrave" xMin="-115" yMin="0" xMax="1346" yMax="1907">
      <component glyphName="A" x="0" y="0" flags="0x204"/>
      <component glyphName="grave" x="94" y="338" flags="0x4"/>
    </TTGlyph>
    <TTGlyph name="Alpha" xMin="-115" yMin="0" xMax="1346" yMax="1462">
      <component glyphName="A" x="0" y="0" flags="0x204"/>
    </TTGlyph>
    <TTGlyph name="Alphatonos" xMin="-115" yMin="0" xMax="1346" yMax="1462">
      <component glyphName="A" x="0" y="0" flags="0x204"/>
      <component glyphName="tonos" x="-339" y="-168" flags="0x4"/>
    </TTGlyph>
    <TTGlyph name="Amacron" xMin="-115" yMin="0" xMax="1346" yMax="1700">
      <component glyphName="A" x="0" y="0" flags="0x204"/>
      <component glyphName="uni02C9" x="272" y="338" flags="0x4"/>
    </TTGlyph>
    <TTGlyph name="Aogonek" xMin="-115" yMin="-492" xMax="1346" yMax="1462">
      <component glyphName="A" x="0" y="0" flags="0x204"/>
      <component glyphName="ogonek" x="494" y="0" flags="0x4"/>
    </TTGlyph>
    <TTGlyph name="Aring" xMin="-115" yMin="0" xMax="1346" yMax="1808">
      <component glyphName="A" x="0" y="0" flags="0x204"/>
      <component glyphName="ring" x="410" y="141" flags="0x4"/>
    </TTGlyph>
    <TTGlyph name="Aringacute" xMin="-115" yMin="0" xMax="1346" yMax="1962">
      <contour>
        <pt x="887" y="1720" on="1"/>
        <pt x="1001" y="1827" on="0"/>
        <pt x="1106" y="1962" on="1"/>
        <pt x="1325" y="1962" on="1"/>
        <pt x="1319" y="1946" on="1"/>
        <pt x="1158" y="1795" on="0"/>
        <pt x="963" y="1700" on="1"/>
        <pt x="881" y="1700" on="1"/>
      </contour>
      <contour>
        <pt x="1018" y="1229" on="1"/>
        <pt x="1198" y="184" on="1"/>
        <pt x="1208" y="128" on="0"/>
        <pt x="1257" y="86" on="0"/>
        <pt x="1319" y="86" on="1"/>
        <pt x="1346" y="86" on="1"/>
        <pt x="1329" y="0" on="1"/>
        <pt x="772" y="0" on="1"/>
        <pt x="788" y="86" on="1"/>
        <pt x="836" y="86" on="1"/>
        <pt x="902" y="86" on="0"/>
        <pt x="983" y="137" on="0"/>
        <pt x="983" y="180" on="1"/>
        <pt x="983" y="218" on="0"/>
        <pt x="979" y="244" on="1"/>
        <pt x="950" y="430" on="1"/>
        <pt x="397" y="430" on="1"/>
        <pt x="285" y="256" on="1"/>
        <pt x="246" y="195" on="0"/>
        <pt x="246" y="154" on="1"/>
        <pt x="246" y="86" on="0"/>
        <pt x="360" y="86" on="1"/>
        <pt x="408" y="86" on="1"/>
        <pt x="391" y="0" on="1"/>
        <pt x="-115" y="0" on="1"/>
        <pt x="-98" y="86" on="1"/>
        <pt x="-59" y="86" on="1"/>
        <pt x="3" y="86" on="0"/>
        <pt x="74" y="145" on="0"/>
        <pt x="131" y="231" on="1"/>
        <pt x="795" y="1239" on="1"/>
        <pt x="672" y="1298" on="0"/>
        <pt x="672" y="1438" on="1"/>
        <pt x="672" y="1541" on="0"/>
        <pt x="808" y="1661" on="0"/>
        <pt x="918" y="1661" on="1"/>
        <pt x="1027" y="1661" on="0"/>
        <pt x="1163" y="1541" on="0"/>
        <pt x="1163" y="1438" on="1"/>
        <pt x="1163" y="1283" on="0"/>
      </contour>
      <contour>
        <pt x="905" y="1315" on="1"/>
        <pt x="918" y="1315" on="1"/>
        <pt x="1053" y="1315" on="0"/>
        <pt x="1053" y="1438" on="1"/>
        <pt x="1053" y="1561" on="0"/>
        <pt x="918" y="1561" on="1"/>
        <pt x="782" y="1561" on="0"/>
        <pt x="782" y="1438" on="1"/>
        <pt x="782" y="1320" on="0"/>
      </contour>
      <contour>
        <pt x="885" y="852" on="1"/>
        <pt x="854" y="1052" on="0"/>
        <pt x="848" y="1147" on="1"/>
        <pt x="812" y="1072" on="0"/>
        <pt x="733" y="949" on="1"/>
        <pt x="469" y="532" on="1"/>
        <pt x="934" y="532" on="1"/>
      </contour>
    </TTGlyph>
    <TTGlyph name="Atilde" xMin="-115" yMin="0" xMax="1346" yMax="1841">
      <component glyphName="A" x="0" y="0" flags="0x204"/>
      <component glyphName="tilde" x="201" y="338" flags="0x4"/>
    </TTGlyph>
    <TTGlyph name="B" xMin="-43" yMin="0" xMax="1276" yMax="1462">
      <contour>
        <pt x="-27" y="86" on="1"/>
        <pt x="0" y="86" on="1"/>
        <pt x="170" y="86" on="0"/>
        <pt x="201" y="233" on="1"/>
        <pt x="414" y="1237" on="1"/>
        <pt x="422" y="1275" on="0"/>
        <pt x="422" y="1294" on="1"/>
        <pt x="422" y="1376" on="0"/>
        <pt x="274" y="1376" on="1"/>
        <pt x="248" y="1376" on="1"/>
        <pt x="266" y="1462" on="1"/>
        <pt x="797" y="1462" on="1"/>
        <pt x="1276" y="1462" on="0"/>
        <pt x="1276" y="1155" on="1"/>
        <pt x="1276" y="852" on="0"/>
        <pt x="942" y="774" on="1"/>
        <pt x="940" y="766" on="1"/>
        <pt x="1190" y="716" on="0"/>
        <pt x="1190" y="467" on="1"/>
        <pt x="1190" y="242" on="0"/>
        <pt x="888" y="0" on="0"/>
        <pt x="600" y="0" on="1"/>
        <pt x="-43" y="0" on="1"/>
      </contour>
      <contour>
        <pt x="530" y="817" on="1"/>
        <pt x="688" y="817" on="1"/>
        <pt x="1053" y="817" on="0"/>
        <pt x="1053" y="1128" on="1"/>
        <pt x="1053" y="1360" on="0"/>
        <pt x="770" y="1360" on="1"/>
        <pt x="647" y="1360" on="1"/>
      </contour>
      <contour>
        <pt x="379" y="102" on="1"/>
        <pt x="578" y="102" on="1"/>
        <pt x="969" y="102" on="0"/>
        <pt x="969" y="481" on="1"/>
        <pt x="969" y="715" on="0"/>
        <pt x="682" y="715" on="1"/>
        <pt x="510" y="715" on="1"/>
      </contour>
    </TTGlyph>
    <TTGlyph name="Beta" xMin="-43" yMin="0" xMax="1276" yMax="1462">
      <component glyphName="B" x="0" y="0" flags="0x204"/>
    </TTGlyph>
    <TTGlyph name="C" xMin="106" yMin="-20" xMax="1329" yMax="1483">
      <contour>
        <pt x="1073" y="299" on="1"/>
        <pt x="1100" y="280" on="0"/>
        <pt x="1100" y="231" on="1"/>
        <pt x="1100" y="133" on="0"/>
        <pt x="872" y="-20" on="0"/>
        <pt x="672" y="-20" on="1"/>
        <pt x="405" y="-20" on="0"/>
        <pt x="106" y="266" on="0"/>
        <pt x="106" y="528" on="1"/>
        <pt x="106" y="916" on="0"/>
        <pt x="590" y="1483" on="0"/>
        <pt x="950" y="1483" on="1"/>
        <pt x="1129" y="1483" on="0"/>
        <pt x="1329" y="1360" on="0"/>
        <pt x="1329" y="1255" on="1"/>
        <pt x="1329" y="1182" on="0"/>
        <pt x="1219" y="1096" on="0"/>
        <pt x="1128" y="1096" on="1"/>
        <pt x="1128" y="1374" on="0"/>
        <pt x="924" y="1374" on="1"/>
        <pt x="671" y="1374" on="0"/>
        <pt x="330" y="823" on="0"/>
        <pt x="330" y="496" on="1"/>
        <pt x="330" y="113" on="0"/>
        <pt x="694" y="113" on="1"/>
        <pt x="931" y="113" on="0"/>
      </contour>
    </TTGlyph>
    <TTGlyph name="Cacute" xMin="106" yMin="-20" xMax="1339" yMax="1907">
      <component glyphName="C" x="0" y="0" flags="0x204"/>
      <component glyphName="acute" x="393" y="338" flags="0x4"/>
    </TTGlyph>
    <TTGlyph name="Ccaron" xMin="106" yMin="-20" xMax="1348" yMax="1907">
      <component glyphName="C" x="0" y="0" flags="0x204"/>
      <component glyphName="caron" x="256" y="338" flags="0x4"/>
    </TTGlyph>
    <TTGlyph name="Ccedilla" xMin="106" yMin="-492" xMax="1329" yMax="1483">
      <component glyphName="C" x="0" y="0" flags="0x204"/>
      <component glyphName="cedilla" x="262" y="0" flags="0x4"/>
    </TTGlyph>
    <TTGlyph name="Ccircumflex" xMin="106" yMin="-20" xMax="1329" yMax="1907">
      <component glyphName="C" x="0" y="0" flags="0x204"/>
      <component glyphName="circumflex" x="289" y="338" flags="0x4"/>
    </TTGlyph>
    <TTGlyph name="Cdotaccent" xMin="106" yMin="-20" xMax="1329" yMax="1876">
      <component glyphName="C" x="0" y="0" flags="0x204"/>
      <component glyphName="dotaccent" x="571" y="338" flags="0x4"/>
    </TTGlyph>
    <TTGlyph name="Chi" xMin="-100" yMin="0" xMax="1477" yMax="1462">
      <component glyphName="X" x="0" y="0" flags="0x204"/>
    </TTGlyph>
    <TTGlyph name="D" xMin="-43" yMin="0" xMax="1421" yMax="1462">
      <contour>
        <pt x="-27" y="86" on="1"/>
        <pt x="0" y="86" on="1"/>
        <pt x="170" y="86" on="0"/>
        <pt x="201" y="233" on="1"/>
        <pt x="414" y="1237" on="1"/>
        <pt x="422" y="1275" on="0"/>
        <pt x="422" y="1294" on="1"/>
        <pt x="422" y="1376" on="0"/>
        <pt x="274" y="1376" on="1"/>
        <pt x="248" y="1376" on="1"/>
        <pt x="266" y="1462" on="1"/>
        <pt x="840" y="1462" on="1"/>
        <pt x="1119" y="1462" on="0"/>
        <pt x="1421" y="1173" on="0"/>
        <pt x="1421" y="905" on="1"/>
        <pt x="1421" y="513" on="0"/>
        <pt x="975" y="0" on="0"/>
        <pt x="602" y="0" on="1"/>
        <pt x="-43" y="0" on="1"/>
      </contour>
      <contour>
        <pt x="557" y="104" on="1"/>
        <pt x="853" y="104" on="0"/>
        <pt x="1198" y="558" on="0"/>
        <pt x="1198" y="928" on="1"/>
        <pt x="1198" y="1360" on="0"/>
        <pt x="809" y="1360" on="1"/>
        <pt x="647" y="1360" on="1"/>
        <pt x="379" y="104" on="1"/>
      </contour>
    </TTGlyph>
    <TTGlyph name="Dcaron" xMin="-43" yMin="0" xMax="1421" yMax="1907">
      <component glyphName="D" x="0" y="0" flags="0x204"/>
      <component glyphName="caron" x="131" y="338" flags="0x4"/>
    </TTGlyph>
    <TTGlyph name="Dcroat" xMin="-43" yMin="0" xMax="1421" yMax="1462">
      <component glyphName="Eth" x="0" y="0" flags="0x204"/>
    </TTGlyph>
    <TTGlyph name="Delta" xMin="-74" yMin="0" xMax="1067" yMax="1462">
      <component glyphName="uni2206" x="0" y="0" flags="0x204"/>
    </TTGlyph>
    <TTGlyph name="E" xMin="-43" yMin="0" xMax="1298" yMax="1462">
      <contour>
        <pt x="379" y="102" on="1"/>
        <pt x="774" y="102" on="1"/>
        <pt x="947" y="102" on="0"/>
        <pt x="1006" y="270" on="1"/>
        <pt x="1038" y="358" on="1"/>
        <pt x="1145" y="358" on="1"/>
        <pt x="1055" y="0" on="1"/>
        <pt x="-43" y="0" on="1"/>
        <pt x="-27" y="86" on="1"/>
        <pt x="0" y="86" on="1"/>
        <pt x="104" y="86" on="0"/>
        <pt x="185" y="159" on="0"/>
        <pt x="199" y="223" on="1"/>
        <pt x="412" y="1229" on="1"/>
        <pt x="418" y="1257" on="0"/>
        <pt x="418" y="1278" on="1"/>
        <pt x="418" y="1326" on="0"/>
        <pt x="362" y="1376" on="0"/>
        <pt x="274" y="1376" on="1"/>
        <pt x="248" y="1376" on="1"/>
        <pt x="266" y="1462" on="1"/>
        <pt x="1298" y="1462" on="1"/>
        <pt x="1233" y="1104" on="1"/>
        <pt x="1126" y="1104" on="1"/>
        <pt x="1132" y="1167" on="1"/>
        <pt x="1137" y="1215" on="0"/>
        <pt x="1137" y="1223" on="1"/>
        <pt x="1137" y="1360" on="0"/>
        <pt x="991" y="1360" on="1"/>
        <pt x="647" y="1360" on="1"/>
        <pt x="530" y="815" on="1"/>
        <pt x="1024" y="815" on="1"/>
        <pt x="1004" y="715" on="1"/>
        <pt x="510" y="715" on="1"/>
      </contour>
    </TTGlyph>
    <TTGlyph name="Eacute" xMin="-43" yMin="0" xMax="1298" yMax="1907">
      <component glyphName="E" x="0" y="0" flags="0x204"/>
      <component glyphName="acute" x="217" y="338" flags="0x4"/>
    </TTGlyph>
    <TTGlyph name="Ebreve" xMin="-43" yMin="0" xMax="1298" yMax="1860">
      <component glyphName="E" x="0" y="0" flags="0x204"/>
      <component glyphName="breve" x="104" y="338" flags="0x4"/>
    </TTGlyph>
    <TTGlyph name="Ecaron" xMin="-43" yMin="0" xMax="1298" yMax="1907">
      <component glyphName="E" x="0" y="0" flags="0x204"/>
      <component glyphName="caron" x="90" y="338" flags="0x4"/>
    </TTGlyph>
    <TTGlyph name="Ecircumflex" xMin="-43" yMin="0" xMax="1298" yMax="1907">
      <component glyphName="E" x="0" y="0" flags="0x204"/>
      <component glyphName="circumflex" x="170" y="338" flags="0x4"/>
    </TTGlyph>
    <TTGlyph name="Edieresis" xMin="-43" yMin="0" xMax="1298" yMax="1864">
      <component glyphName="E" x="0" y="0" flags="0x204"/>
      <component glyphName="dieresis" x="129" y="338" flags="0x4"/>
    </TTGlyph>
    <TTGlyph name="Edotaccent" xMin="-43" yMin="0" xMax="1298" yMax="1847">
      <component glyphName="E" x="0" y="0" flags="0x204"/>
      <component glyphName="dotaccent" x="383" y="309" flags="0x4"/>
    </TTGlyph>
    <TTGlyph name="Egrave" xMin="-43" yMin="0" xMax="1298" yMax="1907">
      <component glyphName="E" x="0" y="0" flags="0x204"/>
      <component glyphName="grave" x="20" y="338" flags="0x4"/>
    </TTGlyph>
    <TTGlyph name="Emacron" xMin="-43" yMin="0" xMax="1298" yMax="1700">
      <component glyphName="E" x="0" y="0" flags="0x204"/>
      <component glyphName="uni02C9" x="174" y="338" flags="0x4"/>
    </TTGlyph>
    <TTGlyph name="Eng" xMin="-41" yMin="-492" xMax="1694" yMax="1462">
      <contour>
        <pt x="1323" y="1214" on="1"/>
        <pt x="1331" y="1256" on="0"/>
        <pt x="1335" y="1288" on="0"/>
        <pt x="1335" y="1294" on="1"/>
        <pt x="1335" y="1336" on="0"/>
        <pt x="1272" y="1376" on="0"/>
        <pt x="1188" y="1376" on="1"/>
        <pt x="1161" y="1376" on="1"/>
        <pt x="1180" y="1462" on="1"/>
        <pt x="1694" y="1462" on="1"/>
        <pt x="1675" y="1376" on="1"/>
        <pt x="1649" y="1376" on="1"/>
        <pt x="1552" y="1376" on="0"/>
        <pt x="1465" y="1302" on="0"/>
        <pt x="1450" y="1229" on="1"/>
        <pt x="1186" y="-16" on="1"/>
        <pt x="1134" y="-263" on="0"/>
        <pt x="916" y="-492" on="0"/>
        <pt x="723" y="-492" on="1"/>
        <pt x="686" y="-492" on="0"/>
        <pt x="608" y="-480" on="0"/>
        <pt x="578" y="-469" on="1"/>
        <pt x="602" y="-377" on="1"/>
        <pt x="654" y="-395" on="0"/>
        <pt x="715" y="-395" on="1"/>
        <pt x="839" y="-395" on="0"/>
        <pt x="1024" y="-194" on="0"/>
        <pt x="1063" y="-12" on="1"/>
        <pt x="530" y="1200" on="1"/>
        <pt x="324" y="225" on="1"/>
        <pt x="320" y="213" on="0"/>
        <pt x="315" y="177" on="0"/>
        <pt x="315" y="168" on="1"/>
        <pt x="315" y="126" on="0"/>
        <pt x="378" y="86" on="0"/>
        <pt x="463" y="86" on="1"/>
        <pt x="489" y="86" on="1"/>
        <pt x="471" y="0" on="1"/>
        <pt x="-41" y="0" on="1"/>
        <pt x="-23" y="86" on="1"/>
        <pt x="4" y="86" on="1"/>
        <pt x="99" y="86" on="0"/>
        <pt x="186" y="159" on="0"/>
        <pt x="201" y="233" on="1"/>
        <pt x="410" y="1221" on="1"/>
        <pt x="415" y="1242" on="0"/>
        <pt x="422" y="1285" on="0"/>
        <pt x="422" y="1294" on="1"/>
        <pt x="422" y="1336" on="0"/>
        <pt x="359" y="1376" on="0"/>
        <pt x="274" y="1376" on="1"/>
        <pt x="248" y="1376" on="1"/>
        <pt x="266" y="1462" on="1"/>
        <pt x="635" y="1462" on="1"/>
        <pt x="1135" y="328" on="1"/>
      </contour>
    </TTGlyph>
    <TTGlyph name="Eogonek" xMin="-43" yMin="-492" xMax="1298" yMax="1462">
      <component glyphName="E" x="0" y="0" flags="0x204"/>
      <component glyphName="ogonek" x="190" y="0" flags="0x4"/>
    </TTGlyph>
    <TTGlyph name="Epsilon" xMin="-43" yMin="0" xMax="1298" yMax="1462">
      <component glyphName="E" x="0" y="0" flags="0x204"/>
    </TTGlyph>
    <TTGlyph name="Epsilontonos" xMin="35" yMin="0" xMax="1464" yMax="1462">
      <component glyphName="E" x="166" y="0" flags="0x4"/>
      <component glyphName="tonos" x="-538" y="-168" flags="0x4"/>
    </TTGlyph>
    <TTGlyph name="Eta" xMin="-43" yMin="0" xMax="1735" yMax="1462">
      <component glyphName="H" x="0" y="0" flags="0x204"/>
    </TTGlyph>
    <TTGlyph name="Etatonos" xMin="39" yMin="0" xMax="1897" yMax="1462">
      <component glyphName="H" x="162" y="0" flags="0x4"/>
      <component glyphName="tonos" x="-534" y="-168" flags="0x4"/>
    </TTGlyph>
    <TTGlyph name="Eth" xMin="-43" yMin="0" xMax="1421" yMax="1462">
      <contour>
        <pt x="-27" y="86" on="1"/>
        <pt x="0" y="86" on="1"/>
        <pt x="97" y="86" on="0"/>
        <pt x="186" y="160" on="0"/>
        <pt x="201" y="233" on="1"/>
        <pt x="303" y="715" on="1"/>
        <pt x="104" y="715" on="1"/>
        <pt x="127" y="815" on="1"/>
        <pt x="324" y="815" on="1"/>
        <pt x="414" y="1237" on="1"/>
        <pt x="417" y="1251" on="0"/>
        <pt x="422" y="1282" on="0"/>
        <pt x="422" y="1294" on="1"/>
        <pt x="422" y="1336" on="0"/>
        <pt x="357" y="1376" on="0"/>
        <pt x="274" y="1376" on="1"/>
        <pt x="248" y="1376" on="1"/>
        <pt x="266" y="1462" on="1"/>
        <pt x="840" y="1462" on="1"/>
        <pt x="1119" y="1462" on="0"/>
        <pt x="1421" y="1174" on="0"/>
        <pt x="1421" y="905" on="1"/>
        <pt x="1421" y="650" on="0"/>
        <pt x="1219" y="231" on="0"/>
        <pt x="847" y="0" on="0"/>
        <pt x="602" y="0" on="1"/>
        <pt x="-43" y="0" on="1"/>
      </contour>
      <contour>
        <pt x="557" y="104" on="1"/>
        <pt x="851" y="104" on="0"/>
        <pt x="1198" y="557" on="0"/>
        <pt x="1198" y="928" on="1"/>
        <pt x="1198" y="1139" on="0"/>
        <pt x="999" y="1360" on="0"/>
        <pt x="809" y="1360" on="1"/>
        <pt x="647" y="1360" on="1"/>
        <pt x="530" y="815" on="1"/>
        <pt x="877" y="815" on="1"/>
        <pt x="854" y="715" on="1"/>
        <pt x="508" y="715" on="1"/>
        <pt x="379" y="104" on="1"/>
      </contour>
    </TTGlyph>
    <TTGlyph name="Euro" xMin="53" yMin="-20" xMax="1212" yMax="1479">
      <contour>
        <pt x="936" y="223" on="1"/>
        <pt x="961" y="206" on="0"/>
        <pt x="961" y="174" on="1"/>
        <pt x="961" y="107" on="0"/>
        <pt x="771" y="-20" on="0"/>
        <pt x="612" y="-20" on="1"/>
        <pt x="415" y="-20" on="0"/>
        <pt x="199" y="218" on="0"/>
        <pt x="199" y="444" on="1"/>
        <pt x="199" y="516" on="0"/>
        <pt x="203" y="547" on="1"/>
        <pt x="53" y="547" on="1"/>
        <pt x="74" y="643" on="1"/>
        <pt x="215" y="643" on="1"/>
        <pt x="226" y="725" on="0"/>
        <pt x="242" y="786" on="1"/>
        <pt x="102" y="786" on="1"/>
        <pt x="123" y="883" on="1"/>
        <pt x="268" y="883" on="1"/>
        <pt x="446" y="1479" on="0"/>
        <pt x="905" y="1479" on="1"/>
        <pt x="1046" y="1479" on="0"/>
        <pt x="1212" y="1373" on="0"/>
        <pt x="1212" y="1288" on="1"/>
        <pt x="1212" y="1139" on="0"/>
        <pt x="1032" y="1139" on="1"/>
        <pt x="1032" y="1378" on="0"/>
        <pt x="866" y="1378" on="1"/>
        <pt x="605" y="1378" on="0"/>
        <pt x="465" y="883" on="1"/>
        <pt x="895" y="883" on="1"/>
        <pt x="874" y="786" on="1"/>
        <pt x="440" y="786" on="1"/>
        <pt x="423" y="723" on="0"/>
        <pt x="414" y="643" on="1"/>
        <pt x="764" y="643" on="1"/>
        <pt x="743" y="547" on="1"/>
        <pt x="401" y="547" on="1"/>
        <pt x="397" y="516" on="0"/>
        <pt x="397" y="430" on="1"/>
        <pt x="397" y="272" on="0"/>
        <pt x="527" y="100" on="0"/>
        <pt x="649" y="100" on="1"/>
        <pt x="816" y="100" on="0"/>
      </contour>
    </TTGlyph>
    <TTGlyph name="F" xMin="-43" yMin="0" xMax="1298" yMax="1462">
      <contour>
        <pt x="-27" y="86" on="1"/>
        <pt x="0" y="86" on="1"/>
        <pt x="96" y="86" on="0"/>
        <pt x="180" y="152" on="0"/>
        <pt x="199" y="223" on="1"/>
        <pt x="414" y="1237" on="1"/>
        <pt x="422" y="1275" on="0"/>
        <pt x="422" y="1294" on="1"/>
        <pt x="422" y="1376" on="0"/>
        <pt x="274" y="1376" on="1"/>
        <pt x="248" y="1376" on="1"/>
        <pt x="266" y="1462" on="1"/>
        <pt x="1298" y="1462" on="1"/>
        <pt x="1233" y="1104" on="1"/>
        <pt x="1126" y="1104" on="1"/>
        <pt x="1130" y="1140" on="1"/>
        <pt x="1131" y="1159" on="0"/>
        <pt x="1133" y="1176" on="1"/>
        <pt x="1137" y="1210" on="0"/>
        <pt x="1137" y="1223" on="1"/>
        <pt x="1137" y="1360" on="0"/>
        <pt x="983" y="1360" on="1"/>
        <pt x="647" y="1360" on="1"/>
        <pt x="520" y="768" on="1"/>
        <pt x="1014" y="768" on="1"/>
        <pt x="993" y="668" on="1"/>
        <pt x="500" y="668" on="1"/>
        <pt x="408" y="233" on="1"/>
        <pt x="401" y="200" on="0"/>
        <pt x="401" y="182" on="1"/>
        <pt x="401" y="86" on="0"/>
        <pt x="543" y="86" on="1"/>
        <pt x="610" y="86" on="1"/>
        <pt x="594" y="0" on="1"/>
        <pt x="-43" y="0" on="1"/>
      </contour>
    </TTGlyph>
    <TTGlyph name="G" xMin="106" yMin="-20" xMax="1430" yMax="1483">
      <contour>
        <pt x="1430" y="676" on="1"/>
        <pt x="1411" y="590" on="1"/>
        <pt x="1403" y="590" on="1"/>
        <pt x="1321" y="590" on="0"/>
        <pt x="1245" y="517" on="0"/>
        <pt x="1229" y="442" on="1"/>
        <pt x="1151" y="74" on="1"/>
        <pt x="934" y="-20" on="0"/>
        <pt x="688" y="-20" on="1"/>
        <pt x="408" y="-20" on="0"/>
        <pt x="106" y="267" on="0"/>
        <pt x="106" y="528" on="1"/>
        <pt x="106" y="935" on="0"/>
        <pt x="606" y="1483" on="0"/>
        <pt x="987" y="1483" on="1"/>
        <pt x="1191" y="1483" on="0"/>
        <pt x="1419" y="1359" on="0"/>
        <pt x="1419" y="1262" on="1"/>
        <pt x="1419" y="1186" on="0"/>
        <pt x="1297" y="1100" on="0"/>
        <pt x="1202" y="1100" on="1"/>
        <pt x="1202" y="1232" on="0"/>
        <pt x="1068" y="1374" on="0"/>
        <pt x="944" y="1374" on="1"/>
        <pt x="691" y="1374" on="0"/>
        <pt x="330" y="851" on="0"/>
        <pt x="330" y="496" on="1"/>
        <pt x="330" y="96" on="0"/>
        <pt x="725" y="96" on="1"/>
        <pt x="840" y="96" on="0"/>
        <pt x="956" y="125" on="1"/>
        <pt x="1024" y="451" on="1"/>
        <pt x="1032" y="489" on="0"/>
        <pt x="1032" y="508" on="1"/>
        <pt x="1032" y="590" on="0"/>
        <pt x="885" y="590" on="1"/>
        <pt x="866" y="590" on="1"/>
        <pt x="885" y="676" on="1"/>
      </contour>
    </TTGlyph>
    <TTGlyph name="Gamma" xMin="-41" yMin="0" xMax="1284" yMax="1462">
      <contour>
        <pt x="594" y="0" on="1"/>
        <pt x="-41" y="0" on="1"/>
        <pt x="-23" y="86" on="1"/>
        <pt x="2" y="86" on="1"/>
        <pt x="170" y="86" on="0"/>
        <pt x="201" y="233" on="1"/>
        <pt x="412" y="1229" on="1"/>
        <pt x="422" y="1276" on="0"/>
        <pt x="422" y="1294" on="1"/>
        <pt x="422" y="1376" on="0"/>
        <pt x="274" y="1376" on="1"/>
        <pt x="248" y="1376" on="1"/>
        <pt x="266" y="1462" on="1"/>
        <pt x="1284" y="1462" on="1"/>
        <pt x="1221" y="1104" on="1"/>
        <pt x="1114" y="1104" on="1"/>
        <pt x="1124" y="1192" on="0"/>
        <pt x="1124" y="1223" on="1"/>
        <pt x="1124" y="1302" on="0"/>
        <pt x="1042" y="1360" on="0"/>
        <pt x="956" y="1360" on="1"/>
        <pt x="647" y="1360" on="1"/>
        <pt x="406" y="225" on="1"/>
        <pt x="397" y="183" on="0"/>
        <pt x="397" y="168" on="1"/>
        <pt x="397" y="86" on="0"/>
        <pt x="545" y="86" on="1"/>
        <pt x="612" y="86" on="1"/>
      </contour>
    </TTGlyph>
    <TTGlyph name="Gbreve" xMin="106" yMin="-20" xMax="1430" yMax="1860">
      <component glyphName="G" x="0" y="0" flags="0x204"/>
      <component glyphName="breve" x="241" y="338" flags="0x4"/>
    </TTGlyph>
    <TTGlyph name="Gcaron" xMin="106" yMin="-20" xMax="1430" yMax="1907">
      <component glyphName="G" x="0" y="0" flags="0x204"/>
      <component glyphName="caron" x="272" y="338" flags="0x4"/>
    </TTGlyph>
    <TTGlyph name="Gcircumflex" xMin="106" yMin="-20" xMax="1430" yMax="1907">
      <component glyphName="G" x="0" y="0" flags="0x204"/>
      <component glyphName="circumflex" x="289" y="338" flags="0x4"/>
    </TTGlyph>
    <TTGlyph name="Gcommaaccent" xMin="106" yMin="-453" xMax="1430" yMax="1483">
      <component glyphName="G" x="0" y="0" flags="0x204"/>
      <component glyphName="glyph00569" x="117" y="0" flags="0x4"/>
    </TTGlyph>
    <TTGlyph name="Gdotaccent" xMin="106" yMin="-20" xMax="1430" yMax="1876">
      <component glyphName="G" x="0" y="0" flags="0x204"/>
      <component glyphName="dotaccent" x="567" y="338" flags="0x4"/>
    </TTGlyph>
    <TTGlyph name="H" xMin="-43" yMin="0" xMax="1735" yMax="1462">
      <contour>
        <pt x="829" y="0" on="1"/>
        <pt x="846" y="86" on="1"/>
        <pt x="872" y="86" on="1"/>
        <pt x="970" y="86" on="0"/>
        <pt x="1058" y="159" on="0"/>
        <pt x="1073" y="233" on="1"/>
        <pt x="1174" y="713" on="1"/>
        <pt x="508" y="713" on="1"/>
        <pt x="406" y="225" on="1"/>
        <pt x="397" y="182" on="0"/>
        <pt x="397" y="168" on="1"/>
        <pt x="397" y="86" on="0"/>
        <pt x="545" y="86" on="1"/>
        <pt x="571" y="86" on="1"/>
        <pt x="553" y="0" on="1"/>
        <pt x="-43" y="0" on="1"/>
        <pt x="-27" y="86" on="1"/>
        <pt x="0" y="86" on="1"/>
        <pt x="99" y="86" on="0"/>
        <pt x="185" y="161" on="0"/>
        <pt x="201" y="233" on="1"/>
        <pt x="414" y="1237" on="1"/>
        <pt x="422" y="1275" on="0"/>
        <pt x="422" y="1294" on="1"/>
        <pt x="422" y="1376" on="0"/>
        <pt x="274" y="1376" on="1"/>
        <pt x="248" y="1376" on="1"/>
        <pt x="266" y="1462" on="1"/>
        <pt x="862" y="1462" on="1"/>
        <pt x="844" y="1376" on="1"/>
        <pt x="817" y="1376" on="1"/>
        <pt x="719" y="1376" on="0"/>
        <pt x="633" y="1302" on="0"/>
        <pt x="618" y="1229" on="1"/>
        <pt x="530" y="815" on="1"/>
        <pt x="1196" y="815" on="1"/>
        <pt x="1286" y="1237" on="1"/>
        <pt x="1294" y="1275" on="0"/>
        <pt x="1294" y="1294" on="1"/>
        <pt x="1294" y="1376" on="0"/>
        <pt x="1147" y="1376" on="1"/>
        <pt x="1120" y="1376" on="1"/>
        <pt x="1139" y="1462" on="1"/>
        <pt x="1735" y="1462" on="1"/>
        <pt x="1716" y="1376" on="1"/>
        <pt x="1690" y="1376" on="1"/>
        <pt x="1592" y="1376" on="0"/>
        <pt x="1506" y="1301" on="0"/>
        <pt x="1491" y="1229" on="1"/>
        <pt x="1278" y="225" on="1"/>
        <pt x="1270" y="187" on="0"/>
        <pt x="1270" y="168" on="1"/>
        <pt x="1270" y="86" on="0"/>
        <pt x="1417" y="86" on="1"/>
        <pt x="1444" y="86" on="1"/>
        <pt x="1425" y="0" on="1"/>
      </contour>
    </TTGlyph>
    <TTGlyph name="H18533" xMin="178" yMin="137" xMax="1059" yMax="1018">
      <contour>
        <pt x="618" y="1018" on="1"/>
        <pt x="727" y="1018" on="0"/>
        <pt x="944" y="901" on="0"/>
        <pt x="1059" y="684" on="0"/>
        <pt x="1059" y="578" on="1"/>
        <pt x="1059" y="395" on="0"/>
        <pt x="801" y="137" on="0"/>
        <pt x="618" y="137" on="1"/>
        <pt x="436" y="137" on="0"/>
        <pt x="178" y="395" on="0"/>
        <pt x="178" y="578" on="1"/>
        <pt x="178" y="686" on="0"/>
        <pt x="289" y="899" on="0"/>
        <pt x="504" y="1018" on="0"/>
      </contour>
    </TTGlyph>
    <TTGlyph name="H18543" xMin="109" yMin="383" xMax="616" yMax="891">
      <contour>
        <pt x="616" y="383" on="1"/>
        <pt x="109" y="383" on="1"/>
        <pt x="109" y="891" on="1"/>
        <pt x="616" y="891" on="1"/>
      </contour>
    </TTGlyph>
    <TTGlyph name="H18551" xMin="109" yMin="383" xMax="616" yMax="891">
      <contour>
        <pt x="616" y="383" on="1"/>
        <pt x="109" y="383" on="1"/>
        <pt x="109" y="891" on="1"/>
        <pt x="616" y="891" on="1"/>
      </contour>
      <contour>
        <pt x="541" y="459" on="1"/>
        <pt x="541" y="813" on="1"/>
        <pt x="184" y="813" on="1"/>
        <pt x="184" y="459" on="1"/>
      </contour>
    </TTGlyph>
    <TTGlyph name="H22073" xMin="6" yMin="0" xMax="1231" yMax="1225">
      <contour>
        <pt x="6" y="1225" on="1"/>
        <pt x="1231" y="1225" on="1"/>
        <pt x="1231" y="0" on="1"/>
        <pt x="6" y="0" on="1"/>
      </contour>
      <contour>
        <pt x="82" y="1149" on="1"/>
        <pt x="82" y="76" on="1"/>
        <pt x="1155" y="76" on="1"/>
        <pt x="1155" y="1149" on="1"/>
      </contour>
    </TTGlyph>
    <TTGlyph name="Hbar" xMin="-43" yMin="0" xMax="1735" yMax="1462">
      <contour>
        <pt x="829" y="0" on="1"/>
        <pt x="846" y="86" on="1"/>
        <pt x="872" y="86" on="1"/>
        <pt x="969" y="86" on="0"/>
        <pt x="1056" y="158" on="0"/>
        <pt x="1073" y="233" on="1"/>
        <pt x="1174" y="713" on="1"/>
        <pt x="508" y="713" on="1"/>
        <pt x="406" y="225" on="1"/>
        <pt x="397" y="182" on="0"/>
        <pt x="397" y="168" on="1"/>
        <pt x="397" y="86" on="0"/>
        <pt x="545" y="86" on="1"/>
        <pt x="571" y="86" on="1"/>
        <pt x="553" y="0" on="1"/>
        <pt x="-43" y="0" on="1"/>
        <pt x="-27" y="86" on="1"/>
        <pt x="0" y="86" on="1"/>
        <pt x="99" y="86" on="0"/>
        <pt x="185" y="161" on="0"/>
        <pt x="201" y="233" on="1"/>
        <pt x="367" y="1022" on="1"/>
        <pt x="174" y="1022" on="1"/>
        <pt x="193" y="1122" on="1"/>
        <pt x="389" y="1122" on="1"/>
        <pt x="414" y="1237" on="1"/>
        <pt x="422" y="1274" on="0"/>
        <pt x="422" y="1294" on="1"/>
        <pt x="422" y="1376" on="0"/>
        <pt x="274" y="1376" on="1"/>
        <pt x="248" y="1376" on="1"/>
        <pt x="266" y="1462" on="1"/>
        <pt x="862" y="1462" on="1"/>
        <pt x="844" y="1376" on="1"/>
        <pt x="817" y="1376" on="1"/>
        <pt x="719" y="1376" on="0"/>
        <pt x="633" y="1302" on="0"/>
        <pt x="618" y="1229" on="1"/>
        <pt x="596" y="1122" on="1"/>
        <pt x="1262" y="1122" on="1"/>
        <pt x="1286" y="1237" on="1"/>
        <pt x="1294" y="1275" on="0"/>
        <pt x="1294" y="1294" on="1"/>
        <pt x="1294" y="1376" on="0"/>
        <pt x="1147" y="1376" on="1"/>
        <pt x="1120" y="1376" on="1"/>
        <pt x="1139" y="1462" on="1"/>
        <pt x="1735" y="1462" on="1"/>
        <pt x="1716" y="1376" on="1"/>
        <pt x="1690" y="1376" on="1"/>
        <pt x="1592" y="1376" on="0"/>
        <pt x="1506" y="1301" on="0"/>
        <pt x="1491" y="1229" on="1"/>
        <pt x="1468" y="1122" on="1"/>
        <pt x="1661" y="1122" on="1"/>
        <pt x="1642" y="1022" on="1"/>
        <pt x="1446" y="1022" on="1"/>
        <pt x="1278" y="225" on="1"/>
        <pt x="1270" y="187" on="0"/>
        <pt x="1270" y="168" on="1"/>
        <pt x="1270" y="86" on="0"/>
        <pt x="1417" y="86" on="1"/>
        <pt x="1444" y="86" on="1"/>
        <pt x="1425" y="0" on="1"/>
      </contour>
      <contour>
        <pt x="1196" y="815" on="1"/>
        <pt x="1239" y="1022" on="1"/>
        <pt x="573" y="1022" on="1"/>
        <pt x="530" y="815" on="1"/>
      </contour>
    </TTGlyph>
    <TTGlyph name="Hcircumflex" xMin="-43" yMin="0" xMax="1735" yMax="1907">
      <component glyphName="H" x="0" y="0" flags="0x204"/>
      <component glyphName="circumflex" x="358" y="338" flags="0x4"/>
    </TTGlyph>
    <TTGlyph name="I" xMin="-43" yMin="0" xMax="862" yMax="1462">
      <contour>
        <pt x="862" y="1462" on="1"/>
        <pt x="844" y="1376" on="1"/>
        <pt x="817" y="1376" on="1"/>
        <pt x="719" y="1376" on="0"/>
        <pt x="633" y="1302" on="0"/>
        <pt x="618" y="1229" on="1"/>
        <pt x="406" y="225" on="1"/>
        <pt x="397" y="182" on="0"/>
        <pt x="397" y="168" on="1"/>
        <pt x="397" y="86" on="0"/>
        <pt x="545" y="86" on="1"/>
        <pt x="571" y="86" on="1"/>
        <pt x="553" y="0" on="1"/>
        <pt x="-43" y="0" on="1"/>
        <pt x="-27" y="86" on="1"/>
        <pt x="0" y="86" on="1"/>
        <pt x="170" y="86" on="0"/>
        <pt x="201" y="233" on="1"/>
        <pt x="414" y="1237" on="1"/>
        <pt x="422" y="1275" on="0"/>
        <pt x="422" y="1294" on="1"/>
        <pt x="422" y="1376" on="0"/>
        <pt x="274" y="1376" on="1"/>
        <pt x="248" y="1376" on="1"/>
        <pt x="266" y="1462" on="1"/>
      </contour>
    </TTGlyph>
    <TTGlyph name="IJ" xMin="-43" yMin="-492" xMax="1546" yMax="1462">
      <component glyphName="I" x="0" y="0" flags="0x4"/>
      <component glyphName="J" x="694" y="0" flags="0x4"/>
    </TTGlyph>
    <TTGlyph name="Iacute" xMin="-43" yMin="0" xMax="914" yMax="1907">
      <component glyphName="I" x="0" y="0" flags="0x204"/>
      <component glyphName="acute" x="-32" y="338" flags="0x4"/>
    </TTGlyph>
    <TTGlyph name="Ibreve" xMin="-43" yMin="0" xMax="907" yMax="1860">
      <component glyphName="I" x="0" y="0" flags="0x204"/>
      <component glyphName="breve" x="-142" y="338" flags="0x4"/>
    </TTGlyph>
    <TTGlyph name="Icircumflex" xMin="-43" yMin="0" xMax="884" yMax="1907">
      <component glyphName="I" x="0" y="0" flags="0x204"/>
      <component glyphName="circumflex" x="-101" y="338" flags="0x4"/>
    </TTGlyph>
    <TTGlyph name="Idieresis" xMin="-43" yMin="0" xMax="904" yMax="1864">
      <component glyphName="I" x="0" y="0" flags="0x204"/>
      <component glyphName="dieresis" x="-110" y="338" flags="0x4"/>
    </TTGlyph>
    <TTGlyph name="Idotaccent" xMin="-43" yMin="0" xMax="862" yMax="1876">
      <component glyphName="I" x="0" y="0" flags="0x204"/>
      <component glyphName="dotaccent" x="160" y="338" flags="0x4"/>
    </TTGlyph>
    <TTGlyph name="Igrave" xMin="-43" yMin="0" xMax="862" yMax="1907">
      <component glyphName="I" x="0" y="0" flags="0x204"/>
      <component glyphName="grave" x="-222" y="338" flags="0x4"/>
    </TTGlyph>
    <TTGlyph name="Imacron" xMin="-43" yMin="0" xMax="906" yMax="1700">
      <component glyphName="I" x="0" y="0" flags="0x204"/>
      <component glyphName="uni02C9" x="-79" y="338" flags="0x4"/>
    </TTGlyph>
    <TTGlyph name="Iogonek" xMin="-43" yMin="-492" xMax="862" yMax="1462">
      <component glyphName="I" x="0" y="0" flags="0x204"/>
      <component glyphName="ogonek" x="-292" y="0" flags="0x4"/>
    </TTGlyph>
    <TTGlyph name="Iota" xMin="-43" yMin="0" xMax="862" yMax="1462">
      <component glyphName="I" x="0" y="0" flags="0x204"/>
    </TTGlyph>
    <TTGlyph name="Iotadieresis" xMin="-43" yMin="0" xMax="904" yMax="1864">
      <component glyphName="I" x="0" y="0" flags="0x204"/>
      <component glyphName="dieresis" x="-110" y="338" flags="0x4"/>
    </TTGlyph>
    <TTGlyph name="Iotatonos" xMin="39" yMin="0" xMax="1024" yMax="1462">
      <component glyphName="I" x="162" y="0" flags="0x4"/>
      <component glyphName="tonos" x="-534" y="-168" flags="0x4"/>
    </TTGlyph>
    <TTGlyph name="Itilde" xMin="-43" yMin="0" xMax="998" yMax="1841">
      <component glyphName="I" x="0" y="0" flags="0x204"/>
      <component glyphName="tilde" x="-122" y="338" flags="0x4"/>
    </TTGlyph>
    <TTGlyph name="J" xMin="-317" yMin="-492" xMax="852" yMax="1462">
      <contour>
        <pt x="852" y="1462" on="1"/>
        <pt x="834" y="1376" on="1"/>
        <pt x="807" y="1376" on="1"/>
        <pt x="709" y="1376" on="0"/>
        <pt x="623" y="1302" on="0"/>
        <pt x="608" y="1229" on="1"/>
        <pt x="342" y="-16" on="1"/>
        <pt x="288" y="-267" on="0"/>
        <pt x="53" y="-492" on="0"/>
        <pt x="-150" y="-492" on="1"/>
        <pt x="-241" y="-492" on="0"/>
        <pt x="-317" y="-469" on="1"/>
        <pt x="-289" y="-377" on="1"/>
        <pt x="-238" y="-395" on="0"/>
        <pt x="-156" y="-395" on="1"/>
        <pt x="-37" y="-395" on="0"/>
        <pt x="95" y="-217" on="0"/>
        <pt x="137" y="-18" on="1"/>
        <pt x="403" y="1237" on="1"/>
        <pt x="412" y="1279" on="0"/>
        <pt x="412" y="1294" on="1"/>
        <pt x="412" y="1376" on="0"/>
        <pt x="264" y="1376" on="1"/>
        <pt x="238" y="1376" on="1"/>
        <pt x="256" y="1462" on="1"/>
      </contour>
    </TTGlyph>
    <TTGlyph name="Jcircumflex" xMin="-317" yMin="-492" xMax="877" yMax="1907">
      <component glyphName="J" x="0" y="0" flags="0x204"/>
      <component glyphName="circumflex" x="-108" y="338" flags="0x4"/>
    </TTGlyph>
    <TTGlyph name="K" xMin="-43" yMin="0" xMax="1554" yMax="1462">
      <contour>
        <pt x="-27" y="86" on="1"/>
        <pt x="0" y="86" on="1"/>
        <pt x="99" y="86" on="0"/>
        <pt x="185" y="161" on="0"/>
        <pt x="201" y="233" on="1"/>
        <pt x="414" y="1237" on="1"/>
        <pt x="422" y="1275" on="0"/>
        <pt x="422" y="1294" on="1"/>
        <pt x="422" y="1376" on="0"/>
        <pt x="274" y="1376" on="1"/>
        <pt x="248" y="1376" on="1"/>
        <pt x="266" y="1462" on="1"/>
        <pt x="862" y="1462" on="1"/>
        <pt x="844" y="1376" on="1"/>
        <pt x="817" y="1376" on="1"/>
        <pt x="719" y="1376" on="0"/>
        <pt x="633" y="1302" on="0"/>
        <pt x="618" y="1229" on="1"/>
        <pt x="530" y="815" on="1"/>
        <pt x="494" y="664" on="1"/>
        <pt x="1022" y="1149" on="1"/>
        <pt x="1176" y="1290" on="0"/>
        <pt x="1176" y="1333" on="1"/>
        <pt x="1176" y="1378" on="0"/>
        <pt x="1085" y="1378" on="1"/>
        <pt x="1102" y="1462" on="1"/>
        <pt x="1554" y="1462" on="1"/>
        <pt x="1538" y="1378" on="1"/>
        <pt x="1485" y="1378" on="0"/>
        <pt x="1355" y="1307" on="0"/>
        <pt x="1223" y="1186" on="1"/>
        <pt x="850" y="848" on="1"/>
        <pt x="1098" y="250" on="1"/>
        <pt x="1166" y="86" on="0"/>
        <pt x="1292" y="86" on="1"/>
        <pt x="1298" y="86" on="1"/>
        <pt x="1280" y="0" on="1"/>
        <pt x="1251" y="0" on="1"/>
        <pt x="1089" y="0" on="0"/>
        <pt x="931" y="67" on="0"/>
        <pt x="883" y="190" on="1"/>
        <pt x="684" y="696" on="1"/>
        <pt x="473" y="549" on="1"/>
        <pt x="406" y="225" on="1"/>
        <pt x="397" y="181" on="0"/>
        <pt x="397" y="168" on="1"/>
        <pt x="397" y="86" on="0"/>
        <pt x="545" y="86" on="1"/>
        <pt x="571" y="86" on="1"/>
        <pt x="553" y="0" on="1"/>
        <pt x="-43" y="0" on="1"/>
      </contour>
    </TTGlyph>
    <TTGlyph name="Kappa" xMin="-43" yMin="0" xMax="1554" yMax="1462">
      <component glyphName="K" x="0" y="0" flags="0x204"/>
    </TTGlyph>
    <TTGlyph name="Kcommaaccent" xMin="-43" yMin="-453" xMax="1554" yMax="1462">
      <component glyphName="K" x="0" y="0" flags="0x204"/>
      <component glyphName="glyph00569" x="131" y="0" flags="0x4"/>
    </TTGlyph>
    <TTGlyph name="L" xMin="-41" yMin="0" xMax="1161" yMax="1462">
      <contour>
        <pt x="-23" y="86" on="1"/>
        <pt x="4" y="86" on="1"/>
        <pt x="100" y="86" on="0"/>
        <pt x="184" y="161" on="0"/>
        <pt x="201" y="233" on="1"/>
        <pt x="414" y="1237" on="1"/>
        <pt x="422" y="1275" on="0"/>
        <pt x="422" y="1294" on="1"/>
        <pt x="422" y="1376" on="0"/>
        <pt x="274" y="1376" on="1"/>
        <pt x="248" y="1376" on="1"/>
        <pt x="266" y="1462" on="1"/>
        <pt x="862" y="1462" on="1"/>
        <pt x="844" y="1376" on="1"/>
        <pt x="817" y="1376" on="1"/>
        <pt x="720" y="1376" on="0"/>
        <pt x="636" y="1307" on="0"/>
        <pt x="621" y="1237" on="1"/>
        <pt x="379" y="102" on="1"/>
        <pt x="782" y="102" on="1"/>
        <pt x="939" y="102" on="0"/>
        <pt x="1001" y="287" on="1"/>
        <pt x="1055" y="440" on="1"/>
        <pt x="1161" y="440" on="1"/>
        <pt x="1055" y="0" on="1"/>
        <pt x="-41" y="0" on="1"/>
      </contour>
    </TTGlyph>
    <TTGlyph name="Lacute" xMin="-41" yMin="0" xMax="1161" yMax="1907">
      <component glyphName="L" x="0" y="0" flags="0x204"/>
      <component glyphName="acute" x="76" y="338" flags="0x4"/>
    </TTGlyph>
    <TTGlyph name="Lambda" xMin="-115" yMin="0" xMax="1284" yMax="1462">
      <contour>
        <pt x="961" y="1462" on="1"/>
        <pt x="1135" y="195" on="1"/>
        <pt x="1142" y="142" on="0"/>
        <pt x="1188" y="86" on="0"/>
        <pt x="1257" y="86" on="1"/>
        <pt x="1284" y="86" on="1"/>
        <pt x="1266" y="0" on="1"/>
        <pt x="702" y="0" on="1"/>
        <pt x="721" y="86" on="1"/>
        <pt x="768" y="86" on="1"/>
        <pt x="915" y="86" on="0"/>
        <pt x="915" y="197" on="1"/>
        <pt x="915" y="236" on="0"/>
        <pt x="911" y="260" on="1"/>
        <pt x="827" y="932" on="1"/>
        <pt x="807" y="1092" on="0"/>
        <pt x="807" y="1262" on="1"/>
        <pt x="746" y="1119" on="0"/>
        <pt x="641" y="932" on="1"/>
        <pt x="276" y="274" on="1"/>
        <pt x="238" y="205" on="0"/>
        <pt x="238" y="162" on="1"/>
        <pt x="238" y="86" on="0"/>
        <pt x="354" y="86" on="1"/>
        <pt x="401" y="86" on="1"/>
        <pt x="383" y="0" on="1"/>
        <pt x="-115" y="0" on="1"/>
        <pt x="-96" y="86" on="1"/>
        <pt x="-57" y="86" on="1"/>
        <pt x="3" y="86" on="0"/>
        <pt x="72" y="145" on="0"/>
        <pt x="129" y="246" on="1"/>
        <pt x="811" y="1462" on="1"/>
      </contour>
    </TTGlyph>
    <TTGlyph name="Lcaron" xMin="-41" yMin="0" xMax="1217" yMax="1463">
      <component glyphName="L" x="0" y="0" flags="0x204"/>
      <component glyphName="glyph00568" x="545" y="-93" flags="0x4"/>
    </TTGlyph>
    <TTGlyph name="Lcommaaccent" xMin="-41" yMin="-453" xMax="1161" yMax="1462">
      <component glyphName="L" x="0" y="0" flags="0x204"/>
      <component glyphName="glyph00569" x="20" y="0" flags="0x4"/>
    </TTGlyph>
    <TTGlyph name="Ldot" xMin="-41" yMin="0" xMax="1161" yMax="1462">
      <component glyphName="L" x="0" y="0" flags="0x204"/>
      <component glyphName="dotaccent" x="569" y="-644" flags="0x4"/>
    </TTGlyph>
    <TTGlyph name="Lslash" xMin="-41" yMin="0" xMax="1161" yMax="1462">
      <contour>
        <pt x="-23" y="86" on="1"/>
        <pt x="4" y="86" on="1"/>
        <pt x="100" y="86" on="0"/>
        <pt x="184" y="161" on="0"/>
        <pt x="201" y="233" on="1"/>
        <pt x="274" y="582" on="1"/>
        <pt x="53" y="469" on="1"/>
        <pt x="78" y="584" on="1"/>
        <pt x="299" y="696" on="1"/>
        <pt x="414" y="1237" on="1"/>
        <pt x="422" y="1275" on="0"/>
        <pt x="422" y="1294" on="1"/>
        <pt x="422" y="1376" on="0"/>
        <pt x="274" y="1376" on="1"/>
        <pt x="248" y="1376" on="1"/>
        <pt x="266" y="1462" on="1"/>
        <pt x="862" y="1462" on="1"/>
        <pt x="844" y="1376" on="1"/>
        <pt x="817" y="1376" on="1"/>
        <pt x="719" y="1376" on="0"/>
        <pt x="637" y="1303" on="0"/>
        <pt x="621" y="1237" on="1"/>
        <pt x="530" y="815" on="1"/>
        <pt x="887" y="1001" on="1"/>
        <pt x="862" y="883" on="1"/>
        <pt x="506" y="698" on="1"/>
        <pt x="379" y="102" on="1"/>
        <pt x="782" y="102" on="1"/>
        <pt x="939" y="102" on="0"/>
        <pt x="1001" y="287" on="1"/>
        <pt x="1055" y="440" on="1"/>
        <pt x="1161" y="440" on="1"/>
        <pt x="1055" y="0" on="1"/>
        <pt x="-41" y="0" on="1"/>
      </contour>
    </TTGlyph>
    <TTGlyph name="M" xMin="-41" yMin="0" xMax="2032" yMax="1462">
      <contour>
        <pt x="1178" y="0" on="1"/>
        <pt x="1196" y="86" on="1"/>
        <pt x="1202" y="86" on="1"/>
        <pt x="1289" y="86" on="0"/>
        <pt x="1359" y="151" on="0"/>
        <pt x="1376" y="215" on="1"/>
        <pt x="1610" y="1309" on="1"/>
        <pt x="862" y="0" on="1"/>
        <pt x="752" y="0" on="1"/>
        <pt x="553" y="1309" on="1"/>
        <pt x="324" y="225" on="1"/>
        <pt x="315" y="182" on="0"/>
        <pt x="315" y="168" on="1"/>
        <pt x="315" y="86" on="0"/>
        <pt x="463" y="86" on="1"/>
        <pt x="489" y="86" on="1"/>
        <pt x="471" y="0" on="1"/>
        <pt x="-41" y="0" on="1"/>
        <pt x="-23" y="86" on="1"/>
        <pt x="4" y="86" on="1"/>
        <pt x="106" y="86" on="0"/>
        <pt x="185" y="158" on="0"/>
        <pt x="199" y="223" on="1"/>
        <pt x="414" y="1237" on="1"/>
        <pt x="422" y="1275" on="0"/>
        <pt x="422" y="1294" on="1"/>
        <pt x="422" y="1376" on="0"/>
        <pt x="274" y="1376" on="1"/>
        <pt x="248" y="1376" on="1"/>
        <pt x="266" y="1462" on="1"/>
        <pt x="731" y="1462" on="1"/>
        <pt x="905" y="295" on="1"/>
        <pt x="1575" y="1462" on="1"/>
        <pt x="2032" y="1462" on="1"/>
        <pt x="2013" y="1376" on="1"/>
        <pt x="1987" y="1376" on="1"/>
        <pt x="1889" y="1376" on="0"/>
        <pt x="1803" y="1301" on="0"/>
        <pt x="1788" y="1229" on="1"/>
        <pt x="1575" y="225" on="1"/>
        <pt x="1567" y="187" on="0"/>
        <pt x="1567" y="168" on="1"/>
        <pt x="1567" y="86" on="0"/>
        <pt x="1714" y="86" on="1"/>
        <pt x="1741" y="86" on="1"/>
        <pt x="1722" y="0" on="1"/>
      </contour>
    </TTGlyph>
    <TTGlyph name="Mu" xMin="-41" yMin="0" xMax="2032" yMax="1462">
      <component glyphName="M" x="0" y="0" flags="0x204"/>
    </TTGlyph>
    <TTGlyph name="N" xMin="-41" yMin="0" xMax="1694" yMax="1462">
      <contour>
        <pt x="1327" y="1237" on="1"/>
        <pt x="1335" y="1275" on="0"/>
        <pt x="1335" y="1294" on="1"/>
        <pt x="1335" y="1376" on="0"/>
        <pt x="1188" y="1376" on="1"/>
        <pt x="1161" y="1376" on="1"/>
        <pt x="1180" y="1462" on="1"/>
        <pt x="1694" y="1462" on="1"/>
        <pt x="1675" y="1376" on="1"/>
        <pt x="1649" y="1376" on="1"/>
        <pt x="1551" y="1376" on="0"/>
        <pt x="1466" y="1301" on="0"/>
        <pt x="1450" y="1229" on="1"/>
        <pt x="1190" y="0" on="1"/>
        <pt x="1057" y="0" on="1"/>
        <pt x="530" y="1200" on="1"/>
        <pt x="324" y="225" on="1"/>
        <pt x="315" y="182" on="0"/>
        <pt x="315" y="168" on="1"/>
        <pt x="315" y="86" on="0"/>
        <pt x="463" y="86" on="1"/>
        <pt x="489" y="86" on="1"/>
        <pt x="471" y="0" on="1"/>
        <pt x="-41" y="0" on="1"/>
        <pt x="-23" y="86" on="1"/>
        <pt x="4" y="86" on="1"/>
        <pt x="100" y="86" on="0"/>
        <pt x="184" y="161" on="0"/>
        <pt x="201" y="233" on="1"/>
        <pt x="414" y="1237" on="1"/>
        <pt x="422" y="1275" on="0"/>
        <pt x="422" y="1294" on="1"/>
        <pt x="422" y="1376" on="0"/>
        <pt x="274" y="1376" on="1"/>
        <pt x="248" y="1376" on="1"/>
        <pt x="266" y="1462" on="1"/>
        <pt x="639" y="1462" on="1"/>
        <pt x="1135" y="332" on="1"/>
      </contour>
    </TTGlyph>
    <TTGlyph name="Nacute" xMin="-41" yMin="0" xMax="1694" yMax="1907">
      <component glyphName="N" x="0" y="0" flags="0x204"/>
      <component glyphName="acute" x="432" y="338" flags="0x4"/>
    </TTGlyph>
    <TTGlyph name="Ncaron" xMin="-41" yMin="0" xMax="1694" yMax="1907">
      <component glyphName="N" x="0" y="0" flags="0x204"/>
      <component glyphName="caron" x="287" y="338" flags="0x4"/>
    </TTGlyph>
    <TTGlyph name="Ncommaaccent" xMin="-41" yMin="-453" xMax="1694" yMax="1462">
      <component glyphName="N" x="0" y="0" flags="0x204"/>
      <component glyphName="glyph00569" x="131" y="0" flags="0x4"/>
    </TTGlyph>
    <TTGlyph name="Ntilde" xMin="-41" yMin="0" xMax="1694" yMax="1841">
      <component glyphName="N" x="0" y="0" flags="0x204"/>
      <component glyphName="tilde" x="319" y="338" flags="0x4"/>
    </TTGlyph>
    <TTGlyph name="Nu" xMin="-41" yMin="0" xMax="1694" yMax="1462">
      <component glyphName="N" x="0" y="0" flags="0x204"/>
    </TTGlyph>
    <TTGlyph name="O" xMin="106" yMin="-23" xMax="1456" yMax="1485">
      <contour>
        <pt x="926" y="1485" on="1"/>
        <pt x="1164" y="1485" on="0"/>
        <pt x="1456" y="1189" on="0"/>
        <pt x="1456" y="922" on="1"/>
        <pt x="1456" y="571" on="0"/>
        <pt x="1000" y="-23" on="0"/>
        <pt x="643" y="-23" on="1"/>
        <pt x="400" y="-23" on="0"/>
        <pt x="106" y="284" on="0"/>
        <pt x="106" y="545" on="1"/>
        <pt x="106" y="897" on="0"/>
        <pt x="566" y="1485" on="0"/>
      </contour>
      <contour>
        <pt x="655" y="90" on="1"/>
        <pt x="910" y="90" on="0"/>
        <pt x="1231" y="655" on="0"/>
        <pt x="1231" y="977" on="1"/>
        <pt x="1231" y="1168" on="0"/>
        <pt x="1062" y="1374" on="0"/>
        <pt x="909" y="1374" on="1"/>
        <pt x="653" y="1374" on="0"/>
        <pt x="330" y="807" on="0"/>
        <pt x="330" y="487" on="1"/>
        <pt x="330" y="295" on="0"/>
        <pt x="504" y="90" on="0"/>
      </contour>
    </TTGlyph>
    <TTGlyph name="OE" xMin="106" yMin="-23" xMax="1993" yMax="1485">
      <contour>
        <pt x="1073" y="102" on="1"/>
        <pt x="1468" y="102" on="1"/>
        <pt x="1641" y="102" on="0"/>
        <pt x="1700" y="270" on="1"/>
        <pt x="1733" y="358" on="1"/>
        <pt x="1839" y="358" on="1"/>
        <pt x="1749" y="0" on="1"/>
        <pt x="868" y="0" on="1"/>
        <pt x="799" y="-12" on="1"/>
        <pt x="719" y="-23" on="0"/>
        <pt x="643" y="-23" on="1"/>
        <pt x="400" y="-23" on="0"/>
        <pt x="106" y="284" on="0"/>
        <pt x="106" y="545" on="1"/>
        <pt x="106" y="897" on="0"/>
        <pt x="566" y="1485" on="0"/>
        <pt x="926" y="1485" on="1"/>
        <pt x="1028" y="1485" on="0"/>
        <pt x="1143" y="1462" on="1"/>
        <pt x="1993" y="1462" on="1"/>
        <pt x="1927" y="1104" on="1"/>
        <pt x="1821" y="1104" on="1"/>
        <pt x="1831" y="1174" on="0"/>
        <pt x="1831" y="1223" on="1"/>
        <pt x="1831" y="1356" on="0"/>
        <pt x="1686" y="1360" on="1"/>
        <pt x="1341" y="1360" on="1"/>
        <pt x="1225" y="815" on="1"/>
        <pt x="1718" y="815" on="1"/>
        <pt x="1698" y="715" on="1"/>
        <pt x="1204" y="715" on="1"/>
      </contour>
      <contour>
        <pt x="872" y="125" on="1"/>
        <pt x="1128" y="1333" on="1"/>
        <pt x="1015" y="1374" on="0"/>
        <pt x="909" y="1374" on="1"/>
        <pt x="653" y="1374" on="0"/>
        <pt x="330" y="807" on="0"/>
        <pt x="330" y="487" on="1"/>
        <pt x="330" y="295" on="0"/>
        <pt x="504" y="90" on="0"/>
        <pt x="655" y="90" on="1"/>
        <pt x="790" y="90" on="0"/>
      </contour>
    </TTGlyph>
    <TTGlyph name="Oacute" xMin="106" yMin="-23" xMax="1456" yMax="1907">
      <component glyphName="O" x="0" y="0" flags="0x204"/>
      <component glyphName="acute" x="319" y="338" flags="0x4"/>
    </TTGlyph>
    <TTGlyph name="Obreve" xMin="106" yMin="-23" xMax="1456" yMax="1860">
      <component glyphName="O" x="0" y="0" flags="0x204"/>
      <component glyphName="breve" x="237" y="338" flags="0x4"/>
    </TTGlyph>
    <TTGlyph name="Ocircumflex" xMin="106" yMin="-23" xMax="1456" yMax="1907">
      <component glyphName="O" x="0" y="0" flags="0x204"/>
      <component glyphName="circumflex" x="258" y="338" flags="0x4"/>
    </TTGlyph>
    <TTGlyph name="Odieresis" xMin="106" yMin="-23" xMax="1456" yMax="1864">
      <component glyphName="O" x="0" y="0" flags="0x204"/>
      <component glyphName="dieresis" x="266" y="338" flags="0x4"/>
    </TTGlyph>
    <TTGlyph name="Ograve" xMin="106" yMin="-23" xMax="1456" yMax="1907">
      <component glyphName="O" x="0" y="0" flags="0x204"/>
      <component glyphName="grave" x="193" y="338" flags="0x4"/>
    </TTGlyph>
    <TTGlyph name="Ohorn" xMin="106" yMin="-23" xMax="1729" yMax="1577">
      <contour>
        <pt x="1399" y="1206" on="1"/>
        <pt x="1548" y="1256" on="0"/>
        <pt x="1548" y="1346" on="1"/>
        <pt x="1548" y="1367" on="0"/>
        <pt x="1519" y="1400" on="1"/>
        <pt x="1489" y="1433" on="0"/>
        <pt x="1489" y="1470" on="1"/>
        <pt x="1489" y="1577" on="0"/>
        <pt x="1610" y="1577" on="1"/>
        <pt x="1665" y="1577" on="0"/>
        <pt x="1729" y="1513" on="0"/>
        <pt x="1729" y="1462" on="1"/>
        <pt x="1729" y="1254" on="0"/>
        <pt x="1425" y="1141" on="1"/>
        <pt x="1456" y="1047" on="0"/>
        <pt x="1456" y="922" on="1"/>
        <pt x="1456" y="571" on="0"/>
        <pt x="1000" y="-23" on="0"/>
        <pt x="643" y="-23" on="1"/>
        <pt x="400" y="-23" on="0"/>
        <pt x="106" y="284" on="0"/>
        <pt x="106" y="545" on="1"/>
        <pt x="106" y="897" on="0"/>
        <pt x="566" y="1485" on="0"/>
        <pt x="926" y="1485" on="1"/>
        <pt x="1263" y="1485" on="0"/>
      </contour>
      <contour>
        <pt x="655" y="90" on="1"/>
        <pt x="910" y="90" on="0"/>
        <pt x="1231" y="655" on="0"/>
        <pt x="1231" y="977" on="1"/>
        <pt x="1231" y="1168" on="0"/>
        <pt x="1062" y="1374" on="0"/>
        <pt x="909" y="1374" on="1"/>
        <pt x="653" y="1374" on="0"/>
        <pt x="330" y="807" on="0"/>
        <pt x="330" y="487" on="1"/>
        <pt x="330" y="295" on="0"/>
        <pt x="504" y="90" on="0"/>
      </contour>
    </TTGlyph>
    <TTGlyph name="Ohungarumlaut" xMin="106" yMin="-23" xMax="1522" yMax="1907">
      <component glyphName="O" x="0" y="0" flags="0x204"/>
      <component glyphName="hungarumlaut" x="312" y="338" flags="0x4"/>
    </TTGlyph>
    <TTGlyph name="Omacron" xMin="106" yMin="-23" xMax="1456" yMax="1700">
      <component glyphName="O" x="0" y="0" flags="0x204"/>
      <component glyphName="uni02C9" x="291" y="338" flags="0x4"/>
    </TTGlyph>
    <TTGlyph name="Omega" xMin="-12" yMin="0" xMax="1475" yMax="1485">
      <contour>
        <pt x="686" y="0" on="1"/>
        <pt x="778" y="428" on="1"/>
        <pt x="1040" y="459" on="0"/>
        <pt x="1251" y="837" on="0"/>
        <pt x="1251" y="1026" on="1"/>
        <pt x="1251" y="1195" on="0"/>
        <pt x="1070" y="1374" on="0"/>
        <pt x="899" y="1374" on="1"/>
        <pt x="624" y="1374" on="0"/>
        <pt x="381" y="988" on="0"/>
        <pt x="381" y="758" on="1"/>
        <pt x="381" y="622" on="0"/>
        <pt x="516" y="443" on="0"/>
        <pt x="639" y="428" on="1"/>
        <pt x="561" y="0" on="1"/>
        <pt x="-12" y="0" on="1"/>
        <pt x="16" y="358" on="1"/>
        <pt x="123" y="358" on="1"/>
        <pt x="123" y="291" on="1"/>
        <pt x="123" y="217" on="0"/>
        <pt x="198" y="164" on="0"/>
        <pt x="289" y="164" on="1"/>
        <pt x="483" y="164" on="1"/>
        <pt x="518" y="344" on="1"/>
        <pt x="349" y="381" on="0"/>
        <pt x="156" y="626" on="0"/>
        <pt x="156" y="803" on="1"/>
        <pt x="156" y="1081" on="0"/>
        <pt x="558" y="1485" on="0"/>
        <pt x="924" y="1485" on="1"/>
        <pt x="1179" y="1485" on="0"/>
        <pt x="1475" y="1236" on="0"/>
        <pt x="1475" y="1018" on="1"/>
        <pt x="1475" y="757" on="0"/>
        <pt x="1175" y="397" on="0"/>
        <pt x="877" y="344" on="1"/>
        <pt x="834" y="164" on="1"/>
        <pt x="1028" y="164" on="1"/>
        <pt x="1120" y="164" on="0"/>
        <pt x="1219" y="218" on="0"/>
        <pt x="1251" y="291" on="1"/>
        <pt x="1280" y="358" on="1"/>
        <pt x="1386" y="358" on="1"/>
        <pt x="1294" y="0" on="1"/>
      </contour>
    </TTGlyph>
    <TTGlyph name="Omegatonos" xMin="-32" yMin="0" xMax="1475" yMax="1485">
      <component glyphName="Omega" x="0" y="0" flags="0x204"/>
      <component glyphName="tonos" x="-605" y="-168" flags="0x4"/>
    </TTGlyph>
    <TTGlyph name="Omicron" xMin="106" yMin="-23" xMax="1456" yMax="1485">
      <component glyphName="O" x="0" y="0" flags="0x204"/>
    </TTGlyph>
    <TTGlyph name="Omicrontonos" xMin="9" yMin="-23" xMax="1456" yMax="1485">
      <component glyphName="O" x="0" y="0" flags="0x204"/>
      <component glyphName="tonos" x="-564" y="-168" flags="0x4"/>
    </TTGlyph>
    <TTGlyph name="Oslash" xMin="106" yMin="-82" xMax="1456" yMax="1546">
      <contour>
        <pt x="1217" y="1409" on="1"/>
        <pt x="1323" y="1546" on="1"/>
        <pt x="1442" y="1546" on="1"/>
        <pt x="1292" y="1352" on="1"/>
        <pt x="1456" y="1200" on="0"/>
        <pt x="1456" y="922" on="1"/>
        <pt x="1456" y="571" on="0"/>
        <pt x="1000" y="-23" on="0"/>
        <pt x="643" y="-23" on="1"/>
        <pt x="478" y="-23" on="0"/>
        <pt x="354" y="51" on="1"/>
        <pt x="258" y="-82" on="1"/>
        <pt x="137" y="-82" on="1"/>
        <pt x="274" y="109" on="1"/>
        <pt x="106" y="265" on="0"/>
        <pt x="106" y="545" on="1"/>
        <pt x="106" y="897" on="0"/>
        <pt x="566" y="1485" on="0"/>
        <pt x="926" y="1485" on="1"/>
        <pt x="1091" y="1485" on="0"/>
      </contour>
      <contour>
        <pt x="379" y="250" on="1"/>
        <pt x="1130" y="1288" on="1"/>
        <pt x="1046" y="1374" on="0"/>
        <pt x="909" y="1374" on="1"/>
        <pt x="653" y="1374" on="0"/>
        <pt x="330" y="807" on="0"/>
        <pt x="330" y="487" on="1"/>
        <pt x="330" y="348" on="0"/>
      </contour>
      <contour>
        <pt x="1188" y="1204" on="1"/>
        <pt x="438" y="168" on="1"/>
        <pt x="524" y="90" on="0"/>
        <pt x="655" y="90" on="1"/>
        <pt x="910" y="90" on="0"/>
        <pt x="1231" y="655" on="0"/>
        <pt x="1231" y="977" on="1"/>
        <pt x="1231" y="1106" on="0"/>
      </contour>
    </TTGlyph>
    <TTGlyph name="Oslashacute" xMin="106" yMin="-82" xMax="1456" yMax="1907">
      <component glyphName="Oslash" x="0" y="0" flags="0x204"/>
      <component glyphName="acute" x="319" y="338" flags="0x4"/>
    </TTGlyph>
    <TTGlyph name="Otilde" xMin="106" yMin="-23" xMax="1456" yMax="1841">
      <component glyphName="O" x="0" y="0" flags="0x204"/>
      <component glyphName="tilde" x="244" y="338" flags="0x4"/>
    </TTGlyph>
    <TTGlyph name="P" xMin="-41" yMin="0" xMax="1257" yMax="1462">
      <contour>
        <pt x="-41" y="0" on="1"/>
        <pt x="-23" y="86" on="1"/>
        <pt x="4" y="86" on="1"/>
        <pt x="100" y="86" on="0"/>
        <pt x="186" y="160" on="0"/>
        <pt x="201" y="233" on="1"/>
        <pt x="414" y="1237" on="1"/>
        <pt x="422" y="1275" on="0"/>
        <pt x="422" y="1294" on="1"/>
        <pt x="422" y="1376" on="0"/>
        <pt x="274" y="1376" on="1"/>
        <pt x="248" y="1376" on="1"/>
        <pt x="266" y="1462" on="1"/>
        <pt x="791" y="1462" on="1"/>
        <pt x="1013" y="1462" on="0"/>
        <pt x="1257" y="1256" on="0"/>
        <pt x="1257" y="1067" on="1"/>
        <pt x="1257" y="834" on="0"/>
        <pt x="944" y="569" on="0"/>
        <pt x="631" y="569" on="1"/>
        <pt x="479" y="569" on="1"/>
        <pt x="406" y="225" on="1"/>
        <pt x="397" y="183" on="0"/>
        <pt x="397" y="168" on="1"/>
        <pt x="397" y="86" on="0"/>
        <pt x="545" y="86" on="1"/>
        <pt x="612" y="86" on="1"/>
        <pt x="594" y="0" on="1"/>
      </contour>
      <contour>
        <pt x="500" y="666" on="1"/>
        <pt x="608" y="666" on="1"/>
        <pt x="1040" y="666" on="0"/>
        <pt x="1040" y="1065" on="1"/>
        <pt x="1040" y="1364" on="0"/>
        <pt x="741" y="1364" on="1"/>
        <pt x="647" y="1364" on="1"/>
      </contour>
    </TTGlyph>
    <TTGlyph name="Phi" xMin="74" yMin="0" xMax="1532" yMax="1462">
      <contour>
        <pt x="809" y="1237" on="1"/>
        <pt x="817" y="1276" on="0"/>
        <pt x="817" y="1294" on="1"/>
        <pt x="817" y="1376" on="0"/>
        <pt x="666" y="1376" on="1"/>
        <pt x="639" y="1376" on="1"/>
        <pt x="657" y="1462" on="1"/>
        <pt x="1249" y="1462" on="1"/>
        <pt x="1231" y="1376" on="1"/>
        <pt x="1208" y="1376" on="1"/>
        <pt x="1106" y="1376" on="0"/>
        <pt x="1021" y="1303" on="0"/>
        <pt x="1006" y="1229" on="1"/>
        <pt x="997" y="1188" on="1"/>
        <pt x="1061" y="1188" on="1"/>
        <pt x="1284" y="1188" on="0"/>
        <pt x="1532" y="981" on="0"/>
        <pt x="1532" y="793" on="1"/>
        <pt x="1532" y="561" on="0"/>
        <pt x="1212" y="295" on="0"/>
        <pt x="901" y="295" on="1"/>
        <pt x="807" y="295" on="1"/>
        <pt x="793" y="225" on="1"/>
        <pt x="784" y="180" on="0"/>
        <pt x="784" y="168" on="1"/>
        <pt x="784" y="86" on="0"/>
        <pt x="936" y="86" on="1"/>
        <pt x="958" y="86" on="1"/>
        <pt x="940" y="0" on="1"/>
        <pt x="350" y="0" on="1"/>
        <pt x="369" y="86" on="1"/>
        <pt x="395" y="86" on="1"/>
        <pt x="565" y="86" on="0"/>
        <pt x="596" y="233" on="1"/>
        <pt x="608" y="295" on="1"/>
        <pt x="541" y="295" on="1"/>
        <pt x="318" y="295" on="0"/>
        <pt x="74" y="502" on="0"/>
        <pt x="74" y="690" on="1"/>
        <pt x="74" y="923" on="0"/>
        <pt x="387" y="1188" on="0"/>
        <pt x="700" y="1188" on="1"/>
        <pt x="799" y="1188" on="1"/>
      </contour>
      <contour>
        <pt x="778" y="1092" on="1"/>
        <pt x="723" y="1092" on="1"/>
        <pt x="291" y="1092" on="0"/>
        <pt x="291" y="692" on="1"/>
        <pt x="291" y="393" on="0"/>
        <pt x="590" y="393" on="1"/>
        <pt x="631" y="393" on="1"/>
      </contour>
      <contour>
        <pt x="827" y="391" on="1"/>
        <pt x="879" y="391" on="1"/>
        <pt x="1315" y="391" on="0"/>
        <pt x="1315" y="791" on="1"/>
        <pt x="1315" y="1090" on="0"/>
        <pt x="1012" y="1090" on="1"/>
        <pt x="975" y="1090" on="1"/>
      </contour>
    </TTGlyph>
    <TTGlyph name="Pi" xMin="-43" yMin="0" xMax="1673" yMax="1462">
      <contour>
        <pt x="768" y="0" on="1"/>
        <pt x="786" y="86" on="1"/>
        <pt x="813" y="86" on="1"/>
        <pt x="910" y="86" on="0"/>
        <pt x="995" y="160" on="0"/>
        <pt x="1012" y="233" on="1"/>
        <pt x="1251" y="1360" on="1"/>
        <pt x="647" y="1360" on="1"/>
        <pt x="406" y="225" on="1"/>
        <pt x="397" y="183" on="0"/>
        <pt x="397" y="168" on="1"/>
        <pt x="397" y="86" on="0"/>
        <pt x="545" y="86" on="1"/>
        <pt x="571" y="86" on="1"/>
        <pt x="553" y="0" on="1"/>
        <pt x="-43" y="0" on="1"/>
        <pt x="-27" y="86" on="1"/>
        <pt x="0" y="86" on="1"/>
        <pt x="99" y="86" on="0"/>
        <pt x="185" y="161" on="0"/>
        <pt x="201" y="233" on="1"/>
        <pt x="414" y="1237" on="1"/>
        <pt x="422" y="1275" on="0"/>
        <pt x="422" y="1294" on="1"/>
        <pt x="422" y="1376" on="0"/>
        <pt x="274" y="1376" on="1"/>
        <pt x="248" y="1376" on="1"/>
        <pt x="266" y="1462" on="1"/>
        <pt x="1673" y="1462" on="1"/>
        <pt x="1655" y="1376" on="1"/>
        <pt x="1628" y="1376" on="1"/>
        <pt x="1531" y="1376" on="0"/>
        <pt x="1446" y="1304" on="0"/>
        <pt x="1430" y="1229" on="1"/>
        <pt x="1217" y="225" on="1"/>
        <pt x="1208" y="183" on="0"/>
        <pt x="1208" y="168" on="1"/>
        <pt x="1208" y="86" on="0"/>
        <pt x="1356" y="86" on="1"/>
        <pt x="1382" y="86" on="1"/>
        <pt x="1364" y="0" on="1"/>
      </contour>
    </TTGlyph>
    <TTGlyph name="Psi" xMin="186" yMin="0" xMax="1878" yMax="1462">
      <contour>
        <pt x="1348" y="1462" on="1"/>
        <pt x="1329" y="1376" on="1"/>
        <pt x="1303" y="1376" on="1"/>
        <pt x="1207" y="1376" on="0"/>
        <pt x="1120" y="1304" on="0"/>
        <pt x="1104" y="1229" on="1"/>
        <pt x="971" y="606" on="1"/>
        <pt x="1020" y="606" on="1"/>
        <pt x="1185" y="606" on="0"/>
        <pt x="1356" y="753" on="0"/>
        <pt x="1405" y="979" on="1"/>
        <pt x="1507" y="1462" on="1"/>
        <pt x="1878" y="1462" on="1"/>
        <pt x="1860" y="1376" on="1"/>
        <pt x="1764" y="1376" on="0"/>
        <pt x="1676" y="1303" on="0"/>
        <pt x="1661" y="1229" on="1"/>
        <pt x="1608" y="975" on="1"/>
        <pt x="1557" y="731" on="0"/>
        <pt x="1265" y="510" on="0"/>
        <pt x="1020" y="510" on="1"/>
        <pt x="950" y="510" on="1"/>
        <pt x="891" y="225" on="1"/>
        <pt x="883" y="186" on="0"/>
        <pt x="883" y="168" on="1"/>
        <pt x="883" y="86" on="0"/>
        <pt x="1030" y="86" on="1"/>
        <pt x="1057" y="86" on="1"/>
        <pt x="1038" y="0" on="1"/>
        <pt x="455" y="0" on="1"/>
        <pt x="471" y="86" on="1"/>
        <pt x="498" y="86" on="1"/>
        <pt x="595" y="86" on="0"/>
        <pt x="683" y="159" on="0"/>
        <pt x="698" y="233" on="1"/>
        <pt x="756" y="510" on="1"/>
        <pt x="688" y="510" on="1"/>
        <pt x="279" y="510" on="0"/>
        <pt x="279" y="821" on="1"/>
        <pt x="279" y="885" on="0"/>
        <pt x="297" y="975" on="1"/>
        <pt x="352" y="1237" on="1"/>
        <pt x="360" y="1275" on="0"/>
        <pt x="360" y="1294" on="1"/>
        <pt x="360" y="1376" on="0"/>
        <pt x="213" y="1376" on="1"/>
        <pt x="186" y="1376" on="1"/>
        <pt x="205" y="1462" on="1"/>
        <pt x="602" y="1462" on="1"/>
        <pt x="500" y="979" on="1"/>
        <pt x="477" y="870" on="0"/>
        <pt x="477" y="807" on="1"/>
        <pt x="477" y="606" on="0"/>
        <pt x="745" y="606" on="1"/>
        <pt x="776" y="606" on="1"/>
        <pt x="911" y="1237" on="1"/>
        <pt x="920" y="1279" on="0"/>
        <pt x="920" y="1294" on="1"/>
        <pt x="920" y="1376" on="0"/>
        <pt x="772" y="1376" on="1"/>
        <pt x="745" y="1376" on="1"/>
        <pt x="764" y="1462" on="1"/>
      </contour>
    </TTGlyph>
    <TTGlyph name="Q" xMin="106" yMin="-463" xMax="1456" yMax="1485">
      <contour>
        <pt x="752" y="-14" on="1"/>
        <pt x="761" y="-197" on="0"/>
        <pt x="866" y="-362" on="0"/>
        <pt x="973" y="-362" on="1"/>
        <pt x="1047" y="-362" on="0"/>
        <pt x="1112" y="-344" on="1"/>
        <pt x="1126" y="-430" on="1"/>
        <pt x="1023" y="-463" on="0"/>
        <pt x="924" y="-463" on="1"/>
        <pt x="547" y="-463" on="0"/>
        <pt x="530" y="-12" on="1"/>
        <pt x="331" y="22" on="0"/>
        <pt x="106" y="320" on="0"/>
        <pt x="106" y="545" on="1"/>
        <pt x="106" y="897" on="0"/>
        <pt x="566" y="1485" on="0"/>
        <pt x="926" y="1485" on="1"/>
        <pt x="1164" y="1485" on="0"/>
        <pt x="1456" y="1189" on="0"/>
        <pt x="1456" y="922" on="1"/>
        <pt x="1456" y="611" on="0"/>
        <pt x="1074" y="36" on="0"/>
      </contour>
      <contour>
        <pt x="655" y="90" on="1"/>
        <pt x="910" y="90" on="0"/>
        <pt x="1231" y="655" on="0"/>
        <pt x="1231" y="977" on="1"/>
        <pt x="1231" y="1168" on="0"/>
        <pt x="1062" y="1374" on="0"/>
        <pt x="909" y="1374" on="1"/>
        <pt x="653" y="1374" on="0"/>
        <pt x="330" y="807" on="0"/>
        <pt x="330" y="487" on="1"/>
        <pt x="330" y="295" on="0"/>
        <pt x="504" y="90" on="0"/>
      </contour>
    </TTGlyph>
    <TTGlyph name="R" xMin="-41" yMin="0" xMax="1272" yMax="1462">
      <contour>
        <pt x="496" y="645" on="1"/>
        <pt x="406" y="225" on="1"/>
        <pt x="397" y="183" on="0"/>
        <pt x="397" y="168" on="1"/>
        <pt x="397" y="86" on="0"/>
        <pt x="545" y="86" on="1"/>
        <pt x="613" y="86" on="1"/>
        <pt x="594" y="0" on="1"/>
        <pt x="-41" y="0" on="1"/>
        <pt x="-22" y="86" on="1"/>
        <pt x="4" y="86" on="1"/>
        <pt x="106" y="86" on="0"/>
        <pt x="185" y="158" on="0"/>
        <pt x="199" y="223" on="1"/>
        <pt x="414" y="1237" on="1"/>
        <pt x="422" y="1275" on="0"/>
        <pt x="422" y="1294" on="1"/>
        <pt x="422" y="1376" on="0"/>
        <pt x="275" y="1376" on="1"/>
        <pt x="248" y="1376" on="1"/>
        <pt x="266" y="1462" on="1"/>
        <pt x="803" y="1462" on="1"/>
        <pt x="1272" y="1462" on="0"/>
        <pt x="1272" y="1114" on="1"/>
        <pt x="1272" y="776" on="0"/>
        <pt x="893" y="686" on="1"/>
        <pt x="1041" y="248" on="1"/>
        <pt x="1077" y="143" on="0"/>
        <pt x="1151" y="86" on="0"/>
        <pt x="1209" y="86" on="1"/>
        <pt x="1225" y="86" on="1"/>
        <pt x="1209" y="0" on="1"/>
        <pt x="1182" y="0" on="1"/>
        <pt x="1006" y="0" on="0"/>
        <pt x="860" y="93" on="0"/>
        <pt x="817" y="240" on="1"/>
        <pt x="699" y="645" on="1"/>
      </contour>
      <contour>
        <pt x="516" y="741" on="1"/>
        <pt x="674" y="741" on="1"/>
        <pt x="857" y="741" on="0"/>
        <pt x="1055" y="928" on="0"/>
        <pt x="1055" y="1102" on="1"/>
        <pt x="1055" y="1238" on="0"/>
        <pt x="934" y="1364" on="0"/>
        <pt x="787" y="1364" on="1"/>
        <pt x="647" y="1364" on="1"/>
      </contour>
    </TTGlyph>
    <TTGlyph name="Racute" xMin="-41" yMin="0" xMax="1272" yMax="1907">
      <component glyphName="R" x="0" y="0" flags="0x204"/>
      <component glyphName="acute" x="256" y="338" flags="0x4"/>
    </TTGlyph>
    <TTGlyph name="Rcaron" xMin="-41" yMin="0" xMax="1272" yMax="1907">
      <component glyphName="R" x="0" y="0" flags="0x204"/>
      <component glyphName="caron" x="100" y="338" flags="0x4"/>
    </TTGlyph>
    <TTGlyph name="Rcommaaccent" xMin="-41" yMin="-453" xMax="1272" yMax="1462">
      <component glyphName="R" x="0" y="0" flags="0x204"/>
      <component glyphName="glyph00569" x="117" y="0" flags="0x4"/>
    </TTGlyph>
    <TTGlyph name="Rho" xMin="-41" yMin="0" xMax="1257" yMax="1462">
      <component glyphName="P" x="0" y="0" flags="0x204"/>
    </TTGlyph>
    <TTGlyph name="S" xMin="14" yMin="-20" xMax="1133" yMax="1483">
      <contour>
        <pt x="172" y="428" on="1"/>
        <pt x="172" y="271" on="0"/>
        <pt x="338" y="80" on="0"/>
        <pt x="483" y="80" on="1"/>
        <pt x="626" y="80" on="0"/>
        <pt x="795" y="222" on="0"/>
        <pt x="795" y="344" on="1"/>
        <pt x="795" y="441" on="0"/>
        <pt x="698" y="575" on="0"/>
        <pt x="537" y="666" on="1"/>
        <pt x="373" y="761" on="0"/>
        <pt x="246" y="961" on="0"/>
        <pt x="246" y="1087" on="1"/>
        <pt x="246" y="1264" on="0"/>
        <pt x="514" y="1483" on="0"/>
        <pt x="743" y="1483" on="1"/>
        <pt x="921" y="1483" on="0"/>
        <pt x="1133" y="1359" on="0"/>
        <pt x="1133" y="1262" on="1"/>
        <pt x="1133" y="1120" on="0"/>
        <pt x="952" y="1120" on="1"/>
        <pt x="952" y="1240" on="0"/>
        <pt x="838" y="1380" on="0"/>
        <pt x="727" y="1380" on="1"/>
        <pt x="605" y="1380" on="0"/>
        <pt x="449" y="1240" on="0"/>
        <pt x="449" y="1122" on="1"/>
        <pt x="449" y="1035" on="0"/>
        <pt x="532" y="908" on="0"/>
        <pt x="702" y="809" on="1"/>
        <pt x="863" y="715" on="0"/>
        <pt x="1006" y="529" on="0"/>
        <pt x="1006" y="410" on="1"/>
        <pt x="1006" y="207" on="0"/>
        <pt x="722" y="-20" on="0"/>
        <pt x="469" y="-20" on="1"/>
        <pt x="260" y="-20" on="0"/>
        <pt x="14" y="145" on="0"/>
        <pt x="14" y="272" on="1"/>
        <pt x="14" y="343" on="0"/>
        <pt x="103" y="428" on="0"/>
      </contour>
    </TTGlyph>
    <TTGlyph name="SF010000" xMin="653" yMin="-492" xMax="1460" yMax="823">
      <contour>
        <pt x="653" y="823" on="1"/>
        <pt x="1460" y="823" on="1"/>
        <pt x="1460" y="678" on="1"/>
        <pt x="799" y="678" on="1"/>
        <pt x="799" y="-492" on="1"/>
        <pt x="653" y="-492" on="1"/>
      </contour>
    </TTGlyph>
    <TTGlyph name="SF020000" xMin="653" yMin="678" xMax="1460" yMax="1993">
      <contour>
        <pt x="653" y="1993" on="1"/>
        <pt x="799" y="1993" on="1"/>
        <pt x="799" y="823" on="1"/>
        <pt x="1460" y="823" on="1"/>
        <pt x="1460" y="678" on="1"/>
        <pt x="653" y="678" on="1"/>
      </contour>
    </TTGlyph>
    <TTGlyph name="SF030000" xMin="-10" yMin="-492" xMax="799" yMax="823">
      <contour>
        <pt x="-10" y="678" on="1"/>
        <pt x="-10" y="823" on="1"/>
        <pt x="799" y="823" on="1"/>
        <pt x="799" y="-492" on="1"/>
        <pt x="653" y="-492" on="1"/>
        <pt x="653" y="678" on="1"/>
      </contour>
    </TTGlyph>
    <TTGlyph name="SF040000" xMin="-10" yMin="678" xMax="799" yMax="1993">
      <contour>
        <pt x="-10" y="678" on="1"/>
        <pt x="-10" y="823" on="1"/>
        <pt x="653" y="823" on="1"/>
        <pt x="653" y="1993" on="1"/>
        <pt x="799" y="1993" on="1"/>
        <pt x="799" y="678" on="1"/>
      </contour>
    </TTGlyph>
    <TTGlyph name="SF050000" xMin="-10" yMin="-492" xMax="1460" yMax="1993">
      <contour>
        <pt x="-10" y="678" on="1"/>
        <pt x="-10" y="823" on="1"/>
        <pt x="653" y="823" on="1"/>
        <pt x="653" y="1993" on="1"/>
        <pt x="799" y="1993" on="1"/>
        <pt x="799" y="823" on="1"/>
        <pt x="1460" y="823" on="1"/>
        <pt x="1460" y="678" on="1"/>
        <pt x="799" y="678" on="1"/>
        <pt x="799" y="-492" on="1"/>
        <pt x="653" y="-492" on="1"/>
        <pt x="653" y="678" on="1"/>
      </contour>
    </TTGlyph>
    <TTGlyph name="SF060000" xMin="-10" yMin="-492" xMax="1460" yMax="823">
      <contour>
        <pt x="-10" y="678" on="1"/>
        <pt x="-10" y="823" on="1"/>
        <pt x="1460" y="823" on="1"/>
        <pt x="1460" y="678" on="1"/>
        <pt x="799" y="678" on="1"/>
        <pt x="799" y="-492" on="1"/>
        <pt x="653" y="-492" on="1"/>
        <pt x="653" y="678" on="1"/>
      </contour>
    </TTGlyph>
    <TTGlyph name="SF070000" xMin="-10" yMin="678" xMax="1460" yMax="1993">
      <contour>
        <pt x="-10" y="678" on="1"/>
        <pt x="-10" y="823" on="1"/>
        <pt x="653" y="823" on="1"/>
        <pt x="653" y="1993" on="1"/>
        <pt x="799" y="1993" on="1"/>
        <pt x="799" y="823" on="1"/>
        <pt x="1460" y="823" on="1"/>
        <pt x="1460" y="678" on="1"/>
      </contour>
    </TTGlyph>
    <TTGlyph name="SF080000" xMin="653" yMin="-492" xMax="1460" yMax="1993">
      <contour>
        <pt x="653" y="1993" on="1"/>
        <pt x="799" y="1993" on="1"/>
        <pt x="799" y="823" on="1"/>
        <pt x="1460" y="823" on="1"/>
        <pt x="1460" y="678" on="1"/>
        <pt x="799" y="678" on="1"/>
        <pt x="799" y="-492" on="1"/>
        <pt x="653" y="-492" on="1"/>
      </contour>
    </TTGlyph>
    <TTGlyph name="SF090000" xMin="-10" yMin="-492" xMax="799" yMax="1993">
      <contour>
        <pt x="-10" y="678" on="1"/>
        <pt x="-10" y="823" on="1"/>
        <pt x="653" y="823" on="1"/>
        <pt x="653" y="1993" on="1"/>
        <pt x="799" y="1993" on="1"/>
        <pt x="799" y="-492" on="1"/>
        <pt x="653" y="-492" on="1"/>
        <pt x="653" y="678" on="1"/>
      </contour>
    </TTGlyph>
    <TTGlyph name="SF100000" xMin="-10" yMin="678" xMax="1460" yMax="823">
      <contour>
        <pt x="-10" y="678" on="1"/>
        <pt x="-10" y="823" on="1"/>
        <pt x="1460" y="823" on="1"/>
        <pt x="1460" y="678" on="1"/>
      </contour>
    </TTGlyph>
    <TTGlyph name="SF110000" xMin="471" yMin="-492" xMax="616" yMax="1993">
      <contour>
        <pt x="471" y="1993" on="1"/>
        <pt x="616" y="1993" on="1"/>
        <pt x="616" y="-492" on="1"/>
        <pt x="471" y="-492" on="1"/>
      </contour>
    </TTGlyph>
    <TTGlyph name="SF190000" xMin="-10" yMin="-492" xMax="799" yMax="1993">
      <contour>
        <pt x="-10" y="498" on="1"/>
        <pt x="-10" y="643" on="1"/>
        <pt x="653" y="643" on="1"/>
        <pt x="653" y="858" on="1"/>
        <pt x="-10" y="858" on="1"/>
        <pt x="-10" y="1004" on="1"/>
        <pt x="653" y="1004" on="1"/>
        <pt x="653" y="1993" on="1"/>
        <pt x="799" y="1993" on="1"/>
        <pt x="799" y="-492" on="1"/>
        <pt x="653" y="-492" on="1"/>
        <pt x="653" y="498" on="1"/>
      </contour>
    </TTGlyph>
    <TTGlyph name="SF200000" xMin="-10" yMin="-492" xMax="979" yMax="1993">
      <contour>
        <pt x="-10" y="678" on="1"/>
        <pt x="-10" y="823" on="1"/>
        <pt x="473" y="823" on="1"/>
        <pt x="473" y="1993" on="1"/>
        <pt x="618" y="1993" on="1"/>
        <pt x="618" y="-492" on="1"/>
        <pt x="473" y="-492" on="1"/>
        <pt x="473" y="678" on="1"/>
      </contour>
      <contour>
        <pt x="834" y="1993" on="1"/>
        <pt x="979" y="1993" on="1"/>
        <pt x="979" y="-492" on="1"/>
        <pt x="834" y="-492" on="1"/>
      </contour>
    </TTGlyph>
    <TTGlyph name="SF210000" xMin="-10" yMin="-492" xMax="979" yMax="823">
      <contour>
        <pt x="-10" y="678" on="1"/>
        <pt x="-10" y="823" on="1"/>
        <pt x="979" y="823" on="1"/>
        <pt x="979" y="-492" on="1"/>
        <pt x="834" y="-492" on="1"/>
        <pt x="834" y="678" on="1"/>
        <pt x="618" y="678" on="1"/>
        <pt x="618" y="-492" on="1"/>
        <pt x="473" y="-492" on="1"/>
        <pt x="473" y="678" on="1"/>
      </contour>
    </TTGlyph>
    <TTGlyph name="SF220000" xMin="-10" yMin="-492" xMax="799" yMax="1004">
      <contour>
        <pt x="-10" y="498" on="1"/>
        <pt x="-10" y="643" on="1"/>
        <pt x="653" y="643" on="1"/>
        <pt x="653" y="858" on="1"/>
        <pt x="-10" y="858" on="1"/>
        <pt x="-10" y="1004" on="1"/>
        <pt x="799" y="1004" on="1"/>
        <pt x="799" y="-492" on="1"/>
        <pt x="653" y="-492" on="1"/>
        <pt x="653" y="498" on="1"/>
      </contour>
    </TTGlyph>
    <TTGlyph name="SF230000" xMin="-10" yMin="-492" xMax="979" yMax="1993">
      <contour>
        <pt x="834" y="1993" on="1"/>
        <pt x="979" y="1993" on="1"/>
        <pt x="979" y="-492" on="1"/>
        <pt x="834" y="-492" on="1"/>
      </contour>
      <contour>
        <pt x="473" y="1993" on="1"/>
        <pt x="618" y="1993" on="1"/>
        <pt x="618" y="858" on="1"/>
        <pt x="-10" y="858" on="1"/>
        <pt x="-10" y="1004" on="1"/>
        <pt x="473" y="1004" on="1"/>
      </contour>
      <contour>
        <pt x="618" y="-492" on="1"/>
        <pt x="473" y="-492" on="1"/>
        <pt x="473" y="498" on="1"/>
        <pt x="-10" y="498" on="1"/>
        <pt x="-10" y="643" on="1"/>
        <pt x="618" y="643" on="1"/>
      </contour>
    </TTGlyph>
    <TTGlyph name="SF240000" xMin="473" yMin="-492" xMax="979" yMax="1993">
      <contour>
        <pt x="473" y="1993" on="1"/>
        <pt x="618" y="1993" on="1"/>
        <pt x="618" y="-492" on="1"/>
        <pt x="473" y="-492" on="1"/>
      </contour>
      <contour>
        <pt x="834" y="1993" on="1"/>
        <pt x="979" y="1993" on="1"/>
        <pt x="979" y="-492" on="1"/>
        <pt x="834" y="-492" on="1"/>
      </contour>
    </TTGlyph>
    <TTGlyph name="SF250000" xMin="-10" yMin="-492" xMax="979" yMax="1004">
      <contour>
        <pt x="979" y="1004" on="1"/>
        <pt x="979" y="-492" on="1"/>
        <pt x="834" y="-492" on="1"/>
        <pt x="834" y="858" on="1"/>
        <pt x="-10" y="858" on="1"/>
        <pt x="-10" y="1004" on="1"/>
      </contour>
      <contour>
        <pt x="618" y="-492" on="1"/>
        <pt x="473" y="-492" on="1"/>
        <pt x="473" y="498" on="1"/>
        <pt x="-10" y="498" on="1"/>
        <pt x="-10" y="643" on="1"/>
        <pt x="618" y="643" on="1"/>
      </contour>
    </TTGlyph>
    <TTGlyph name="SF260000" xMin="-10" yMin="498" xMax="979" yMax="1993">
      <contour>
        <pt x="979" y="498" on="1"/>
        <pt x="-10" y="498" on="1"/>
        <pt x="-10" y="643" on="1"/>
        <pt x="834" y="643" on="1"/>
        <pt x="834" y="1993" on="1"/>
        <pt x="979" y="1993" on="1"/>
      </contour>
      <contour>
        <pt x="473" y="1993" on="1"/>
        <pt x="618" y="1993" on="1"/>
        <pt x="618" y="858" on="1"/>
        <pt x="-10" y="858" on="1"/>
        <pt x="-10" y="1004" on="1"/>
        <pt x="473" y="1004" on="1"/>
      </contour>
    </TTGlyph>
    <TTGlyph name="SF270000" xMin="-10" yMin="678" xMax="979" yMax="1993">
      <contour>
        <pt x="979" y="678" on="1"/>
        <pt x="-10" y="678" on="1"/>
        <pt x="-10" y="823" on="1"/>
        <pt x="473" y="823" on="1"/>
        <pt x="473" y="1993" on="1"/>
        <pt x="618" y="1993" on="1"/>
        <pt x="618" y="823" on="1"/>
        <pt x="834" y="823" on="1"/>
        <pt x="834" y="1993" on="1"/>
        <pt x="979" y="1993" on="1"/>
      </contour>
    </TTGlyph>
    <TTGlyph name="SF280000" xMin="-10" yMin="498" xMax="799" yMax="1993">
      <contour>
        <pt x="-10" y="498" on="1"/>
        <pt x="-10" y="643" on="1"/>
        <pt x="653" y="643" on="1"/>
        <pt x="653" y="858" on="1"/>
        <pt x="-10" y="858" on="1"/>
        <pt x="-10" y="1004" on="1"/>
        <pt x="653" y="1004" on="1"/>
        <pt x="653" y="1993" on="1"/>
        <pt x="799" y="1993" on="1"/>
        <pt x="799" y="498" on="1"/>
      </contour>
    </TTGlyph>
    <TTGlyph name="SF360000" xMin="653" yMin="-492" xMax="1460" yMax="1993">
      <contour>
        <pt x="653" y="1993" on="1"/>
        <pt x="799" y="1993" on="1"/>
        <pt x="799" y="1004" on="1"/>
        <pt x="1460" y="1004" on="1"/>
        <pt x="1460" y="858" on="1"/>
        <pt x="799" y="858" on="1"/>
        <pt x="799" y="643" on="1"/>
        <pt x="1460" y="643" on="1"/>
        <pt x="1460" y="498" on="1"/>
        <pt x="799" y="498" on="1"/>
        <pt x="799" y="-492" on="1"/>
        <pt x="653" y="-492" on="1"/>
      </contour>
    </TTGlyph>
    <TTGlyph name="SF370000" xMin="473" yMin="-492" xMax="1460" yMax="1993">
      <contour>
        <pt x="834" y="1993" on="1"/>
        <pt x="979" y="1993" on="1"/>
        <pt x="979" y="823" on="1"/>
        <pt x="1460" y="823" on="1"/>
        <pt x="1460" y="678" on="1"/>
        <pt x="979" y="678" on="1"/>
        <pt x="979" y="-492" on="1"/>
        <pt x="834" y="-492" on="1"/>
      </contour>
      <contour>
        <pt x="473" y="1993" on="1"/>
        <pt x="618" y="1993" on="1"/>
        <pt x="618" y="-492" on="1"/>
        <pt x="473" y="-492" on="1"/>
      </contour>
    </TTGlyph>
    <TTGlyph name="SF380000" xMin="473" yMin="498" xMax="1460" yMax="1993">
      <contour>
        <pt x="473" y="1993" on="1"/>
        <pt x="618" y="1993" on="1"/>
        <pt x="618" y="643" on="1"/>
        <pt x="1460" y="643" on="1"/>
        <pt x="1460" y="498" on="1"/>
        <pt x="473" y="498" on="1"/>
      </contour>
      <contour>
        <pt x="834" y="1993" on="1"/>
        <pt x="979" y="1993" on="1"/>
        <pt x="979" y="1004" on="1"/>
        <pt x="1460" y="1004" on="1"/>
        <pt x="1460" y="858" on="1"/>
        <pt x="834" y="858" on="1"/>
      </contour>
    </TTGlyph>
    <TTGlyph name="SF390000" xMin="473" yMin="-492" xMax="1460" yMax="1004">
      <contour>
        <pt x="473" y="1004" on="1"/>
        <pt x="1460" y="1004" on="1"/>
        <pt x="1460" y="858" on="1"/>
        <pt x="618" y="858" on="1"/>
        <pt x="618" y="-492" on="1"/>
        <pt x="473" y="-492" on="1"/>
      </contour>
      <contour>
        <pt x="834" y="643" on="1"/>
        <pt x="1460" y="643" on="1"/>
        <pt x="1460" y="498" on="1"/>
        <pt x="979" y="498" on="1"/>
        <pt x="979" y="-492" on="1"/>
        <pt x="834" y="-492" on="1"/>
      </contour>
    </TTGlyph>
    <TTGlyph name="SF400000" xMin="-10" yMin="498" xMax="1460" yMax="1993">
      <contour>
        <pt x="834" y="1993" on="1"/>
        <pt x="979" y="1993" on="1"/>
        <pt x="979" y="1004" on="1"/>
        <pt x="1460" y="1004" on="1"/>
        <pt x="1460" y="858" on="1"/>
        <pt x="834" y="858" on="1"/>
      </contour>
      <contour>
        <pt x="473" y="1993" on="1"/>
        <pt x="618" y="1993" on="1"/>
        <pt x="618" y="858" on="1"/>
        <pt x="-10" y="858" on="1"/>
        <pt x="-10" y="1004" on="1"/>
        <pt x="473" y="1004" on="1"/>
      </contour>
      <contour>
        <pt x="-10" y="498" on="1"/>
        <pt x="-10" y="643" on="1"/>
        <pt x="1460" y="643" on="1"/>
        <pt x="1460" y="498" on="1"/>
      </contour>
    </TTGlyph>
    <TTGlyph name="SF410000" xMin="-10" yMin="-492" xMax="1460" yMax="1004">
      <contour>
        <pt x="618" y="-492" on="1"/>
        <pt x="473" y="-492" on="1"/>
        <pt x="473" y="498" on="1"/>
        <pt x="-10" y="498" on="1"/>
        <pt x="-10" y="643" on="1"/>
        <pt x="618" y="643" on="1"/>
      </contour>
      <contour>
        <pt x="834" y="643" on="1"/>
        <pt x="1460" y="643" on="1"/>
        <pt x="1460" y="498" on="1"/>
        <pt x="979" y="498" on="1"/>
        <pt x="979" y="-492" on="1"/>
        <pt x="834" y="-492" on="1"/>
      </contour>
      <contour>
        <pt x="1460" y="1004" on="1"/>
        <pt x="1460" y="858" on="1"/>
        <pt x="-10" y="858" on="1"/>
        <pt x="-10" y="1004" on="1"/>
      </contour>
    </TTGlyph>
    <TTGlyph name="SF420000" xMin="473" yMin="-492" xMax="1460" yMax="1993">
      <contour>
        <pt x="618" y="-492" on="1"/>
        <pt x="473" y="-492" on="1"/>
        <pt x="473" y="1993" on="1"/>
        <pt x="618" y="1993" on="1"/>
      </contour>
      <contour>
        <pt x="834" y="643" on="1"/>
        <pt x="1460" y="643" on="1"/>
        <pt x="1460" y="498" on="1"/>
        <pt x="979" y="498" on="1"/>
        <pt x="979" y="-492" on="1"/>
        <pt x="834" y="-492" on="1"/>
      </contour>
      <contour>
        <pt x="834" y="1993" on="1"/>
        <pt x="979" y="1993" on="1"/>
        <pt x="979" y="1004" on="1"/>
        <pt x="1460" y="1004" on="1"/>
        <pt x="1460" y="858" on="1"/>
        <pt x="834" y="858" on="1"/>
      </contour>
    </TTGlyph>
    <TTGlyph name="SF430000" xMin="-10" yMin="498" xMax="1460" yMax="1004">
      <contour>
        <pt x="-10" y="858" on="1"/>
        <pt x="-10" y="1004" on="1"/>
        <pt x="1460" y="1004" on="1"/>
        <pt x="1460" y="858" on="1"/>
      </contour>
      <contour>
        <pt x="-10" y="498" on="1"/>
        <pt x="-10" y="643" on="1"/>
        <pt x="1460" y="643" on="1"/>
        <pt x="1460" y="498" on="1"/>
      </contour>
    </TTGlyph>
    <TTGlyph name="SF440000" xMin="-10" yMin="-492" xMax="1460" yMax="1993">
      <contour>
        <pt x="834" y="1993" on="1"/>
        <pt x="979" y="1993" on="1"/>
        <pt x="979" y="1004" on="1"/>
        <pt x="1460" y="1004" on="1"/>
        <pt x="1460" y="858" on="1"/>
        <pt x="834" y="858" on="1"/>
      </contour>
      <contour>
        <pt x="618" y="-492" on="1"/>
        <pt x="473" y="-492" on="1"/>
        <pt x="473" y="498" on="1"/>
        <pt x="-10" y="498" on="1"/>
        <pt x="-10" y="643" on="1"/>
        <pt x="618" y="643" on="1"/>
      </contour>
      <contour>
        <pt x="834" y="643" on="1"/>
        <pt x="1460" y="643" on="1"/>
        <pt x="1460" y="498" on="1"/>
        <pt x="979" y="498" on="1"/>
        <pt x="979" y="-492" on="1"/>
        <pt x="834" y="-492" on="1"/>
      </contour>
      <contour>
        <pt x="473" y="1993" on="1"/>
        <pt x="618" y="1993" on="1"/>
        <pt x="618" y="858" on="1"/>
        <pt x="-10" y="858" on="1"/>
        <pt x="-10" y="1004" on="1"/>
        <pt x="473" y="1004" on="1"/>
      </contour>
    </TTGlyph>
    <TTGlyph name="SF450000" xMin="-10" yMin="498" xMax="1460" yMax="1993">
      <contour>
        <pt x="-10" y="858" on="1"/>
        <pt x="-10" y="1004" on="1"/>
        <pt x="653" y="1004" on="1"/>
        <pt x="653" y="1993" on="1"/>
        <pt x="799" y="1993" on="1"/>
        <pt x="799" y="1004" on="1"/>
        <pt x="1460" y="1004" on="1"/>
        <pt x="1460" y="858" on="1"/>
      </contour>
      <contour>
        <pt x="-10" y="498" on="1"/>
        <pt x="-10" y="643" on="1"/>
        <pt x="1460" y="643" on="1"/>
        <pt x="1460" y="498" on="1"/>
      </contour>
    </TTGlyph>
    <TTGlyph name="SF460000" xMin="-10" yMin="678" xMax="1460" yMax="1993">
      <contour>
        <pt x="-10" y="678" on="1"/>
        <pt x="-10" y="823" on="1"/>
        <pt x="473" y="823" on="1"/>
        <pt x="473" y="1993" on="1"/>
        <pt x="618" y="1993" on="1"/>
        <pt x="618" y="823" on="1"/>
        <pt x="834" y="823" on="1"/>
        <pt x="834" y="1993" on="1"/>
        <pt x="979" y="1993" on="1"/>
        <pt x="979" y="823" on="1"/>
        <pt x="1460" y="823" on="1"/>
        <pt x="1460" y="678" on="1"/>
      </contour>
    </TTGlyph>
    <TTGlyph name="SF470000" xMin="-10" yMin="-492" xMax="1460" yMax="1004">
      <contour>
        <pt x="-10" y="498" on="1"/>
        <pt x="-10" y="643" on="1"/>
        <pt x="1460" y="643" on="1"/>
        <pt x="1460" y="498" on="1"/>
        <pt x="799" y="498" on="1"/>
        <pt x="799" y="-492" on="1"/>
        <pt x="653" y="-492" on="1"/>
        <pt x="653" y="498" on="1"/>
      </contour>
      <contour>
        <pt x="-10" y="858" on="1"/>
        <pt x="-10" y="1004" on="1"/>
        <pt x="1460" y="1004" on="1"/>
        <pt x="1460" y="858" on="1"/>
      </contour>
    </TTGlyph>
    <TTGlyph name="SF480000" xMin="-10" yMin="-492" xMax="1460" yMax="823">
      <contour>
        <pt x="-10" y="678" on="1"/>
        <pt x="-10" y="823" on="1"/>
        <pt x="1460" y="823" on="1"/>
        <pt x="1460" y="678" on="1"/>
        <pt x="979" y="678" on="1"/>
        <pt x="979" y="-492" on="1"/>
        <pt x="834" y="-492" on="1"/>
        <pt x="834" y="678" on="1"/>
        <pt x="618" y="678" on="1"/>
        <pt x="618" y="-492" on="1"/>
        <pt x="473" y="-492" on="1"/>
        <pt x="473" y="678" on="1"/>
      </contour>
    </TTGlyph>
    <TTGlyph name="SF490000" xMin="473" yMin="678" xMax="1460" yMax="1993">
      <contour>
        <pt x="834" y="1993" on="1"/>
        <pt x="979" y="1993" on="1"/>
        <pt x="979" y="823" on="1"/>
        <pt x="1460" y="823" on="1"/>
        <pt x="1460" y="678" on="1"/>
        <pt x="473" y="678" on="1"/>
        <pt x="473" y="1993" on="1"/>
        <pt x="618" y="1993" on="1"/>
        <pt x="618" y="823" on="1"/>
        <pt x="834" y="823" on="1"/>
      </contour>
    </TTGlyph>
    <TTGlyph name="SF500000" xMin="653" yMin="498" xMax="1460" yMax="1993">
      <contour>
        <pt x="653" y="1993" on="1"/>
        <pt x="799" y="1993" on="1"/>
        <pt x="799" y="1004" on="1"/>
        <pt x="1460" y="1004" on="1"/>
        <pt x="1460" y="858" on="1"/>
        <pt x="799" y="858" on="1"/>
        <pt x="799" y="643" on="1"/>
        <pt x="1460" y="643" on="1"/>
        <pt x="1460" y="498" on="1"/>
        <pt x="653" y="498" on="1"/>
      </contour>
    </TTGlyph>
    <TTGlyph name="SF510000" xMin="653" yMin="-492" xMax="1460" yMax="1004">
      <contour>
        <pt x="653" y="1004" on="1"/>
        <pt x="1460" y="1004" on="1"/>
        <pt x="1460" y="858" on="1"/>
        <pt x="799" y="858" on="1"/>
        <pt x="799" y="643" on="1"/>
        <pt x="1460" y="643" on="1"/>
        <pt x="1460" y="498" on="1"/>
        <pt x="799" y="498" on="1"/>
        <pt x="799" y="-492" on="1"/>
        <pt x="653" y="-492" on="1"/>
      </contour>
    </TTGlyph>
    <TTGlyph name="SF520000" xMin="473" yMin="-492" xMax="1460" yMax="823">
      <contour>
        <pt x="1460" y="823" on="1"/>
        <pt x="1460" y="678" on="1"/>
        <pt x="979" y="678" on="1"/>
        <pt x="979" y="-492" on="1"/>
        <pt x="834" y="-492" on="1"/>
        <pt x="834" y="678" on="1"/>
        <pt x="618" y="678" on="1"/>
        <pt x="618" y="-492" on="1"/>
        <pt x="473" y="-492" on="1"/>
        <pt x="473" y="823" on="1"/>
      </contour>
    </TTGlyph>
    <TTGlyph name="SF530000" xMin="-10" yMin="-492" xMax="1460" yMax="1993">
      <contour>
        <pt x="834" y="1993" on="1"/>
        <pt x="979" y="1993" on="1"/>
        <pt x="979" y="823" on="1"/>
        <pt x="1460" y="823" on="1"/>
        <pt x="1460" y="678" on="1"/>
        <pt x="979" y="678" on="1"/>
        <pt x="979" y="-492" on="1"/>
        <pt x="834" y="-492" on="1"/>
        <pt x="834" y="678" on="1"/>
        <pt x="618" y="678" on="1"/>
        <pt x="618" y="-492" on="1"/>
        <pt x="473" y="-492" on="1"/>
        <pt x="473" y="678" on="1"/>
        <pt x="-10" y="678" on="1"/>
        <pt x="-10" y="823" on="1"/>
        <pt x="473" y="823" on="1"/>
        <pt x="473" y="1993" on="1"/>
        <pt x="618" y="1993" on="1"/>
        <pt x="618" y="823" on="1"/>
        <pt x="834" y="823" on="1"/>
      </contour>
    </TTGlyph>
    <TTGlyph name="SF540000" xMin="-10" yMin="-492" xMax="1460" yMax="1993">
      <contour>
        <pt x="-10" y="498" on="1"/>
        <pt x="-10" y="643" on="1"/>
        <pt x="653" y="643" on="1"/>
        <pt x="653" y="858" on="1"/>
        <pt x="-10" y="858" on="1"/>
        <pt x="-10" y="1004" on="1"/>
        <pt x="653" y="1004" on="1"/>
        <pt x="653" y="1993" on="1"/>
        <pt x="799" y="1993" on="1"/>
        <pt x="799" y="1004" on="1"/>
        <pt x="1460" y="1004" on="1"/>
        <pt x="1460" y="858" on="1"/>
        <pt x="799" y="858" on="1"/>
        <pt x="799" y="643" on="1"/>
        <pt x="1460" y="643" on="1"/>
        <pt x="1460" y="498" on="1"/>
        <pt x="799" y="498" on="1"/>
        <pt x="799" y="-492" on="1"/>
        <pt x="653" y="-492" on="1"/>
        <pt x="653" y="498" on="1"/>
      </contour>
    </TTGlyph>
    <TTGlyph name="Sacute" xMin="14" yMin="-20" xMax="1149" yMax="1907">
      <component glyphName="S" x="0" y="0" flags="0x204"/>
      <component glyphName="acute" x="203" y="338" flags="0x4"/>
    </TTGlyph>
    <TTGlyph name="Scaron" xMin="14" yMin="-20" xMax="1155" yMax="1907">
      <component glyphName="S" x="0" y="0" flags="0x204"/>
      <component glyphName="caron" x="63" y="338" flags="0x4"/>
    </TTGlyph>
    <TTGlyph name="Scedilla" xMin="14" yMin="-492" xMax="1133" yMax="1483">
      <component glyphName="S" x="0" y="0" flags="0x204"/>
      <component glyphName="cedilla" x="92" y="0" flags="0x4"/>
    </TTGlyph>
    <TTGlyph name="Scircumflex" xMin="14" yMin="-20" xMax="1133" yMax="1907">
      <component glyphName="S" x="0" y="0" flags="0x204"/>
      <component glyphName="circumflex" x="102" y="338" flags="0x4"/>
    </TTGlyph>
    <TTGlyph name="Scommaaccent" xMin="14" yMin="-453" xMax="1133" yMax="1483">
      <component glyphName="S" x="0" y="0" flags="0x204"/>
      <component glyphName="glyph00569" x="-79" y="0" flags="0x4"/>
    </TTGlyph>
    <TTGlyph name="Sigma" xMin="-72" yMin="0" xMax="1241" yMax="1462">
      <contour>
        <pt x="764" y="188" on="1"/>
        <pt x="927" y="188" on="0"/>
        <pt x="997" y="383" on="1"/>
        <pt x="1020" y="444" on="1"/>
        <pt x="1126" y="444" on="1"/>
        <pt x="1022" y="0" on="1"/>
        <pt x="-72" y="0" on="1"/>
        <pt x="-59" y="66" on="1"/>
        <pt x="516" y="727" on="1"/>
        <pt x="268" y="1403" on="1"/>
        <pt x="281" y="1462" on="1"/>
        <pt x="1241" y="1462" on="1"/>
        <pt x="1176" y="1104" on="1"/>
        <pt x="1069" y="1104" on="1"/>
        <pt x="1075" y="1165" on="1"/>
        <pt x="1079" y="1206" on="0"/>
        <pt x="1079" y="1223" on="1"/>
        <pt x="1079" y="1358" on="0"/>
        <pt x="934" y="1358" on="1"/>
        <pt x="512" y="1358" on="1"/>
        <pt x="709" y="813" on="1"/>
        <pt x="694" y="778" on="1"/>
        <pt x="182" y="188" on="1"/>
      </contour>
    </TTGlyph>
    <TTGlyph name="T" xMin="156" yMin="0" xMax="1395" yMax="1462">
      <contour>
        <pt x="657" y="225" on="1"/>
        <pt x="649" y="187" on="0"/>
        <pt x="649" y="168" on="1"/>
        <pt x="649" y="86" on="0"/>
        <pt x="797" y="86" on="1"/>
        <pt x="844" y="86" on="1"/>
        <pt x="825" y="0" on="1"/>
        <pt x="188" y="0" on="1"/>
        <pt x="207" y="86" on="1"/>
        <pt x="254" y="86" on="1"/>
        <pt x="357" y="86" on="0"/>
        <pt x="437" y="157" on="0"/>
        <pt x="451" y="223" on="1"/>
        <pt x="692" y="1360" on="1"/>
        <pt x="496" y="1360" on="1"/>
        <pt x="350" y="1360" on="0"/>
        <pt x="291" y="1192" on="1"/>
        <pt x="262" y="1104" on="1"/>
        <pt x="156" y="1104" on="1"/>
        <pt x="242" y="1462" on="1"/>
        <pt x="1395" y="1462" on="1"/>
        <pt x="1329" y="1104" on="1"/>
        <pt x="1223" y="1104" on="1"/>
        <pt x="1233" y="1184" on="0"/>
        <pt x="1233" y="1229" on="1"/>
        <pt x="1233" y="1360" on="0"/>
        <pt x="1098" y="1360" on="1"/>
        <pt x="899" y="1360" on="1"/>
      </contour>
    </TTGlyph>
    <TTGlyph name="Tau" xMin="156" yMin="0" xMax="1395" yMax="1462">
      <component glyphName="T" x="0" y="0" flags="0x204"/>
    </TTGlyph>
    <TTGlyph name="Tbar" xMin="156" yMin="0" xMax="1395" yMax="1462">
      <contour>
        <pt x="774" y="772" on="1"/>
        <pt x="1118" y="772" on="1"/>
        <pt x="1100" y="672" on="1"/>
        <pt x="752" y="672" on="1"/>
        <pt x="657" y="225" on="1"/>
        <pt x="649" y="187" on="0"/>
        <pt x="649" y="168" on="1"/>
        <pt x="649" y="86" on="0"/>
        <pt x="797" y="86" on="1"/>
        <pt x="844" y="86" on="1"/>
        <pt x="825" y="0" on="1"/>
        <pt x="188" y="0" on="1"/>
        <pt x="207" y="86" on="1"/>
        <pt x="254" y="86" on="1"/>
        <pt x="350" y="86" on="0"/>
        <pt x="432" y="153" on="0"/>
        <pt x="451" y="223" on="1"/>
        <pt x="545" y="672" on="1"/>
        <pt x="205" y="672" on="1"/>
        <pt x="223" y="772" on="1"/>
        <pt x="567" y="772" on="1"/>
        <pt x="692" y="1360" on="1"/>
        <pt x="496" y="1360" on="1"/>
        <pt x="350" y="1360" on="0"/>
        <pt x="291" y="1192" on="1"/>
        <pt x="262" y="1104" on="1"/>
        <pt x="156" y="1104" on="1"/>
        <pt x="242" y="1462" on="1"/>
        <pt x="1395" y="1462" on="1"/>
        <pt x="1329" y="1104" on="1"/>
        <pt x="1223" y="1104" on="1"/>
        <pt x="1233" y="1184" on="0"/>
        <pt x="1233" y="1229" on="1"/>
        <pt x="1233" y="1357" on="0"/>
        <pt x="1098" y="1360" on="1"/>
        <pt x="899" y="1360" on="1"/>
      </contour>
    </TTGlyph>
    <TTGlyph name="Tcaron" xMin="156" yMin="0" xMax="1395" yMax="1907">
      <component glyphName="T" x="0" y="0" flags="0x204"/>
      <component glyphName="caron" x="96" y="338" flags="0x4"/>
    </TTGlyph>
    <TTGlyph name="Tcommaaccent" xMin="156" yMin="-492" xMax="1395" yMax="1462">
      <component glyphName="T" x="0" y="0" flags="0x204"/>
      <component glyphName="cedilla" x="130" y="0" flags="0x4"/>
    </TTGlyph>
    <TTGlyph name="Theta" xMin="106" yMin="-23" xMax="1456" yMax="1485">
      <contour>
        <pt x="926" y="1485" on="1"/>
        <pt x="1164" y="1485" on="0"/>
        <pt x="1456" y="1189" on="0"/>
        <pt x="1456" y="922" on="1"/>
        <pt x="1456" y="571" on="0"/>
        <pt x="1000" y="-23" on="0"/>
        <pt x="643" y="-23" on="1"/>
        <pt x="400" y="-23" on="0"/>
        <pt x="106" y="284" on="0"/>
        <pt x="106" y="545" on="1"/>
        <pt x="106" y="897" on="0"/>
        <pt x="566" y="1485" on="0"/>
      </contour>
      <contour>
        <pt x="655" y="90" on="1"/>
        <pt x="910" y="90" on="0"/>
        <pt x="1231" y="655" on="0"/>
        <pt x="1231" y="977" on="1"/>
        <pt x="1231" y="1168" on="0"/>
        <pt x="1062" y="1374" on="0"/>
        <pt x="909" y="1374" on="1"/>
        <pt x="653" y="1374" on="0"/>
        <pt x="330" y="807" on="0"/>
        <pt x="330" y="487" on="1"/>
        <pt x="330" y="295" on="0"/>
        <pt x="504" y="90" on="0"/>
      </contour>
      <contour>
        <pt x="612" y="930" on="1"/>
        <pt x="614" y="891" on="1"/>
        <pt x="617" y="829" on="0"/>
        <pt x="700" y="797" on="0"/>
        <pt x="764" y="797" on="1"/>
        <pt x="815" y="797" on="1"/>
        <pt x="966" y="797" on="0"/>
        <pt x="1010" y="891" on="1"/>
        <pt x="1028" y="930" on="1"/>
        <pt x="1114" y="930" on="1"/>
        <pt x="1034" y="561" on="1"/>
        <pt x="948" y="561" on="1"/>
        <pt x="946" y="600" on="1"/>
        <pt x="942" y="685" on="0"/>
        <pt x="793" y="694" on="1"/>
        <pt x="741" y="694" on="1"/>
        <pt x="655" y="694" on="0"/>
        <pt x="578" y="650" on="0"/>
        <pt x="551" y="600" on="1"/>
        <pt x="532" y="561" on="1"/>
        <pt x="446" y="561" on="1"/>
        <pt x="526" y="930" on="1"/>
      </contour>
    </TTGlyph>
    <TTGlyph name="Thorn" xMin="-41" yMin="0" xMax="1202" yMax="1462">
      <contour>
        <pt x="-41" y="0" on="1"/>
        <pt x="-23" y="86" on="1"/>
        <pt x="4" y="86" on="1"/>
        <pt x="100" y="86" on="0"/>
        <pt x="186" y="160" on="0"/>
        <pt x="201" y="233" on="1"/>
        <pt x="414" y="1237" on="1"/>
        <pt x="422" y="1275" on="0"/>
        <pt x="422" y="1294" on="1"/>
        <pt x="422" y="1376" on="0"/>
        <pt x="274" y="1376" on="1"/>
        <pt x="248" y="1376" on="1"/>
        <pt x="266" y="1462" on="1"/>
        <pt x="883" y="1462" on="1"/>
        <pt x="864" y="1376" on="1"/>
        <pt x="817" y="1376" on="1"/>
        <pt x="714" y="1376" on="0"/>
        <pt x="632" y="1299" on="0"/>
        <pt x="618" y="1229" on="1"/>
        <pt x="614" y="1208" on="1"/>
        <pt x="735" y="1208" on="1"/>
        <pt x="957" y="1208" on="0"/>
        <pt x="1202" y="1002" on="0"/>
        <pt x="1202" y="813" on="1"/>
        <pt x="1202" y="580" on="0"/>
        <pt x="887" y="315" on="0"/>
        <pt x="575" y="315" on="1"/>
        <pt x="424" y="315" on="1"/>
        <pt x="406" y="225" on="1"/>
        <pt x="397" y="180" on="0"/>
        <pt x="397" y="168" on="1"/>
        <pt x="397" y="86" on="0"/>
        <pt x="545" y="86" on="1"/>
        <pt x="592" y="86" on="1"/>
        <pt x="573" y="0" on="1"/>
      </contour>
      <contour>
        <pt x="444" y="412" on="1"/>
        <pt x="553" y="412" on="1"/>
        <pt x="985" y="412" on="0"/>
        <pt x="985" y="811" on="1"/>
        <pt x="985" y="1110" on="0"/>
        <pt x="686" y="1110" on="1"/>
        <pt x="592" y="1110" on="1"/>
      </contour>
    </TTGlyph>
    <TTGlyph name="U" xMin="197" yMin="-20" xMax="1630" yMax="1462">
      <contour>
        <pt x="205" y="1376" on="1"/>
        <pt x="223" y="1462" on="1"/>
        <pt x="819" y="1462" on="1"/>
        <pt x="803" y="1376" on="1"/>
        <pt x="776" y="1376" on="1"/>
        <pt x="680" y="1376" on="0"/>
        <pt x="592" y="1303" on="0"/>
        <pt x="575" y="1229" on="1"/>
        <pt x="422" y="506" on="1"/>
        <pt x="397" y="388" on="0"/>
        <pt x="397" y="315" on="1"/>
        <pt x="397" y="102" on="0"/>
        <pt x="692" y="102" on="1"/>
        <pt x="858" y="102" on="0"/>
        <pt x="1052" y="250" on="0"/>
        <pt x="1090" y="422" on="1"/>
        <pt x="1264" y="1237" on="1"/>
        <pt x="1272" y="1274" on="0"/>
        <pt x="1272" y="1294" on="1"/>
        <pt x="1272" y="1376" on="0"/>
        <pt x="1124" y="1376" on="1"/>
        <pt x="1098" y="1376" on="1"/>
        <pt x="1116" y="1462" on="1"/>
        <pt x="1630" y="1462" on="1"/>
        <pt x="1614" y="1376" on="1"/>
        <pt x="1587" y="1376" on="1"/>
        <pt x="1491" y="1376" on="0"/>
        <pt x="1403" y="1303" on="0"/>
        <pt x="1386" y="1229" on="1"/>
        <pt x="1214" y="418" on="1"/>
        <pt x="1121" y="-20" on="0"/>
        <pt x="662" y="-20" on="1"/>
        <pt x="436" y="-20" on="0"/>
        <pt x="197" y="164" on="0"/>
        <pt x="197" y="334" on="1"/>
        <pt x="197" y="417" on="0"/>
        <pt x="219" y="516" on="1"/>
        <pt x="371" y="1237" on="1"/>
        <pt x="379" y="1275" on="0"/>
        <pt x="379" y="1294" on="1"/>
        <pt x="379" y="1376" on="0"/>
        <pt x="231" y="1376" on="1"/>
      </contour>
    </TTGlyph>
    <TTGlyph name="Uacute" xMin="197" yMin="-20" xMax="1630" yMax="1907">
      <component glyphName="U" x="0" y="0" flags="0x204"/>
      <component glyphName="acute" x="356" y="338" flags="0x4"/>
    </TTGlyph>
    <TTGlyph name="Ubreve" xMin="197" yMin="-20" xMax="1630" yMax="1860">
      <component glyphName="U" x="0" y="0" flags="0x204"/>
      <component glyphName="breve" x="247" y="338" flags="0x4"/>
    </TTGlyph>
    <TTGlyph name="Ucircumflex" xMin="197" yMin="-20" xMax="1630" yMax="1907">
      <component glyphName="U" x="0" y="0" flags="0x204"/>
      <component glyphName="circumflex" x="299" y="338" flags="0x4"/>
    </TTGlyph>
    <TTGlyph name="Udieresis" xMin="197" yMin="-20" xMax="1630" yMax="1864">
      <component glyphName="U" x="0" y="0" flags="0x204"/>
      <component glyphName="dieresis" x="260" y="338" flags="0x4"/>
    </TTGlyph>
    <TTGlyph name="Ugrave" xMin="197" yMin="-20" xMax="1630" yMax="1907">
      <component glyphName="U" x="0" y="0" flags="0x204"/>
      <component glyphName="grave" x="152" y="338" flags="0x4"/>
    </TTGlyph>
    <TTGlyph name="Uhorn" xMin="197" yMin="-20" xMax="1765" yMax="1577">
      <contour>
        <pt x="205" y="1376" on="1"/>
        <pt x="223" y="1462" on="1"/>
        <pt x="819" y="1462" on="1"/>
        <pt x="803" y="1376" on="1"/>
        <pt x="776" y="1376" on="1"/>
        <pt x="680" y="1376" on="0"/>
        <pt x="592" y="1303" on="0"/>
        <pt x="575" y="1229" on="1"/>
        <pt x="422" y="506" on="1"/>
        <pt x="397" y="388" on="0"/>
        <pt x="397" y="315" on="1"/>
        <pt x="397" y="102" on="0"/>
        <pt x="692" y="102" on="1"/>
        <pt x="858" y="102" on="0"/>
        <pt x="1052" y="250" on="0"/>
        <pt x="1090" y="422" on="1"/>
        <pt x="1264" y="1237" on="1"/>
        <pt x="1272" y="1274" on="0"/>
        <pt x="1272" y="1294" on="1"/>
        <pt x="1272" y="1376" on="0"/>
        <pt x="1124" y="1376" on="1"/>
        <pt x="1098" y="1376" on="1"/>
        <pt x="1116" y="1462" on="1"/>
        <pt x="1436" y="1462" on="1"/>
        <pt x="1378" y="1192" on="1"/>
        <pt x="1473" y="1206" on="0"/>
        <pt x="1585" y="1290" on="0"/>
        <pt x="1585" y="1346" on="1"/>
        <pt x="1585" y="1367" on="0"/>
        <pt x="1556" y="1400" on="1"/>
        <pt x="1526" y="1433" on="0"/>
        <pt x="1526" y="1470" on="1"/>
        <pt x="1526" y="1577" on="0"/>
        <pt x="1647" y="1577" on="1"/>
        <pt x="1702" y="1577" on="0"/>
        <pt x="1765" y="1513" on="0"/>
        <pt x="1765" y="1462" on="1"/>
        <pt x="1765" y="1333" on="0"/>
        <pt x="1549" y="1145" on="0"/>
        <pt x="1362" y="1114" on="1"/>
        <pt x="1214" y="418" on="1"/>
        <pt x="1121" y="-20" on="0"/>
        <pt x="662" y="-20" on="1"/>
        <pt x="436" y="-20" on="0"/>
        <pt x="197" y="164" on="0"/>
        <pt x="197" y="334" on="1"/>
        <pt x="197" y="417" on="0"/>
        <pt x="219" y="516" on="1"/>
        <pt x="371" y="1237" on="1"/>
        <pt x="379" y="1275" on="0"/>
        <pt x="379" y="1294" on="1"/>
        <pt x="379" y="1376" on="0"/>
        <pt x="231" y="1376" on="1"/>
      </contour>
    </TTGlyph>
    <TTGlyph name="Uhungarumlaut" xMin="197" yMin="-20" xMax="1630" yMax="1907">
      <component glyphName="U" x="0" y="0" flags="0x204"/>
      <component glyphName="hungarumlaut" x="273" y="338" flags="0x4"/>
    </TTGlyph>
    <TTGlyph name="Umacron" xMin="197" yMin="-20" xMax="1630" yMax="1700">
      <component glyphName="U" x="0" y="0" flags="0x204"/>
      <component glyphName="uni02C9" x="301" y="338" flags="0x4"/>
    </TTGlyph>
    <TTGlyph name="Uogonek" xMin="197" yMin="-492" xMax="1630" yMax="1462">
      <component glyphName="U" x="0" y="0" flags="0x204"/>
      <component glyphName="ogonek" x="82" y="0" flags="0x4"/>
    </TTGlyph>
    <TTGlyph name="Upsilon" xMin="158" yMin="0" xMax="1473" yMax="1462">
      <component glyphName="Y" x="0" y="0" flags="0x204"/>
    </TTGlyph>
    <TTGlyph name="Upsilon1" xMin="160" yMin="0" xMax="1499" yMax="1475">
      <contour>
        <pt x="672" y="225" on="1"/>
        <pt x="669" y="213" on="0"/>
        <pt x="664" y="177" on="0"/>
        <pt x="664" y="168" on="1"/>
        <pt x="664" y="142" on="0"/>
        <pt x="686" y="110" on="0"/>
        <pt x="725" y="92" on="0"/>
        <pt x="779" y="86" on="0"/>
        <pt x="811" y="86" on="1"/>
        <pt x="858" y="86" on="1"/>
        <pt x="840" y="0" on="1"/>
        <pt x="203" y="0" on="1"/>
        <pt x="221" y="86" on="1"/>
        <pt x="268" y="86" on="1"/>
        <pt x="302" y="86" on="0"/>
        <pt x="364" y="94" on="0"/>
        <pt x="416" y="123" on="0"/>
        <pt x="455" y="177" on="0"/>
        <pt x="465" y="223" on="1"/>
        <pt x="504" y="403" on="1"/>
        <pt x="510" y="431" on="0"/>
        <pt x="514" y="492" on="0"/>
        <pt x="514" y="524" on="1"/>
        <pt x="515" y="583" on="0"/>
        <pt x="499" y="710" on="0"/>
        <pt x="473" y="835" on="0"/>
        <pt x="439" y="953" on="0"/>
        <pt x="405" y="1058" on="0"/>
        <pt x="373" y="1142" on="0"/>
        <pt x="362" y="1171" on="1"/>
        <pt x="347" y="1210" on="0"/>
        <pt x="311" y="1284" on="0"/>
        <pt x="264" y="1342" on="0"/>
        <pt x="205" y="1378" on="0"/>
        <pt x="168" y="1378" on="1"/>
        <pt x="160" y="1378" on="1"/>
        <pt x="178" y="1462" on="1"/>
        <pt x="283" y="1462" on="1"/>
        <pt x="353" y="1462" on="0"/>
        <pt x="448" y="1435" on="0"/>
        <pt x="517" y="1373" on="0"/>
        <pt x="567" y="1270" on="0"/>
        <pt x="592" y="1194" on="1"/>
        <pt x="614" y="1126" on="0"/>
        <pt x="650" y="988" on="0"/>
        <pt x="677" y="857" on="0"/>
        <pt x="696" y="737" on="0"/>
        <pt x="702" y="686" on="1"/>
        <pt x="736" y="753" on="0"/>
        <pt x="811" y="894" on="0"/>
        <pt x="888" y="1029" on="0"/>
        <pt x="962" y="1152" on="0"/>
        <pt x="995" y="1202" on="1"/>
        <pt x="1051" y="1286" on="0"/>
        <pt x="1147" y="1392" on="0"/>
        <pt x="1235" y="1452" on="0"/>
        <pt x="1319" y="1475" on="0"/>
        <pt x="1364" y="1475" on="1"/>
        <pt x="1423" y="1475" on="0"/>
        <pt x="1499" y="1419" on="0"/>
        <pt x="1499" y="1356" on="1"/>
        <pt x="1499" y="1323" on="0"/>
        <pt x="1479" y="1270" on="0"/>
        <pt x="1445" y="1232" on="0"/>
        <pt x="1401" y="1211" on="0"/>
        <pt x="1378" y="1210" on="1"/>
        <pt x="1372" y="1252" on="0"/>
        <pt x="1334" y="1311" on="0"/>
        <pt x="1292" y="1311" on="1"/>
        <pt x="1267" y="1311" on="0"/>
        <pt x="1215" y="1291" on="0"/>
        <pt x="1154" y="1235" on="0"/>
        <pt x="1078" y="1136" on="0"/>
        <pt x="1028" y="1057" on="1"/>
        <pt x="1006" y="1023" on="0"/>
        <pt x="948" y="930" on="0"/>
        <pt x="886" y="823" on="0"/>
        <pt x="823" y="706" on="0"/>
        <pt x="768" y="591" on="0"/>
        <pt x="727" y="482" on="0"/>
        <pt x="717" y="436" on="1"/>
      </contour>
    </TTGlyph>
    <TTGlyph name="Upsilondieresis" xMin="158" yMin="0" xMax="1473" yMax="1864">
      <component glyphName="Y" x="0" y="0" flags="0x204"/>
      <component glyphName="dieresis" x="170" y="338" flags="0x4"/>
    </TTGlyph>
    <TTGlyph name="Upsilontonos" xMin="33" yMin="0" xMax="1723" yMax="1462">
      <component glyphName="Y" x="250" y="0" flags="0x4"/>
      <component glyphName="tonos" x="-540" y="-168" flags="0x4"/>
    </TTGlyph>
    <TTGlyph name="Uring" xMin="197" yMin="-20" xMax="1630" yMax="2005">
      <component glyphName="U" x="0" y="0" flags="0x204"/>
      <component glyphName="ring" x="500" y="338" flags="0x4"/>
    </TTGlyph>
    <TTGlyph name="Utilde" xMin="197" yMin="-20" xMax="1630" yMax="1841">
      <component glyphName="U" x="0" y="0" flags="0x204"/>
      <component glyphName="tilde" x="285" y="338" flags="0x4"/>
    </TTGlyph>
    <TTGlyph name="V" xMin="168" yMin="0" xMax="1569" yMax="1462">
      <contour>
        <pt x="639" y="201" on="1"/>
        <pt x="715" y="378" on="0"/>
        <pt x="805" y="537" on="1"/>
        <pt x="1169" y="1188" on="1"/>
        <pt x="1208" y="1258" on="0"/>
        <pt x="1208" y="1303" on="1"/>
        <pt x="1208" y="1376" on="0"/>
        <pt x="1094" y="1376" on="1"/>
        <pt x="1047" y="1376" on="1"/>
        <pt x="1063" y="1462" on="1"/>
        <pt x="1569" y="1462" on="1"/>
        <pt x="1550" y="1376" on="1"/>
        <pt x="1511" y="1376" on="1"/>
        <pt x="1442" y="1376" on="0"/>
        <pt x="1373" y="1306" on="0"/>
        <pt x="1323" y="1217" on="1"/>
        <pt x="641" y="0" on="1"/>
        <pt x="492" y="0" on="1"/>
        <pt x="317" y="1268" on="1"/>
        <pt x="309" y="1329" on="0"/>
        <pt x="258" y="1376" on="0"/>
        <pt x="195" y="1376" on="1"/>
        <pt x="168" y="1376" on="1"/>
        <pt x="186" y="1462" on="1"/>
        <pt x="743" y="1462" on="1"/>
        <pt x="727" y="1376" on="1"/>
        <pt x="680" y="1376" on="1"/>
        <pt x="614" y="1376" on="0"/>
        <pt x="532" y="1321" on="0"/>
        <pt x="532" y="1272" on="1"/>
        <pt x="532" y="1237" on="0"/>
        <pt x="537" y="1202" on="1"/>
        <pt x="618" y="537" on="1"/>
        <pt x="639" y="365" on="0"/>
      </contour>
    </TTGlyph>
    <TTGlyph name="W" xMin="182" yMin="0" xMax="2306" yMax="1462">
      <contour>
        <pt x="1915" y="1188" on="1"/>
        <pt x="1954" y="1266" on="0"/>
        <pt x="1954" y="1303" on="1"/>
        <pt x="1954" y="1376" on="0"/>
        <pt x="1839" y="1376" on="1"/>
        <pt x="1790" y="1376" on="1"/>
        <pt x="1806" y="1462" on="1"/>
        <pt x="2306" y="1462" on="1"/>
        <pt x="2288" y="1376" on="1"/>
        <pt x="2249" y="1376" on="1"/>
        <pt x="2183" y="1376" on="0"/>
        <pt x="2108" y="1312" on="0"/>
        <pt x="2060" y="1217" on="1"/>
        <pt x="1456" y="0" on="1"/>
        <pt x="1268" y="0" on="1"/>
        <pt x="1176" y="1135" on="1"/>
        <pt x="625" y="0" on="1"/>
        <pt x="438" y="0" on="1"/>
        <pt x="332" y="1268" on="1"/>
        <pt x="327" y="1323" on="0"/>
        <pt x="277" y="1376" on="0"/>
        <pt x="209" y="1376" on="1"/>
        <pt x="182" y="1376" on="1"/>
        <pt x="201" y="1462" on="1"/>
        <pt x="758" y="1462" on="1"/>
        <pt x="739" y="1376" on="1"/>
        <pt x="692" y="1376" on="1"/>
        <pt x="545" y="1376" on="0"/>
        <pt x="545" y="1272" on="1"/>
        <pt x="545" y="1230" on="0"/>
        <pt x="549" y="1202" on="1"/>
        <pt x="598" y="547" on="1"/>
        <pt x="612" y="360" on="0"/>
        <pt x="612" y="201" on="1"/>
        <pt x="698" y="403" on="0"/>
        <pt x="780" y="569" on="1"/>
        <pt x="1210" y="1448" on="1"/>
        <pt x="1358" y="1448" on="1"/>
        <pt x="1425" y="561" on="1"/>
        <pt x="1440" y="360" on="0"/>
        <pt x="1436" y="201" on="1"/>
        <pt x="1526" y="410" on="0"/>
        <pt x="1589" y="537" on="1"/>
      </contour>
    </TTGlyph>
    <TTGlyph name="Wacute" xMin="182" yMin="0" xMax="2306" yMax="1907">
      <component glyphName="W" x="0" y="0" flags="0x204"/>
      <component glyphName="acute" x="686" y="338" flags="0x4"/>
    </TTGlyph>
    <TTGlyph name="Wcircumflex" xMin="182" yMin="0" xMax="2306" yMax="1907">
      <component glyphName="W" x="0" y="0" flags="0x204"/>
      <component glyphName="circumflex" x="610" y="338" flags="0x4"/>
    </TTGlyph>
    <TTGlyph name="Wdieresis" xMin="182" yMin="0" xMax="2306" yMax="1864">
      <component glyphName="W" x="0" y="0" flags="0x204"/>
      <component glyphName="dieresis" x="596" y="338" flags="0x4"/>
    </TTGlyph>
    <TTGlyph name="Wgrave" xMin="182" yMin="0" xMax="2306" yMax="1907">
      <component glyphName="W" x="0" y="0" flags="0x204"/>
      <component glyphName="grave" x="449" y="338" flags="0x4"/>
    </TTGlyph>
    <TTGlyph name="X" xMin="-100" yMin="0" xMax="1477" yMax="1462">
      <contour>
        <pt x="1458" y="1376" on="1"/>
        <pt x="1440" y="1376" on="1"/>
        <pt x="1384" y="1376" on="0"/>
        <pt x="1295" y="1316" on="0"/>
        <pt x="1208" y="1223" on="1"/>
        <pt x="821" y="795" on="1"/>
        <pt x="1067" y="195" on="1"/>
        <pt x="1112" y="86" on="0"/>
        <pt x="1208" y="86" on="1"/>
        <pt x="1235" y="86" on="1"/>
        <pt x="1217" y="0" on="1"/>
        <pt x="664" y="0" on="1"/>
        <pt x="682" y="86" on="1"/>
        <pt x="705" y="86" on="1"/>
        <pt x="766" y="86" on="0"/>
        <pt x="836" y="127" on="0"/>
        <pt x="836" y="158" on="1"/>
        <pt x="836" y="200" on="0"/>
        <pt x="797" y="299" on="1"/>
        <pt x="664" y="625" on="1"/>
        <pt x="358" y="285" on="1"/>
        <pt x="276" y="194" on="0"/>
        <pt x="276" y="141" on="1"/>
        <pt x="276" y="86" on="0"/>
        <pt x="397" y="86" on="1"/>
        <pt x="403" y="86" on="1"/>
        <pt x="385" y="0" on="1"/>
        <pt x="-100" y="0" on="1"/>
        <pt x="-82" y="86" on="1"/>
        <pt x="-74" y="86" on="1"/>
        <pt x="-7" y="86" on="0"/>
        <pt x="98" y="156" on="0"/>
        <pt x="168" y="233" on="1"/>
        <pt x="621" y="727" on="1"/>
        <pt x="401" y="1272" on="1"/>
        <pt x="359" y="1376" on="0"/>
        <pt x="242" y="1376" on="1"/>
        <pt x="215" y="1376" on="1"/>
        <pt x="233" y="1462" on="1"/>
        <pt x="788" y="1462" on="1"/>
        <pt x="770" y="1376" on="1"/>
        <pt x="723" y="1376" on="1"/>
        <pt x="627" y="1376" on="0"/>
        <pt x="627" y="1319" on="1"/>
        <pt x="627" y="1290" on="0"/>
        <pt x="664" y="1196" on="1"/>
        <pt x="780" y="897" on="1"/>
        <pt x="1036" y="1192" on="1"/>
        <pt x="1114" y="1282" on="0"/>
        <pt x="1114" y="1325" on="1"/>
        <pt x="1114" y="1376" on="0"/>
        <pt x="1016" y="1376" on="1"/>
        <pt x="1010" y="1376" on="1"/>
        <pt x="1028" y="1462" on="1"/>
        <pt x="1477" y="1462" on="1"/>
      </contour>
    </TTGlyph>
    <TTGlyph name="Xi" xMin="-23" yMin="0" xMax="1303" yMax="1462">
      <contour>
        <pt x="1233" y="1083" on="1"/>
        <pt x="1126" y="1083" on="1"/>
        <pt x="1133" y="1160" on="0"/>
        <pt x="1133" y="1180" on="1"/>
        <pt x="1133" y="1298" on="0"/>
        <pt x="991" y="1298" on="1"/>
        <pt x="588" y="1298" on="1"/>
        <pt x="437" y="1298" on="0"/>
        <pt x="383" y="1145" on="1"/>
        <pt x="362" y="1083" on="1"/>
        <pt x="256" y="1083" on="1"/>
        <pt x="346" y="1462" on="1"/>
        <pt x="1303" y="1462" on="1"/>
      </contour>
      <contour>
        <pt x="477" y="948" on="1"/>
        <pt x="479" y="909" on="1"/>
        <pt x="482" y="857" on="0"/>
        <pt x="550" y="815" on="0"/>
        <pt x="629" y="815" on="1"/>
        <pt x="741" y="815" on="1"/>
        <pt x="892" y="815" on="0"/>
        <pt x="936" y="909" on="1"/>
        <pt x="954" y="948" on="1"/>
        <pt x="1040" y="948" on="1"/>
        <pt x="958" y="559" on="1"/>
        <pt x="872" y="559" on="1"/>
        <pt x="870" y="598" on="1"/>
        <pt x="866" y="683" on="0"/>
        <pt x="715" y="692" on="1"/>
        <pt x="602" y="692" on="1"/>
        <pt x="513" y="692" on="0"/>
        <pt x="438" y="647" on="0"/>
        <pt x="414" y="598" on="1"/>
        <pt x="395" y="559" on="1"/>
        <pt x="309" y="559" on="1"/>
        <pt x="391" y="948" on="1"/>
      </contour>
      <contour>
        <pt x="1055" y="0" on="1"/>
        <pt x="-23" y="0" on="1"/>
        <pt x="49" y="403" on="1"/>
        <pt x="156" y="403" on="1"/>
        <pt x="152" y="351" on="0"/>
        <pt x="152" y="313" on="1"/>
        <pt x="152" y="188" on="0"/>
        <pt x="291" y="188" on="1"/>
        <pt x="817" y="188" on="1"/>
        <pt x="972" y="188" on="0"/>
        <pt x="1022" y="342" on="1"/>
        <pt x="1042" y="403" on="1"/>
        <pt x="1149" y="403" on="1"/>
      </contour>
    </TTGlyph>
    <TTGlyph name="Y" xMin="158" yMin="0" xMax="1473" yMax="1462">
      <contour>
        <pt x="729" y="1462" on="1"/>
        <pt x="711" y="1376" on="1"/>
        <pt x="608" y="1376" on="1"/>
        <pt x="524" y="1376" on="0"/>
        <pt x="524" y="1321" on="1"/>
        <pt x="524" y="1281" on="0"/>
        <pt x="551" y="1202" on="1"/>
        <pt x="643" y="928" on="1"/>
        <pt x="692" y="782" on="0"/>
        <pt x="698" y="682" on="1"/>
        <pt x="718" y="720" on="0"/>
        <pt x="852" y="897" on="1"/>
        <pt x="1047" y="1157" on="1"/>
        <pt x="1122" y="1257" on="0"/>
        <pt x="1122" y="1323" on="1"/>
        <pt x="1122" y="1376" on="0"/>
        <pt x="1024" y="1376" on="1"/>
        <pt x="948" y="1376" on="1"/>
        <pt x="967" y="1462" on="1"/>
        <pt x="1473" y="1462" on="1"/>
        <pt x="1454" y="1376" on="1"/>
        <pt x="1415" y="1376" on="1"/>
        <pt x="1376" y="1376" on="0"/>
        <pt x="1299" y="1313" on="0"/>
        <pt x="1229" y="1221" on="1"/>
        <pt x="752" y="596" on="1"/>
        <pt x="672" y="225" on="1"/>
        <pt x="664" y="188" on="0"/>
        <pt x="664" y="168" on="1"/>
        <pt x="664" y="86" on="0"/>
        <pt x="811" y="86" on="1"/>
        <pt x="858" y="86" on="1"/>
        <pt x="840" y="0" on="1"/>
        <pt x="203" y="0" on="1"/>
        <pt x="221" y="86" on="1"/>
        <pt x="268" y="86" on="1"/>
        <pt x="371" y="86" on="0"/>
        <pt x="451" y="157" on="0"/>
        <pt x="465" y="223" on="1"/>
        <pt x="545" y="600" on="1"/>
        <pt x="307" y="1268" on="1"/>
        <pt x="284" y="1333" on="0"/>
        <pt x="239" y="1376" on="0"/>
        <pt x="184" y="1376" on="1"/>
        <pt x="158" y="1376" on="1"/>
        <pt x="176" y="1462" on="1"/>
      </contour>
    </TTGlyph>
    <TTGlyph name="Yacute" xMin="158" yMin="0" xMax="1473" yMax="1907">
      <component glyphName="Y" x="0" y="0" flags="0x204"/>
      <component glyphName="acute" x="262" y="338" flags="0x4"/>
    </TTGlyph>
    <TTGlyph name="Ycircumflex" xMin="158" yMin="0" xMax="1473" yMax="1907">
      <component glyphName="Y" x="0" y="0" flags="0x204"/>
      <component glyphName="circumflex" x="170" y="338" flags="0x4"/>
    </TTGlyph>
    <TTGlyph name="Ydieresis" xMin="158" yMin="0" xMax="1473" yMax="1864">
      <component glyphName="Y" x="0" y="0" flags="0x204"/>
      <component glyphName="dieresis" x="170" y="338" flags="0x4"/>
    </TTGlyph>
    <TTGlyph name="Ygrave" xMin="158" yMin="0" xMax="1473" yMax="1907">
      <component glyphName="Y" x="0" y="0" flags="0x204"/>
      <component glyphName="grave" x="25" y="338" flags="0x4"/>
    </TTGlyph>
    <TTGlyph name="Z" xMin="-35" yMin="0" xMax="1292" yMax="1462">
      <contour>
        <pt x="1276" y="1378" on="1"/>
        <pt x="244" y="102" on="1"/>
        <pt x="791" y="102" on="1"/>
        <pt x="943" y="102" on="0"/>
        <pt x="997" y="270" on="1"/>
        <pt x="1026" y="358" on="1"/>
        <pt x="1133" y="358" on="1"/>
        <pt x="1047" y="0" on="1"/>
        <pt x="-35" y="0" on="1"/>
        <pt x="-18" y="82" on="1"/>
        <pt x="1012" y="1360" on="1"/>
        <pt x="535" y="1360" on="1"/>
        <pt x="384" y="1360" on="0"/>
        <pt x="330" y="1192" on="1"/>
        <pt x="301" y="1104" on="1"/>
        <pt x="195" y="1104" on="1"/>
        <pt x="281" y="1462" on="1"/>
        <pt x="1292" y="1462" on="1"/>
      </contour>
    </TTGlyph>
    <TTGlyph name="Zacute" xMin="-35" yMin="0" xMax="1292" yMax="1907">
      <component glyphName="Z" x="0" y="0" flags="0x204"/>
      <component glyphName="acute" x="176" y="338" flags="0x4"/>
    </TTGlyph>
    <TTGlyph name="Zcaron" xMin="-35" yMin="0" xMax="1292" yMax="1907">
      <component glyphName="Z" x="0" y="0" flags="0x204"/>
      <component glyphName="caron" x="31" y="338" flags="0x4"/>
    </TTGlyph>
    <TTGlyph name="Zdotaccent" xMin="-35" yMin="0" xMax="1292" yMax="1876">
      <component glyphName="Z" x="0" y="0" flags="0x204"/>
      <component glyphName="dotaccent" x="322" y="338" flags="0x4"/>
    </TTGlyph>
    <TTGlyph name="Zeta" xMin="-35" yMin="0" xMax="1292" yMax="1462">
      <component glyphName="Z" x="0" y="0" flags="0x204"/>
    </TTGlyph>
    <TTGlyph name="a" xMin="88" yMin="-20" xMax="1176" yMax="1118">
      <contour>
        <pt x="748" y="309" on="1"/>
        <pt x="735" y="309" on="1"/>
        <pt x="588" y="-20" on="0"/>
        <pt x="352" y="-20" on="1"/>
        <pt x="227" y="-20" on="0"/>
        <pt x="88" y="177" on="0"/>
        <pt x="88" y="354" on="1"/>
        <pt x="88" y="636" on="0"/>
        <pt x="439" y="1118" on="0"/>
        <pt x="698" y="1118" on="1"/>
        <pt x="837" y="1118" on="0"/>
        <pt x="938" y="1044" on="1"/>
        <pt x="1028" y="1096" on="1"/>
        <pt x="1094" y="1096" on="1"/>
        <pt x="954" y="440" on="1"/>
        <pt x="924" y="299" on="0"/>
        <pt x="924" y="213" on="1"/>
        <pt x="924" y="109" on="0"/>
        <pt x="991" y="109" on="1"/>
        <pt x="1049" y="109" on="0"/>
        <pt x="1139" y="162" on="1"/>
        <pt x="1176" y="102" on="1"/>
        <pt x="1029" y="-20" on="0"/>
        <pt x="887" y="-20" on="1"/>
        <pt x="727" y="-20" on="0"/>
        <pt x="727" y="150" on="1"/>
        <pt x="727" y="215" on="0"/>
      </contour>
      <contour>
        <pt x="864" y="952" on="1"/>
        <pt x="817" y="1026" on="0"/>
        <pt x="709" y="1026" on="1"/>
        <pt x="534" y="1026" on="0"/>
        <pt x="297" y="581" on="0"/>
        <pt x="297" y="346" on="1"/>
        <pt x="297" y="109" on="0"/>
        <pt x="426" y="109" on="1"/>
        <pt x="528" y="109" on="0"/>
        <pt x="752" y="411" on="0"/>
        <pt x="788" y="590" on="1"/>
      </contour>
    </TTGlyph>
    <TTGlyph name="aacute" xMin="88" yMin="-20" xMax="1176" yMax="1569">
      <component glyphName="a" x="0" y="0" flags="0x204"/>
      <component glyphName="acute" x="129" y="0" flags="0x4"/>
    </TTGlyph>
    <TTGlyph name="abreve" xMin="88" yMin="-20" xMax="1176" yMax="1522">
      <component glyphName="a" x="0" y="0" flags="0x204"/>
      <component glyphName="breve" x="24" y="0" flags="0x4"/>
    </TTGlyph>
    <TTGlyph name="acircumflex" xMin="88" yMin="-20" xMax="1176" yMax="1569">
      <component glyphName="a" x="0" y="0" flags="0x204"/>
      <component glyphName="circumflex" x="29" y="0" flags="0x4"/>
    </TTGlyph>
    <TTGlyph name="acute" xMin="502" yMin="1241" xMax="946" yMax="1569">
      <contour>
        <pt x="508" y="1268" on="1"/>
        <pt x="625" y="1403" on="0"/>
        <pt x="727" y="1569" on="1"/>
        <pt x="946" y="1569" on="1"/>
        <pt x="940" y="1548" on="1"/>
        <pt x="783" y="1365" on="0"/>
        <pt x="584" y="1241" on="1"/>
        <pt x="502" y="1241" on="1"/>
      </contour>
    </TTGlyph>
    <TTGlyph name="acutecomb" xMin="-546" yMin="1241" xMax="-102" yMax="1569">
      <component glyphName="acute" x="-1048" y="0" flags="0x4"/>
    </TTGlyph>
    <TTGlyph name="adieresis" xMin="88" yMin="-20" xMax="1176" yMax="1526">
      <component glyphName="a" x="0" y="0" flags="0x204"/>
      <component glyphName="dieresis" x="-9" y="0" flags="0x4"/>
    </TTGlyph>
    <TTGlyph name="ae" xMin="88" yMin="-20" xMax="1626" yMax="1118">
      <contour>
        <pt x="1477" y="256" on="1"/>
        <pt x="1497" y="242" on="0"/>
        <pt x="1497" y="205" on="1"/>
        <pt x="1497" y="121" on="0"/>
        <pt x="1304" y="-20" on="0"/>
        <pt x="1143" y="-20" on="1"/>
        <pt x="1002" y="-20" on="0"/>
        <pt x="798" y="130" on="0"/>
        <pt x="764" y="274" on="1"/>
        <pt x="648" y="-20" on="0"/>
        <pt x="397" y="-20" on="1"/>
        <pt x="257" y="-20" on="0"/>
        <pt x="88" y="196" on="0"/>
        <pt x="88" y="387" on="1"/>
        <pt x="88" y="665" on="0"/>
        <pt x="417" y="1118" on="0"/>
        <pt x="686" y="1118" on="1"/>
        <pt x="847" y="1118" on="0"/>
        <pt x="999" y="991" on="1"/>
        <pt x="1152" y="1118" on="0"/>
        <pt x="1354" y="1118" on="1"/>
        <pt x="1484" y="1118" on="0"/>
        <pt x="1626" y="994" on="0"/>
        <pt x="1626" y="883" on="1"/>
        <pt x="1626" y="717" on="0"/>
        <pt x="1281" y="471" on="0"/>
        <pt x="1032" y="471" on="1"/>
        <pt x="997" y="471" on="1"/>
        <pt x="979" y="471" on="0"/>
        <pt x="961" y="473" on="1"/>
        <pt x="956" y="448" on="0"/>
        <pt x="956" y="387" on="1"/>
        <pt x="956" y="109" on="0"/>
        <pt x="1182" y="109" on="1"/>
        <pt x="1353" y="109" on="0"/>
      </contour>
      <contour>
        <pt x="905" y="893" on="1"/>
        <pt x="808" y="1026" on="0"/>
        <pt x="696" y="1026" on="1"/>
        <pt x="523" y="1026" on="0"/>
        <pt x="297" y="592" on="0"/>
        <pt x="297" y="365" on="1"/>
        <pt x="297" y="243" on="0"/>
        <pt x="388" y="109" on="0"/>
        <pt x="469" y="109" on="1"/>
        <pt x="571" y="109" on="0"/>
        <pt x="721" y="307" on="0"/>
        <pt x="750" y="475" on="1"/>
        <pt x="788" y="708" on="0"/>
      </contour>
      <contour>
        <pt x="979" y="567" on="1"/>
        <pt x="999" y="567" on="1"/>
        <pt x="1180" y="567" on="0"/>
        <pt x="1415" y="743" on="0"/>
        <pt x="1415" y="883" on="1"/>
        <pt x="1415" y="1020" on="0"/>
        <pt x="1296" y="1020" on="1"/>
        <pt x="1196" y="1020" on="0"/>
        <pt x="1023" y="765" on="0"/>
      </contour>
    </TTGlyph>
    <TTGlyph name="aeacute" xMin="88" yMin="-20" xMax="1626" yMax="1569">
      <component glyphName="ae" x="0" y="0" flags="0x204"/>
      <component glyphName="acute" x="414" y="0" flags="0x4"/>
    </TTGlyph>
    <TTGlyph name="afii00208" xMin="-6" yMin="489" xMax="2087" yMax="610">
      <contour>
        <pt x="2060" y="489" on="1"/>
        <pt x="-6" y="489" on="1"/>
        <pt x="18" y="610" on="1"/>
        <pt x="2087" y="610" on="1"/>
      </contour>
    </TTGlyph>
    <TTGlyph name="afii10017" xMin="-115" yMin="0" xMax="1346" yMax="1462">
      <component glyphName="A" x="0" y="0" flags="0x204"/>
    </TTGlyph>
    <TTGlyph name="afii10018" xMin="-43" yMin="0" xMax="1225" yMax="1462">
      <contour>
        <pt x="1225" y="1462" on="1"/>
        <pt x="1159" y="1104" on="1"/>
        <pt x="1053" y="1104" on="1"/>
        <pt x="1063" y="1184" on="0"/>
        <pt x="1063" y="1229" on="1"/>
        <pt x="1063" y="1360" on="0"/>
        <pt x="928" y="1360" on="1"/>
        <pt x="647" y="1360" on="1"/>
        <pt x="528" y="809" on="1"/>
        <pt x="645" y="809" on="1"/>
        <pt x="1149" y="809" on="0"/>
        <pt x="1149" y="467" on="1"/>
        <pt x="1149" y="242" on="0"/>
        <pt x="847" y="0" on="0"/>
        <pt x="559" y="0" on="1"/>
        <pt x="-43" y="0" on="1"/>
        <pt x="-27" y="86" on="1"/>
        <pt x="0" y="86" on="1"/>
        <pt x="170" y="86" on="0"/>
        <pt x="201" y="233" on="1"/>
        <pt x="414" y="1237" on="1"/>
        <pt x="422" y="1275" on="0"/>
        <pt x="422" y="1294" on="1"/>
        <pt x="422" y="1376" on="0"/>
        <pt x="274" y="1376" on="1"/>
        <pt x="248" y="1376" on="1"/>
        <pt x="266" y="1462" on="1"/>
      </contour>
      <contour>
        <pt x="379" y="102" on="1"/>
        <pt x="537" y="102" on="1"/>
        <pt x="928" y="102" on="0"/>
        <pt x="928" y="451" on="1"/>
        <pt x="928" y="590" on="0"/>
        <pt x="787" y="713" on="0"/>
        <pt x="639" y="713" on="1"/>
        <pt x="508" y="713" on="1"/>
      </contour>
    </TTGlyph>
    <TTGlyph name="afii10019" xMin="-43" yMin="0" xMax="1276" yMax="1462">
      <component glyphName="B" x="0" y="0" flags="0x204"/>
    </TTGlyph>
    <TTGlyph name="afii10020" xMin="-41" yMin="0" xMax="1284" yMax="1462">
      <component glyphName="Gamma" x="0" y="0" flags="0x204"/>
    </TTGlyph>
    <TTGlyph name="afii10021" xMin="-186" yMin="-430" xMax="1481" yMax="1462">
      <contour>
        <pt x="51" y="102" on="1"/>
        <pt x="389" y="560" on="0"/>
        <pt x="690" y="1229" on="0"/>
        <pt x="690" y="1317" on="1"/>
        <pt x="690" y="1345" on="0"/>
        <pt x="635" y="1376" on="0"/>
        <pt x="526" y="1376" on="1"/>
        <pt x="520" y="1376" on="1"/>
        <pt x="539" y="1462" on="1"/>
        <pt x="1481" y="1462" on="1"/>
        <pt x="1462" y="1376" on="1"/>
        <pt x="1436" y="1376" on="1"/>
        <pt x="1353" y="1376" on="0"/>
        <pt x="1279" y="1307" on="0"/>
        <pt x="1264" y="1239" on="1"/>
        <pt x="1053" y="250" on="1"/>
        <pt x="1047" y="222" on="0"/>
        <pt x="1047" y="199" on="1"/>
        <pt x="1047" y="102" on="0"/>
        <pt x="1190" y="102" on="1"/>
        <pt x="1231" y="102" on="1"/>
        <pt x="1116" y="-430" on="1"/>
        <pt x="1022" y="-430" on="1"/>
        <pt x="1044" y="-328" on="0"/>
        <pt x="1044" y="-254" on="1"/>
        <pt x="1044" y="0" on="0"/>
        <pt x="811" y="0" on="1"/>
        <pt x="301" y="0" on="1"/>
        <pt x="-1" y="0" on="0"/>
        <pt x="-92" y="-430" on="1"/>
        <pt x="-186" y="-430" on="1"/>
        <pt x="-72" y="102" on="1"/>
      </contour>
      <contour>
        <pt x="823" y="1360" on="1"/>
        <pt x="710" y="851" on="0"/>
        <pt x="193" y="102" on="1"/>
        <pt x="817" y="102" on="1"/>
        <pt x="1083" y="1360" on="1"/>
      </contour>
    </TTGlyph>
    <TTGlyph name="afii10022" xMin="-43" yMin="0" xMax="1298" yMax="1462">
      <component glyphName="E" x="0" y="0" flags="0x204"/>
    </TTGlyph>
    <TTGlyph name="afii10023" xMin="-43" yMin="0" xMax="1298" yMax="1864">
      <component glyphName="E" x="0" y="0" flags="0x204"/>
      <component glyphName="dieresis" x="129" y="338" flags="0x4"/>
    </TTGlyph>
    <TTGlyph name="afii10024" xMin="-111" yMin="0" xMax="2105" yMax="1475">
      <contour>
        <pt x="573" y="0" on="1"/>
        <pt x="590" y="86" on="1"/>
        <pt x="616" y="86" on="1"/>
        <pt x="713" y="86" on="0"/>
        <pt x="800" y="158" on="0"/>
        <pt x="817" y="233" on="1"/>
        <pt x="913" y="688" on="1"/>
        <pt x="748" y="688" on="0"/>
        <pt x="615" y="639" on="0"/>
        <pt x="565" y="549" on="1"/>
        <pt x="360" y="193" on="1"/>
        <pt x="292" y="75" on="0"/>
        <pt x="158" y="0" on="0"/>
        <pt x="-45" y="0" on="1"/>
        <pt x="-111" y="0" on="1"/>
        <pt x="-92" y="86" on="1"/>
        <pt x="-86" y="86" on="1"/>
        <pt x="76" y="86" on="0"/>
        <pt x="176" y="250" on="1"/>
        <pt x="379" y="596" on="1"/>
        <pt x="480" y="768" on="0"/>
        <pt x="723" y="776" on="1"/>
        <pt x="642" y="844" on="0"/>
        <pt x="567" y="1081" on="1"/>
        <pt x="514" y="1250" on="0"/>
        <pt x="445" y="1323" on="0"/>
        <pt x="401" y="1323" on="1"/>
        <pt x="309" y="1323" on="0"/>
        <pt x="264" y="1208" on="1"/>
        <pt x="190" y="1238" on="0"/>
        <pt x="190" y="1327" on="1"/>
        <pt x="190" y="1475" on="0"/>
        <pt x="373" y="1475" on="1"/>
        <pt x="487" y="1475" on="0"/>
        <pt x="604" y="1335" on="0"/>
        <pt x="659" y="1141" on="1"/>
        <pt x="728" y="910" on="0"/>
        <pt x="844" y="782" on="0"/>
        <pt x="934" y="782" on="1"/>
        <pt x="1030" y="1237" on="1"/>
        <pt x="1038" y="1275" on="0"/>
        <pt x="1038" y="1294" on="1"/>
        <pt x="1038" y="1376" on="0"/>
        <pt x="891" y="1376" on="1"/>
        <pt x="864" y="1376" on="1"/>
        <pt x="883" y="1462" on="1"/>
        <pt x="1462" y="1462" on="1"/>
        <pt x="1444" y="1376" on="1"/>
        <pt x="1417" y="1376" on="1"/>
        <pt x="1320" y="1376" on="0"/>
        <pt x="1234" y="1303" on="0"/>
        <pt x="1219" y="1229" on="1"/>
        <pt x="1124" y="782" on="1"/>
        <pt x="1281" y="782" on="0"/>
        <pt x="1428" y="894" on="0"/>
        <pt x="1548" y="1141" on="1"/>
        <pt x="1635" y="1319" on="0"/>
        <pt x="1818" y="1475" on="0"/>
        <pt x="1948" y="1475" on="1"/>
        <pt x="2105" y="1475" on="0"/>
        <pt x="2105" y="1356" on="1"/>
        <pt x="2105" y="1218" on="0"/>
        <pt x="1976" y="1208" on="1"/>
        <pt x="1976" y="1323" on="0"/>
        <pt x="1880" y="1323" on="1"/>
        <pt x="1809" y="1323" on="0"/>
        <pt x="1707" y="1220" on="0"/>
        <pt x="1636" y="1081" on="1"/>
        <pt x="1505" y="822" on="0"/>
        <pt x="1409" y="774" on="1"/>
        <pt x="1506" y="740" on="0"/>
        <pt x="1554" y="596" on="1"/>
        <pt x="1673" y="250" on="1"/>
        <pt x="1729" y="86" on="0"/>
        <pt x="1880" y="86" on="1"/>
        <pt x="1886" y="86" on="1"/>
        <pt x="1868" y="0" on="1"/>
        <pt x="1839" y="0" on="1"/>
        <pt x="1672" y="0" on="0"/>
        <pt x="1507" y="71" on="0"/>
        <pt x="1470" y="193" on="1"/>
        <pt x="1360" y="549" on="1"/>
        <pt x="1332" y="639" on="0"/>
        <pt x="1235" y="688" on="0"/>
        <pt x="1104" y="688" on="1"/>
        <pt x="1006" y="225" on="1"/>
        <pt x="997" y="182" on="0"/>
        <pt x="997" y="168" on="1"/>
        <pt x="997" y="86" on="0"/>
        <pt x="1145" y="86" on="1"/>
        <pt x="1171" y="86" on="1"/>
        <pt x="1153" y="0" on="1"/>
      </contour>
    </TTGlyph>
    <TTGlyph name="afii10025" xMin="27" yMin="-23" xMax="1178" yMax="1483">
      <contour>
        <pt x="182" y="393" on="1"/>
        <pt x="182" y="274" on="0"/>
        <pt x="357" y="90" on="0"/>
        <pt x="502" y="90" on="1"/>
        <pt x="842" y="90" on="0"/>
        <pt x="842" y="440" on="1"/>
        <pt x="842" y="561" on="0"/>
        <pt x="680" y="698" on="0"/>
        <pt x="530" y="698" on="1"/>
        <pt x="371" y="698" on="1"/>
        <pt x="393" y="803" on="1"/>
        <pt x="567" y="803" on="1"/>
        <pt x="738" y="803" on="0"/>
        <pt x="965" y="996" on="0"/>
        <pt x="965" y="1149" on="1"/>
        <pt x="965" y="1258" on="0"/>
        <pt x="837" y="1380" on="0"/>
        <pt x="721" y="1380" on="1"/>
        <pt x="493" y="1380" on="0"/>
        <pt x="430" y="1075" on="1"/>
        <pt x="272" y="1075" on="0"/>
        <pt x="272" y="1204" on="1"/>
        <pt x="272" y="1325" on="0"/>
        <pt x="527" y="1483" on="0"/>
        <pt x="723" y="1483" on="1"/>
        <pt x="924" y="1483" on="0"/>
        <pt x="1178" y="1308" on="0"/>
        <pt x="1178" y="1161" on="1"/>
        <pt x="1178" y="995" on="0"/>
        <pt x="948" y="775" on="0"/>
        <pt x="758" y="752" on="1"/>
        <pt x="899" y="733" on="0"/>
        <pt x="1071" y="566" on="0"/>
        <pt x="1071" y="442" on="1"/>
        <pt x="1071" y="219" on="0"/>
        <pt x="763" y="-23" on="0"/>
        <pt x="479" y="-23" on="1"/>
        <pt x="263" y="-23" on="0"/>
        <pt x="27" y="120" on="0"/>
        <pt x="27" y="244" on="1"/>
        <pt x="27" y="314" on="0"/>
        <pt x="115" y="393" on="0"/>
      </contour>
    </TTGlyph>
    <TTGlyph name="afii10026" xMin="-43" yMin="0" xMax="1755" yMax="1462">
      <contour>
        <pt x="1737" y="1376" on="1"/>
        <pt x="1710" y="1376" on="1"/>
        <pt x="1612" y="1376" on="0"/>
        <pt x="1526" y="1302" on="0"/>
        <pt x="1511" y="1229" on="1"/>
        <pt x="1298" y="225" on="1"/>
        <pt x="1290" y="187" on="0"/>
        <pt x="1290" y="168" on="1"/>
        <pt x="1290" y="86" on="0"/>
        <pt x="1438" y="86" on="1"/>
        <pt x="1464" y="86" on="1"/>
        <pt x="1446" y="0" on="1"/>
        <pt x="850" y="0" on="1"/>
        <pt x="866" y="86" on="1"/>
        <pt x="893" y="86" on="1"/>
        <pt x="1063" y="86" on="0"/>
        <pt x="1094" y="233" on="1"/>
        <pt x="1257" y="1018" on="1"/>
        <pt x="416" y="279" on="1"/>
        <pt x="406" y="225" on="1"/>
        <pt x="397" y="176" on="0"/>
        <pt x="397" y="168" on="1"/>
        <pt x="397" y="86" on="0"/>
        <pt x="545" y="86" on="1"/>
        <pt x="571" y="86" on="1"/>
        <pt x="553" y="0" on="1"/>
        <pt x="-43" y="0" on="1"/>
        <pt x="-27" y="86" on="1"/>
        <pt x="0" y="86" on="1"/>
        <pt x="99" y="86" on="0"/>
        <pt x="185" y="161" on="0"/>
        <pt x="201" y="233" on="1"/>
        <pt x="414" y="1237" on="1"/>
        <pt x="422" y="1275" on="0"/>
        <pt x="422" y="1294" on="1"/>
        <pt x="422" y="1376" on="0"/>
        <pt x="274" y="1376" on="1"/>
        <pt x="248" y="1376" on="1"/>
        <pt x="266" y="1462" on="1"/>
        <pt x="862" y="1462" on="1"/>
        <pt x="844" y="1376" on="1"/>
        <pt x="817" y="1376" on="1"/>
        <pt x="719" y="1376" on="0"/>
        <pt x="633" y="1302" on="0"/>
        <pt x="618" y="1229" on="1"/>
        <pt x="455" y="446" on="1"/>
        <pt x="1294" y="1182" on="1"/>
        <pt x="1307" y="1237" on="1"/>
        <pt x="1315" y="1271" on="0"/>
        <pt x="1315" y="1294" on="1"/>
        <pt x="1315" y="1376" on="0"/>
        <pt x="1167" y="1376" on="1"/>
        <pt x="1141" y="1376" on="1"/>
        <pt x="1159" y="1462" on="1"/>
        <pt x="1755" y="1462" on="1"/>
      </contour>
    </TTGlyph>
    <TTGlyph name="afii10027" xMin="-43" yMin="0" xMax="1755" yMax="1940">
      <component glyphName="afii10026" x="0" y="0" flags="0x204"/>
      <component glyphName="glyph00566" x="287" y="338" flags="0x4"/>
    </TTGlyph>
    <TTGlyph name="afii10028" xMin="-43" yMin="0" xMax="1520" yMax="1475">
      <contour>
        <pt x="-43" y="0" on="1"/>
        <pt x="-27" y="86" on="1"/>
        <pt x="0" y="86" on="1"/>
        <pt x="98" y="86" on="0"/>
        <pt x="184" y="161" on="0"/>
        <pt x="201" y="233" on="1"/>
        <pt x="414" y="1237" on="1"/>
        <pt x="422" y="1275" on="0"/>
        <pt x="422" y="1294" on="1"/>
        <pt x="422" y="1376" on="0"/>
        <pt x="274" y="1376" on="1"/>
        <pt x="248" y="1376" on="1"/>
        <pt x="266" y="1462" on="1"/>
        <pt x="862" y="1462" on="1"/>
        <pt x="844" y="1376" on="1"/>
        <pt x="817" y="1376" on="1"/>
        <pt x="719" y="1376" on="0"/>
        <pt x="633" y="1301" on="0"/>
        <pt x="618" y="1229" on="1"/>
        <pt x="524" y="782" on="1"/>
        <pt x="664" y="782" on="0"/>
        <pt x="789" y="882" on="0"/>
        <pt x="932" y="1141" on="1"/>
        <pt x="1031" y="1318" on="0"/>
        <pt x="1215" y="1475" on="0"/>
        <pt x="1354" y="1475" on="1"/>
        <pt x="1520" y="1475" on="0"/>
        <pt x="1520" y="1352" on="1"/>
        <pt x="1520" y="1218" on="0"/>
        <pt x="1391" y="1208" on="1"/>
        <pt x="1391" y="1323" on="0"/>
        <pt x="1290" y="1323" on="1"/>
        <pt x="1149" y="1323" on="0"/>
        <pt x="1018" y="1081" on="1"/>
        <pt x="869" y="814" on="0"/>
        <pt x="795" y="774" on="1"/>
        <pt x="914" y="767" on="0"/>
        <pt x="969" y="596" on="1"/>
        <pt x="1087" y="250" on="1"/>
        <pt x="1143" y="86" on="0"/>
        <pt x="1294" y="86" on="1"/>
        <pt x="1300" y="86" on="1"/>
        <pt x="1282" y="0" on="1"/>
        <pt x="1253" y="0" on="1"/>
        <pt x="1076" y="0" on="0"/>
        <pt x="926" y="60" on="0"/>
        <pt x="885" y="193" on="1"/>
        <pt x="774" y="549" on="1"/>
        <pt x="749" y="628" on="0"/>
        <pt x="672" y="688" on="0"/>
        <pt x="504" y="688" on="1"/>
        <pt x="406" y="225" on="1"/>
        <pt x="397" y="182" on="0"/>
        <pt x="397" y="168" on="1"/>
        <pt x="397" y="86" on="0"/>
        <pt x="545" y="86" on="1"/>
        <pt x="571" y="86" on="1"/>
        <pt x="553" y="0" on="1"/>
      </contour>
    </TTGlyph>
    <TTGlyph name="afii10029" xMin="-96" yMin="-14" xMax="1548" yMax="1462">
      <contour>
        <pt x="25" y="254" on="1"/>
        <pt x="25" y="158" on="0"/>
        <pt x="102" y="158" on="1"/>
        <pt x="287" y="158" on="0"/>
        <pt x="662" y="1250" on="0"/>
        <pt x="662" y="1321" on="1"/>
        <pt x="662" y="1376" on="0"/>
        <pt x="512" y="1376" on="1"/>
        <pt x="481" y="1376" on="1"/>
        <pt x="500" y="1462" on="1"/>
        <pt x="1548" y="1462" on="1"/>
        <pt x="1530" y="1376" on="1"/>
        <pt x="1503" y="1376" on="1"/>
        <pt x="1406" y="1376" on="0"/>
        <pt x="1320" y="1303" on="0"/>
        <pt x="1305" y="1229" on="1"/>
        <pt x="1092" y="225" on="1"/>
        <pt x="1083" y="183" on="0"/>
        <pt x="1083" y="168" on="1"/>
        <pt x="1083" y="86" on="0"/>
        <pt x="1231" y="86" on="1"/>
        <pt x="1257" y="86" on="1"/>
        <pt x="1239" y="0" on="1"/>
        <pt x="643" y="0" on="1"/>
        <pt x="659" y="86" on="1"/>
        <pt x="686" y="86" on="1"/>
        <pt x="856" y="86" on="0"/>
        <pt x="887" y="233" on="1"/>
        <pt x="1124" y="1360" on="1"/>
        <pt x="791" y="1360" on="1"/>
        <pt x="733" y="1137" on="0"/>
        <pt x="522" y="483" on="0"/>
        <pt x="320" y="95" on="0"/>
        <pt x="162" y="-14" on="0"/>
        <pt x="66" y="-14" on="1"/>
        <pt x="-10" y="-14" on="0"/>
        <pt x="-96" y="63" on="0"/>
        <pt x="-96" y="123" on="1"/>
        <pt x="-96" y="185" on="0"/>
        <pt x="-28" y="254" on="0"/>
      </contour>
    </TTGlyph>
    <TTGlyph name="afii10030" xMin="-41" yMin="0" xMax="2032" yMax="1462">
      <component glyphName="M" x="0" y="0" flags="0x204"/>
    </TTGlyph>
    <TTGlyph name="afii10031" xMin="-43" yMin="0" xMax="1735" yMax="1462">
      <component glyphName="H" x="0" y="0" flags="0x204"/>
    </TTGlyph>
    <TTGlyph name="afii10032" xMin="106" yMin="-23" xMax="1456" yMax="1485">
      <component glyphName="O" x="0" y="0" flags="0x204"/>
    </TTGlyph>
    <TTGlyph name="afii10033" xMin="-43" yMin="0" xMax="1673" yMax="1462">
      <component glyphName="Pi" x="0" y="0" flags="0x204"/>
    </TTGlyph>
    <TTGlyph name="afii10034" xMin="-41" yMin="0" xMax="1257" yMax="1462">
      <component glyphName="P" x="0" y="0" flags="0x204"/>
    </TTGlyph>
    <TTGlyph name="afii10035" xMin="106" yMin="-20" xMax="1329" yMax="1483">
      <component glyphName="C" x="0" y="0" flags="0x204"/>
    </TTGlyph>
    <TTGlyph name="afii10036" xMin="156" yMin="0" xMax="1395" yMax="1462">
      <component glyphName="T" x="0" y="0" flags="0x204"/>
    </TTGlyph>
    <TTGlyph name="afii10037" xMin="86" yMin="-10" xMax="1571" yMax="1462">
      <contour>
        <pt x="1571" y="1462" on="1"/>
        <pt x="1552" y="1376" on="1"/>
        <pt x="1513" y="1376" on="1"/>
        <pt x="1456" y="1376" on="0"/>
        <pt x="1390" y="1321" on="0"/>
        <pt x="1325" y="1217" on="1"/>
        <pt x="801" y="375" on="1"/>
        <pt x="636" y="109" on="0"/>
        <pt x="464" y="-10" on="0"/>
        <pt x="236" y="-10" on="1"/>
        <pt x="86" y="-10" on="1"/>
        <pt x="106" y="86" on="1"/>
        <pt x="219" y="86" on="1"/>
        <pt x="440" y="86" on="0"/>
        <pt x="578" y="309" on="1"/>
        <pt x="319" y="1268" on="1"/>
        <pt x="302" y="1331" on="0"/>
        <pt x="255" y="1376" on="0"/>
        <pt x="197" y="1376" on="1"/>
        <pt x="170" y="1376" on="1"/>
        <pt x="188" y="1462" on="1"/>
        <pt x="756" y="1462" on="1"/>
        <pt x="739" y="1376" on="1"/>
        <pt x="684" y="1376" on="1"/>
        <pt x="545" y="1376" on="0"/>
        <pt x="545" y="1276" on="1"/>
        <pt x="545" y="1230" on="0"/>
        <pt x="561" y="1163" on="1"/>
        <pt x="676" y="715" on="1"/>
        <pt x="719" y="548" on="0"/>
        <pt x="733" y="438" on="1"/>
        <pt x="788" y="558" on="0"/>
        <pt x="881" y="709" on="1"/>
        <pt x="1178" y="1188" on="1"/>
        <pt x="1217" y="1251" on="0"/>
        <pt x="1217" y="1303" on="1"/>
        <pt x="1217" y="1376" on="0"/>
        <pt x="1102" y="1376" on="1"/>
        <pt x="1055" y="1376" on="1"/>
        <pt x="1071" y="1462" on="1"/>
      </contour>
    </TTGlyph>
    <TTGlyph name="afii10038" xMin="74" yMin="0" xMax="1532" yMax="1462">
      <component glyphName="Phi" x="0" y="0" flags="0x204"/>
    </TTGlyph>
    <TTGlyph name="afii10039" xMin="-100" yMin="0" xMax="1477" yMax="1462">
      <component glyphName="X" x="0" y="0" flags="0x204"/>
    </TTGlyph>
    <TTGlyph name="afii10040" xMin="-39" yMin="-430" xMax="1677" yMax="1462">
      <contour>
        <pt x="-20" y="86" on="1"/>
        <pt x="4" y="86" on="1"/>
        <pt x="102" y="86" on="0"/>
        <pt x="186" y="159" on="0"/>
        <pt x="201" y="225" on="1"/>
        <pt x="418" y="1237" on="1"/>
        <pt x="426" y="1274" on="0"/>
        <pt x="426" y="1294" on="1"/>
        <pt x="426" y="1376" on="0"/>
        <pt x="279" y="1376" on="1"/>
        <pt x="252" y="1376" on="1"/>
        <pt x="270" y="1462" on="1"/>
        <pt x="866" y="1462" on="1"/>
        <pt x="848" y="1376" on="1"/>
        <pt x="821" y="1376" on="1"/>
        <pt x="726" y="1376" on="0"/>
        <pt x="637" y="1304" on="0"/>
        <pt x="621" y="1229" on="1"/>
        <pt x="383" y="102" on="1"/>
        <pt x="987" y="102" on="1"/>
        <pt x="1229" y="1237" on="1"/>
        <pt x="1237" y="1275" on="0"/>
        <pt x="1237" y="1294" on="1"/>
        <pt x="1237" y="1376" on="0"/>
        <pt x="1090" y="1376" on="1"/>
        <pt x="1063" y="1376" on="1"/>
        <pt x="1081" y="1462" on="1"/>
        <pt x="1677" y="1462" on="1"/>
        <pt x="1659" y="1376" on="1"/>
        <pt x="1632" y="1376" on="1"/>
        <pt x="1536" y="1376" on="0"/>
        <pt x="1452" y="1309" on="0"/>
        <pt x="1436" y="1239" on="1"/>
        <pt x="1219" y="225" on="1"/>
        <pt x="1210" y="183" on="0"/>
        <pt x="1210" y="168" on="1"/>
        <pt x="1210" y="91" on="0"/>
        <pt x="1333" y="86" on="1"/>
        <pt x="1405" y="86" on="1"/>
        <pt x="1294" y="-430" on="1"/>
        <pt x="1200" y="-430" on="1"/>
        <pt x="1222" y="-330" on="0"/>
        <pt x="1222" y="-255" on="1"/>
        <pt x="1222" y="0" on="0"/>
        <pt x="977" y="0" on="1"/>
        <pt x="-39" y="0" on="1"/>
      </contour>
    </TTGlyph>
    <TTGlyph name="afii10041" xMin="176" yMin="0" xMax="1624" yMax="1462">
      <contour>
        <pt x="719" y="0" on="1"/>
        <pt x="735" y="86" on="1"/>
        <pt x="762" y="86" on="1"/>
        <pt x="932" y="86" on="0"/>
        <pt x="963" y="233" on="1"/>
        <pt x="1047" y="625" on="1"/>
        <pt x="793" y="537" on="0"/>
        <pt x="659" y="537" on="1"/>
        <pt x="268" y="537" on="0"/>
        <pt x="268" y="840" on="1"/>
        <pt x="268" y="900" on="0"/>
        <pt x="307" y="1075" on="1"/>
        <pt x="342" y="1235" on="1"/>
        <pt x="350" y="1272" on="0"/>
        <pt x="350" y="1292" on="1"/>
        <pt x="350" y="1374" on="0"/>
        <pt x="203" y="1374" on="1"/>
        <pt x="176" y="1374" on="1"/>
        <pt x="195" y="1460" on="1"/>
        <pt x="791" y="1460" on="1"/>
        <pt x="774" y="1374" on="1"/>
        <pt x="748" y="1374" on="1"/>
        <pt x="650" y="1374" on="0"/>
        <pt x="562" y="1300" on="0"/>
        <pt x="547" y="1227" on="1"/>
        <pt x="516" y="1085" on="1"/>
        <pt x="479" y="916" on="0"/>
        <pt x="479" y="854" on="1"/>
        <pt x="479" y="659" on="0"/>
        <pt x="709" y="659" on="1"/>
        <pt x="832" y="659" on="0"/>
        <pt x="1069" y="737" on="1"/>
        <pt x="1176" y="1237" on="1"/>
        <pt x="1184" y="1274" on="0"/>
        <pt x="1184" y="1294" on="1"/>
        <pt x="1184" y="1376" on="0"/>
        <pt x="1036" y="1376" on="1"/>
        <pt x="1010" y="1376" on="1"/>
        <pt x="1028" y="1462" on="1"/>
        <pt x="1624" y="1462" on="1"/>
        <pt x="1606" y="1376" on="1"/>
        <pt x="1579" y="1376" on="1"/>
        <pt x="1481" y="1376" on="0"/>
        <pt x="1395" y="1302" on="0"/>
        <pt x="1380" y="1229" on="1"/>
        <pt x="1167" y="225" on="1"/>
        <pt x="1159" y="187" on="0"/>
        <pt x="1159" y="168" on="1"/>
        <pt x="1159" y="86" on="0"/>
        <pt x="1307" y="86" on="1"/>
        <pt x="1333" y="86" on="1"/>
        <pt x="1315" y="0" on="1"/>
      </contour>
    </TTGlyph>
    <TTGlyph name="afii10042" xMin="-41" yMin="0" xMax="2322" yMax="1462">
      <contour>
        <pt x="-41" y="0" on="1"/>
        <pt x="-23" y="86" on="1"/>
        <pt x="2" y="86" on="1"/>
        <pt x="100" y="86" on="0"/>
        <pt x="184" y="159" on="0"/>
        <pt x="199" y="225" on="1"/>
        <pt x="416" y="1237" on="1"/>
        <pt x="424" y="1274" on="0"/>
        <pt x="424" y="1294" on="1"/>
        <pt x="424" y="1376" on="0"/>
        <pt x="276" y="1376" on="1"/>
        <pt x="250" y="1376" on="1"/>
        <pt x="268" y="1462" on="1"/>
        <pt x="864" y="1462" on="1"/>
        <pt x="846" y="1376" on="1"/>
        <pt x="819" y="1376" on="1"/>
        <pt x="649" y="1376" on="0"/>
        <pt x="618" y="1229" on="1"/>
        <pt x="381" y="102" on="1"/>
        <pt x="903" y="102" on="1"/>
        <pt x="1145" y="1237" on="1"/>
        <pt x="1153" y="1275" on="0"/>
        <pt x="1153" y="1294" on="1"/>
        <pt x="1153" y="1376" on="0"/>
        <pt x="1006" y="1376" on="1"/>
        <pt x="979" y="1376" on="1"/>
        <pt x="997" y="1462" on="1"/>
        <pt x="1593" y="1462" on="1"/>
        <pt x="1575" y="1376" on="1"/>
        <pt x="1548" y="1376" on="1"/>
        <pt x="1452" y="1376" on="0"/>
        <pt x="1368" y="1309" on="0"/>
        <pt x="1352" y="1239" on="1"/>
        <pt x="1108" y="102" on="1"/>
        <pt x="1632" y="102" on="1"/>
        <pt x="1874" y="1237" on="1"/>
        <pt x="1882" y="1275" on="0"/>
        <pt x="1882" y="1294" on="1"/>
        <pt x="1882" y="1376" on="0"/>
        <pt x="1735" y="1376" on="1"/>
        <pt x="1708" y="1376" on="1"/>
        <pt x="1726" y="1462" on="1"/>
        <pt x="2322" y="1462" on="1"/>
        <pt x="2304" y="1376" on="1"/>
        <pt x="2277" y="1376" on="1"/>
        <pt x="2181" y="1376" on="0"/>
        <pt x="2097" y="1309" on="0"/>
        <pt x="2081" y="1239" on="1"/>
        <pt x="1864" y="225" on="1"/>
        <pt x="1855" y="183" on="0"/>
        <pt x="1855" y="168" on="1"/>
        <pt x="1855" y="86" on="0"/>
        <pt x="2003" y="86" on="1"/>
        <pt x="2030" y="86" on="1"/>
        <pt x="2011" y="0" on="1"/>
      </contour>
    </TTGlyph>
    <TTGlyph name="afii10043" xMin="-41" yMin="-430" xMax="2322" yMax="1462">
      <contour>
        <pt x="2050" y="86" on="1"/>
        <pt x="1939" y="-430" on="1"/>
        <pt x="1845" y="-430" on="1"/>
        <pt x="1866" y="-331" on="0"/>
        <pt x="1866" y="-257" on="1"/>
        <pt x="1866" y="-6" on="0"/>
        <pt x="1636" y="0" on="1"/>
        <pt x="-41" y="0" on="1"/>
        <pt x="-23" y="86" on="1"/>
        <pt x="2" y="86" on="1"/>
        <pt x="100" y="86" on="0"/>
        <pt x="184" y="159" on="0"/>
        <pt x="199" y="225" on="1"/>
        <pt x="416" y="1237" on="1"/>
        <pt x="424" y="1274" on="0"/>
        <pt x="424" y="1294" on="1"/>
        <pt x="424" y="1376" on="0"/>
        <pt x="276" y="1376" on="1"/>
        <pt x="250" y="1376" on="1"/>
        <pt x="268" y="1462" on="1"/>
        <pt x="864" y="1462" on="1"/>
        <pt x="846" y="1376" on="1"/>
        <pt x="819" y="1376" on="1"/>
        <pt x="649" y="1376" on="0"/>
        <pt x="618" y="1229" on="1"/>
        <pt x="381" y="102" on="1"/>
        <pt x="903" y="102" on="1"/>
        <pt x="1145" y="1237" on="1"/>
        <pt x="1153" y="1275" on="0"/>
        <pt x="1153" y="1294" on="1"/>
        <pt x="1153" y="1376" on="0"/>
        <pt x="1006" y="1376" on="1"/>
        <pt x="979" y="1376" on="1"/>
        <pt x="997" y="1462" on="1"/>
        <pt x="1593" y="1462" on="1"/>
        <pt x="1575" y="1376" on="1"/>
        <pt x="1548" y="1376" on="1"/>
        <pt x="1452" y="1376" on="0"/>
        <pt x="1368" y="1309" on="0"/>
        <pt x="1352" y="1239" on="1"/>
        <pt x="1108" y="102" on="1"/>
        <pt x="1632" y="102" on="1"/>
        <pt x="1874" y="1237" on="1"/>
        <pt x="1882" y="1275" on="0"/>
        <pt x="1882" y="1294" on="1"/>
        <pt x="1882" y="1376" on="0"/>
        <pt x="1735" y="1376" on="1"/>
        <pt x="1708" y="1376" on="1"/>
        <pt x="1726" y="1462" on="1"/>
        <pt x="2322" y="1462" on="1"/>
        <pt x="2304" y="1376" on="1"/>
        <pt x="2277" y="1376" on="1"/>
        <pt x="2181" y="1376" on="0"/>
        <pt x="2097" y="1309" on="0"/>
        <pt x="2081" y="1239" on="1"/>
        <pt x="1864" y="225" on="1"/>
        <pt x="1855" y="183" on="0"/>
        <pt x="1855" y="168" on="1"/>
        <pt x="1855" y="91" on="0"/>
        <pt x="1978" y="86" on="1"/>
      </contour>
    </TTGlyph>
    <TTGlyph name="afii10044" xMin="156" yMin="0" xMax="1360" yMax="1462">
      <contour>
        <pt x="168" y="0" on="1"/>
        <pt x="184" y="86" on="1"/>
        <pt x="211" y="86" on="1"/>
        <pt x="381" y="86" on="0"/>
        <pt x="412" y="233" on="1"/>
        <pt x="651" y="1360" on="1"/>
        <pt x="496" y="1360" on="1"/>
        <pt x="350" y="1360" on="0"/>
        <pt x="291" y="1192" on="1"/>
        <pt x="262" y="1104" on="1"/>
        <pt x="156" y="1104" on="1"/>
        <pt x="242" y="1462" on="1"/>
        <pt x="1114" y="1462" on="1"/>
        <pt x="1096" y="1376" on="1"/>
        <pt x="1028" y="1376" on="1"/>
        <pt x="931" y="1376" on="0"/>
        <pt x="846" y="1308" on="0"/>
        <pt x="831" y="1239" on="1"/>
        <pt x="739" y="809" on="1"/>
        <pt x="856" y="809" on="1"/>
        <pt x="1360" y="809" on="0"/>
        <pt x="1360" y="467" on="1"/>
        <pt x="1360" y="244" on="0"/>
        <pt x="1058" y="0" on="0"/>
        <pt x="770" y="0" on="1"/>
      </contour>
      <contour>
        <pt x="590" y="102" on="1"/>
        <pt x="748" y="102" on="1"/>
        <pt x="1139" y="102" on="0"/>
        <pt x="1139" y="451" on="1"/>
        <pt x="1139" y="713" on="0"/>
        <pt x="850" y="713" on="1"/>
        <pt x="719" y="713" on="1"/>
      </contour>
    </TTGlyph>
    <TTGlyph name="afii10045" xMin="-43" yMin="0" xMax="1968" yMax="1462">
      <contour>
        <pt x="-27" y="86" on="1"/>
        <pt x="33" y="86" on="1"/>
        <pt x="78" y="86" on="0"/>
        <pt x="183" y="147" on="0"/>
        <pt x="201" y="233" on="1"/>
        <pt x="414" y="1237" on="1"/>
        <pt x="422" y="1275" on="0"/>
        <pt x="422" y="1294" on="1"/>
        <pt x="422" y="1376" on="0"/>
        <pt x="274" y="1376" on="1"/>
        <pt x="248" y="1376" on="1"/>
        <pt x="266" y="1462" on="1"/>
        <pt x="862" y="1462" on="1"/>
        <pt x="844" y="1376" on="1"/>
        <pt x="817" y="1376" on="1"/>
        <pt x="717" y="1376" on="0"/>
        <pt x="632" y="1296" on="0"/>
        <pt x="614" y="1217" on="1"/>
        <pt x="528" y="809" on="1"/>
        <pt x="584" y="809" on="1"/>
        <pt x="1087" y="809" on="0"/>
        <pt x="1087" y="467" on="1"/>
        <pt x="1087" y="244" on="0"/>
        <pt x="785" y="0" on="0"/>
        <pt x="498" y="0" on="1"/>
        <pt x="-43" y="0" on="1"/>
      </contour>
      <contour>
        <pt x="379" y="102" on="1"/>
        <pt x="475" y="102" on="1"/>
        <pt x="866" y="102" on="0"/>
        <pt x="866" y="451" on="1"/>
        <pt x="866" y="589" on="0"/>
        <pt x="725" y="713" on="0"/>
        <pt x="578" y="713" on="1"/>
        <pt x="508" y="713" on="1"/>
      </contour>
      <contour>
        <pt x="1968" y="1462" on="1"/>
        <pt x="1950" y="1376" on="1"/>
        <pt x="1923" y="1376" on="1"/>
        <pt x="1825" y="1376" on="0"/>
        <pt x="1739" y="1302" on="0"/>
        <pt x="1724" y="1229" on="1"/>
        <pt x="1511" y="225" on="1"/>
        <pt x="1503" y="187" on="0"/>
        <pt x="1503" y="168" on="1"/>
        <pt x="1503" y="86" on="0"/>
        <pt x="1651" y="86" on="1"/>
        <pt x="1677" y="86" on="1"/>
        <pt x="1659" y="0" on="1"/>
        <pt x="1063" y="0" on="1"/>
        <pt x="1079" y="86" on="1"/>
        <pt x="1106" y="86" on="1"/>
        <pt x="1276" y="86" on="0"/>
        <pt x="1307" y="233" on="1"/>
        <pt x="1520" y="1237" on="1"/>
        <pt x="1528" y="1275" on="0"/>
        <pt x="1528" y="1294" on="1"/>
        <pt x="1528" y="1376" on="0"/>
        <pt x="1380" y="1376" on="1"/>
        <pt x="1354" y="1376" on="1"/>
        <pt x="1372" y="1462" on="1"/>
      </contour>
    </TTGlyph>
    <TTGlyph name="afii10046" xMin="-43" yMin="0" xMax="1169" yMax="1462">
      <contour>
        <pt x="-27" y="86" on="1"/>
        <pt x="33" y="86" on="1"/>
        <pt x="78" y="86" on="0"/>
        <pt x="183" y="147" on="0"/>
        <pt x="201" y="233" on="1"/>
        <pt x="414" y="1237" on="1"/>
        <pt x="422" y="1275" on="0"/>
        <pt x="422" y="1294" on="1"/>
        <pt x="422" y="1376" on="0"/>
        <pt x="274" y="1376" on="1"/>
        <pt x="248" y="1376" on="1"/>
        <pt x="266" y="1462" on="1"/>
        <pt x="862" y="1462" on="1"/>
        <pt x="844" y="1376" on="1"/>
        <pt x="817" y="1376" on="1"/>
        <pt x="717" y="1376" on="0"/>
        <pt x="632" y="1296" on="0"/>
        <pt x="614" y="1217" on="1"/>
        <pt x="528" y="809" on="1"/>
        <pt x="666" y="809" on="1"/>
        <pt x="1169" y="809" on="0"/>
        <pt x="1169" y="467" on="1"/>
        <pt x="1169" y="244" on="0"/>
        <pt x="867" y="0" on="0"/>
        <pt x="580" y="0" on="1"/>
        <pt x="-43" y="0" on="1"/>
      </contour>
      <contour>
        <pt x="379" y="102" on="1"/>
        <pt x="557" y="102" on="1"/>
        <pt x="948" y="102" on="0"/>
        <pt x="948" y="451" on="1"/>
        <pt x="948" y="590" on="0"/>
        <pt x="807" y="713" on="0"/>
        <pt x="659" y="713" on="1"/>
        <pt x="508" y="713" on="1"/>
      </contour>
    </TTGlyph>
    <TTGlyph name="afii10047" xMin="27" yMin="-20" xMax="1231" yMax="1483">
      <contour>
        <pt x="965" y="688" on="1"/>
        <pt x="395" y="688" on="1"/>
        <pt x="416" y="788" on="1"/>
        <pt x="981" y="788" on="1"/>
        <pt x="1004" y="912" on="0"/>
        <pt x="1004" y="1001" on="1"/>
        <pt x="1004" y="1184" on="0"/>
        <pt x="858" y="1380" on="0"/>
        <pt x="721" y="1380" on="1"/>
        <pt x="606" y="1380" on="0"/>
        <pt x="445" y="1219" on="0"/>
        <pt x="416" y="1083" on="1"/>
        <pt x="350" y="1083" on="0"/>
        <pt x="266" y="1156" on="0"/>
        <pt x="266" y="1225" on="1"/>
        <pt x="266" y="1330" on="0"/>
        <pt x="528" y="1483" on="0"/>
        <pt x="733" y="1483" on="1"/>
        <pt x="969" y="1483" on="0"/>
        <pt x="1231" y="1211" on="0"/>
        <pt x="1231" y="958" on="1"/>
        <pt x="1231" y="555" on="0"/>
        <pt x="800" y="-20" on="0"/>
        <pt x="453" y="-20" on="1"/>
        <pt x="249" y="-20" on="0"/>
        <pt x="27" y="120" on="0"/>
        <pt x="27" y="244" on="1"/>
        <pt x="27" y="314" on="0"/>
        <pt x="115" y="393" on="0"/>
        <pt x="182" y="393" on="1"/>
        <pt x="182" y="275" on="0"/>
        <pt x="340" y="90" on="0"/>
        <pt x="469" y="90" on="1"/>
        <pt x="834" y="90" on="0"/>
      </contour>
    </TTGlyph>
    <TTGlyph name="afii10048" xMin="-43" yMin="-23" xMax="2081" yMax="1485">
      <contour>
        <pt x="807" y="713" on="1"/>
        <pt x="508" y="713" on="1"/>
        <pt x="406" y="225" on="1"/>
        <pt x="397" y="182" on="0"/>
        <pt x="397" y="168" on="1"/>
        <pt x="397" y="86" on="0"/>
        <pt x="545" y="86" on="1"/>
        <pt x="571" y="86" on="1"/>
        <pt x="553" y="0" on="1"/>
        <pt x="-43" y="0" on="1"/>
        <pt x="-27" y="86" on="1"/>
        <pt x="0" y="86" on="1"/>
        <pt x="99" y="86" on="0"/>
        <pt x="185" y="161" on="0"/>
        <pt x="201" y="233" on="1"/>
        <pt x="414" y="1237" on="1"/>
        <pt x="422" y="1275" on="0"/>
        <pt x="422" y="1294" on="1"/>
        <pt x="422" y="1376" on="0"/>
        <pt x="274" y="1376" on="1"/>
        <pt x="248" y="1376" on="1"/>
        <pt x="266" y="1462" on="1"/>
        <pt x="862" y="1462" on="1"/>
        <pt x="844" y="1376" on="1"/>
        <pt x="817" y="1376" on="1"/>
        <pt x="719" y="1376" on="0"/>
        <pt x="633" y="1302" on="0"/>
        <pt x="618" y="1229" on="1"/>
        <pt x="530" y="815" on="1"/>
        <pt x="829" y="815" on="1"/>
        <pt x="913" y="1121" on="0"/>
        <pt x="1311" y="1485" on="0"/>
        <pt x="1575" y="1485" on="1"/>
        <pt x="1802" y="1485" on="0"/>
        <pt x="2081" y="1189" on="0"/>
        <pt x="2081" y="922" on="1"/>
        <pt x="2081" y="571" on="0"/>
        <pt x="1646" y="-23" on="0"/>
        <pt x="1305" y="-23" on="1"/>
        <pt x="1075" y="-23" on="0"/>
        <pt x="793" y="283" on="0"/>
        <pt x="793" y="545" on="1"/>
        <pt x="793" y="638" on="0"/>
      </contour>
      <contour>
        <pt x="1319" y="90" on="1"/>
        <pt x="1556" y="90" on="0"/>
        <pt x="1855" y="654" on="0"/>
        <pt x="1855" y="977" on="1"/>
        <pt x="1855" y="1169" on="0"/>
        <pt x="1699" y="1374" on="0"/>
        <pt x="1556" y="1374" on="1"/>
        <pt x="1318" y="1374" on="0"/>
        <pt x="1016" y="806" on="0"/>
        <pt x="1016" y="487" on="1"/>
        <pt x="1016" y="297" on="0"/>
        <pt x="1178" y="90" on="0"/>
      </contour>
    </TTGlyph>
    <TTGlyph name="afii10049" xMin="-74" yMin="0" xMax="1454" yMax="1462">
      <contour>
        <pt x="674" y="631" on="1"/>
        <pt x="373" y="184" on="1"/>
        <pt x="301" y="77" on="0"/>
        <pt x="145" y="0" on="0"/>
        <pt x="-45" y="0" on="1"/>
        <pt x="-74" y="0" on="1"/>
        <pt x="-61" y="86" on="1"/>
        <pt x="-55" y="86" on="1"/>
        <pt x="9" y="86" on="0"/>
        <pt x="110" y="147" on="0"/>
        <pt x="184" y="250" on="1"/>
        <pt x="496" y="686" on="1"/>
        <pt x="283" y="791" on="0"/>
        <pt x="283" y="1020" on="1"/>
        <pt x="283" y="1251" on="0"/>
        <pt x="595" y="1462" on="0"/>
        <pt x="948" y="1462" on="1"/>
        <pt x="1454" y="1462" on="1"/>
        <pt x="1436" y="1376" on="1"/>
        <pt x="1409" y="1376" on="1"/>
        <pt x="1311" y="1376" on="0"/>
        <pt x="1225" y="1301" on="0"/>
        <pt x="1210" y="1229" on="1"/>
        <pt x="997" y="225" on="1"/>
        <pt x="989" y="187" on="0"/>
        <pt x="989" y="168" on="1"/>
        <pt x="989" y="86" on="0"/>
        <pt x="1137" y="86" on="1"/>
        <pt x="1163" y="86" on="1"/>
        <pt x="1145" y="0" on="1"/>
        <pt x="549" y="0" on="1"/>
        <pt x="565" y="86" on="1"/>
        <pt x="592" y="86" on="1"/>
        <pt x="762" y="86" on="0"/>
        <pt x="793" y="233" on="1"/>
        <pt x="877" y="631" on="1"/>
      </contour>
      <contour>
        <pt x="1032" y="1364" on="1"/>
        <pt x="901" y="1364" on="1"/>
        <pt x="498" y="1364" on="0"/>
        <pt x="498" y="1020" on="1"/>
        <pt x="498" y="727" on="0"/>
        <pt x="825" y="727" on="1"/>
        <pt x="897" y="727" on="1"/>
      </contour>
    </TTGlyph>
    <TTGlyph name="afii10050" xMin="-41" yMin="0" xMax="1307" yMax="1718">
      <contour>
        <pt x="1217" y="1360" on="1"/>
        <pt x="647" y="1360" on="1"/>
        <pt x="406" y="225" on="1"/>
        <pt x="397" y="183" on="0"/>
        <pt x="397" y="168" on="1"/>
        <pt x="397" y="86" on="0"/>
        <pt x="545" y="86" on="1"/>
        <pt x="612" y="86" on="1"/>
        <pt x="594" y="0" on="1"/>
        <pt x="-41" y="0" on="1"/>
        <pt x="-23" y="86" on="1"/>
        <pt x="2" y="86" on="1"/>
        <pt x="170" y="86" on="0"/>
        <pt x="201" y="233" on="1"/>
        <pt x="412" y="1229" on="1"/>
        <pt x="422" y="1276" on="0"/>
        <pt x="422" y="1294" on="1"/>
        <pt x="422" y="1376" on="0"/>
        <pt x="274" y="1376" on="1"/>
        <pt x="248" y="1376" on="1"/>
        <pt x="266" y="1462" on="1"/>
        <pt x="932" y="1462" on="1"/>
        <pt x="1019" y="1462" on="0"/>
        <pt x="1134" y="1526" on="0"/>
        <pt x="1176" y="1647" on="1"/>
        <pt x="1200" y="1718" on="1"/>
        <pt x="1307" y="1718" on="1"/>
      </contour>
    </TTGlyph>
    <TTGlyph name="afii10051" xMin="147" yMin="-10" xMax="1458" yMax="1462">
      <contour>
        <pt x="745" y="836" on="1"/>
        <pt x="925" y="897" on="0"/>
        <pt x="1069" y="897" on="1"/>
        <pt x="1458" y="897" on="0"/>
        <pt x="1458" y="571" on="1"/>
        <pt x="1458" y="377" on="0"/>
        <pt x="1296" y="-10" on="0"/>
        <pt x="1020" y="-10" on="1"/>
        <pt x="914" y="-10" on="0"/>
        <pt x="858" y="12" on="1"/>
        <pt x="885" y="104" on="1"/>
        <pt x="940" y="86" on="0"/>
        <pt x="999" y="86" on="1"/>
        <pt x="1104" y="86" on="0"/>
        <pt x="1200" y="221" on="0"/>
        <pt x="1249" y="487" on="0"/>
        <pt x="1249" y="565" on="1"/>
        <pt x="1249" y="774" on="0"/>
        <pt x="1020" y="774" on="1"/>
        <pt x="876" y="774" on="0"/>
        <pt x="723" y="723" on="1"/>
        <pt x="616" y="225" on="1"/>
        <pt x="608" y="188" on="0"/>
        <pt x="608" y="168" on="1"/>
        <pt x="608" y="86" on="0"/>
        <pt x="756" y="86" on="1"/>
        <pt x="782" y="86" on="1"/>
        <pt x="764" y="0" on="1"/>
        <pt x="147" y="0" on="1"/>
        <pt x="166" y="86" on="1"/>
        <pt x="213" y="86" on="1"/>
        <pt x="316" y="86" on="0"/>
        <pt x="396" y="157" on="0"/>
        <pt x="410" y="223" on="1"/>
        <pt x="651" y="1360" on="1"/>
        <pt x="496" y="1360" on="1"/>
        <pt x="350" y="1360" on="0"/>
        <pt x="291" y="1192" on="1"/>
        <pt x="262" y="1104" on="1"/>
        <pt x="156" y="1104" on="1"/>
        <pt x="242" y="1462" on="1"/>
        <pt x="1313" y="1462" on="1"/>
        <pt x="1247" y="1104" on="1"/>
        <pt x="1141" y="1104" on="1"/>
        <pt x="1151" y="1184" on="0"/>
        <pt x="1151" y="1229" on="1"/>
        <pt x="1151" y="1360" on="0"/>
        <pt x="1016" y="1360" on="1"/>
        <pt x="858" y="1360" on="1"/>
      </contour>
    </TTGlyph>
    <TTGlyph name="afii10052" xMin="-41" yMin="0" xMax="1284" yMax="1907">
      <component glyphName="Gamma" x="0" y="0" flags="0x204"/>
      <component glyphName="acute" x="209" y="338" flags="0x4"/>
    </TTGlyph>
    <TTGlyph name="afii10053" xMin="106" yMin="-20" xMax="1329" yMax="1483">
      <contour>
        <pt x="1073" y="299" on="1"/>
        <pt x="1100" y="280" on="0"/>
        <pt x="1100" y="231" on="1"/>
        <pt x="1100" y="133" on="0"/>
        <pt x="872" y="-20" on="0"/>
        <pt x="672" y="-20" on="1"/>
        <pt x="405" y="-20" on="0"/>
        <pt x="106" y="266" on="0"/>
        <pt x="106" y="528" on="1"/>
        <pt x="106" y="916" on="0"/>
        <pt x="590" y="1483" on="0"/>
        <pt x="950" y="1483" on="1"/>
        <pt x="1129" y="1483" on="0"/>
        <pt x="1329" y="1360" on="0"/>
        <pt x="1329" y="1255" on="1"/>
        <pt x="1329" y="1182" on="0"/>
        <pt x="1219" y="1096" on="0"/>
        <pt x="1128" y="1096" on="1"/>
        <pt x="1128" y="1374" on="0"/>
        <pt x="924" y="1374" on="1"/>
        <pt x="738" y="1374" on="0"/>
        <pt x="441" y="1061" on="0"/>
        <pt x="369" y="788" on="1"/>
        <pt x="940" y="788" on="1"/>
        <pt x="920" y="688" on="1"/>
        <pt x="346" y="688" on="1"/>
        <pt x="330" y="590" on="0"/>
        <pt x="330" y="496" on="1"/>
        <pt x="330" y="113" on="0"/>
        <pt x="694" y="113" on="1"/>
        <pt x="931" y="113" on="0"/>
      </contour>
    </TTGlyph>
    <TTGlyph name="afii10054" xMin="14" yMin="-20" xMax="1133" yMax="1483">
      <component glyphName="S" x="0" y="0" flags="0x204"/>
    </TTGlyph>
    <TTGlyph name="afii10055" xMin="-43" yMin="0" xMax="862" yMax="1462">
      <component glyphName="I" x="0" y="0" flags="0x204"/>
    </TTGlyph>
    <TTGlyph name="afii10056" xMin="-43" yMin="0" xMax="904" yMax="1864">
      <component glyphName="I" x="0" y="0" flags="0x204"/>
      <component glyphName="dieresis" x="-110" y="338" flags="0x4"/>
    </TTGlyph>
    <TTGlyph name="afii10057" xMin="-317" yMin="-492" xMax="852" yMax="1462">
      <component glyphName="J" x="0" y="0" flags="0x204"/>
    </TTGlyph>
    <TTGlyph name="afii10058" xMin="-96" yMin="-14" xMax="1712" yMax="1462">
      <contour>
        <pt x="791" y="1360" on="1"/>
        <pt x="734" y="1138" on="0"/>
        <pt x="523" y="485" on="0"/>
        <pt x="320" y="93" on="0"/>
        <pt x="164" y="-14" on="0"/>
        <pt x="66" y="-14" on="1"/>
        <pt x="-10" y="-14" on="0"/>
        <pt x="-96" y="63" on="0"/>
        <pt x="-96" y="123" on="1"/>
        <pt x="-96" y="185" on="0"/>
        <pt x="-28" y="254" on="0"/>
        <pt x="25" y="254" on="1"/>
        <pt x="25" y="158" on="0"/>
        <pt x="102" y="158" on="1"/>
        <pt x="287" y="158" on="0"/>
        <pt x="662" y="1250" on="0"/>
        <pt x="662" y="1321" on="1"/>
        <pt x="662" y="1376" on="0"/>
        <pt x="512" y="1376" on="1"/>
        <pt x="481" y="1376" on="1"/>
        <pt x="500" y="1462" on="1"/>
        <pt x="1487" y="1462" on="1"/>
        <pt x="1468" y="1376" on="1"/>
        <pt x="1442" y="1376" on="1"/>
        <pt x="1344" y="1376" on="0"/>
        <pt x="1258" y="1301" on="0"/>
        <pt x="1243" y="1229" on="1"/>
        <pt x="1153" y="809" on="1"/>
        <pt x="1208" y="809" on="1"/>
        <pt x="1712" y="809" on="0"/>
        <pt x="1712" y="467" on="1"/>
        <pt x="1712" y="242" on="0"/>
        <pt x="1410" y="0" on="0"/>
        <pt x="1122" y="0" on="1"/>
        <pt x="582" y="0" on="1"/>
        <pt x="598" y="86" on="1"/>
        <pt x="625" y="86" on="1"/>
        <pt x="722" y="86" on="0"/>
        <pt x="810" y="159" on="0"/>
        <pt x="825" y="233" on="1"/>
        <pt x="1065" y="1360" on="1"/>
      </contour>
      <contour>
        <pt x="1004" y="102" on="1"/>
        <pt x="1100" y="102" on="1"/>
        <pt x="1491" y="102" on="0"/>
        <pt x="1491" y="451" on="1"/>
        <pt x="1491" y="590" on="0"/>
        <pt x="1348" y="713" on="0"/>
        <pt x="1202" y="713" on="1"/>
        <pt x="1133" y="713" on="1"/>
      </contour>
    </TTGlyph>
    <TTGlyph name="afii10059" xMin="-43" yMin="0" xMax="1878" yMax="1462">
      <contour>
        <pt x="1653" y="1462" on="1"/>
        <pt x="1634" y="1376" on="1"/>
        <pt x="1608" y="1376" on="1"/>
        <pt x="1510" y="1376" on="0"/>
        <pt x="1424" y="1302" on="0"/>
        <pt x="1409" y="1229" on="1"/>
        <pt x="1319" y="809" on="1"/>
        <pt x="1374" y="809" on="1"/>
        <pt x="1878" y="809" on="0"/>
        <pt x="1878" y="467" on="1"/>
        <pt x="1878" y="242" on="0"/>
        <pt x="1576" y="0" on="0"/>
        <pt x="1288" y="0" on="1"/>
        <pt x="748" y="0" on="1"/>
        <pt x="764" y="86" on="1"/>
        <pt x="791" y="86" on="1"/>
        <pt x="888" y="86" on="0"/>
        <pt x="976" y="159" on="0"/>
        <pt x="991" y="233" on="1"/>
        <pt x="1092" y="713" on="1"/>
        <pt x="508" y="713" on="1"/>
        <pt x="406" y="225" on="1"/>
        <pt x="397" y="182" on="0"/>
        <pt x="397" y="168" on="1"/>
        <pt x="397" y="86" on="0"/>
        <pt x="545" y="86" on="1"/>
        <pt x="571" y="86" on="1"/>
        <pt x="553" y="0" on="1"/>
        <pt x="-43" y="0" on="1"/>
        <pt x="-27" y="86" on="1"/>
        <pt x="0" y="86" on="1"/>
        <pt x="99" y="86" on="0"/>
        <pt x="185" y="161" on="0"/>
        <pt x="201" y="233" on="1"/>
        <pt x="414" y="1237" on="1"/>
        <pt x="422" y="1275" on="0"/>
        <pt x="422" y="1294" on="1"/>
        <pt x="422" y="1376" on="0"/>
        <pt x="274" y="1376" on="1"/>
        <pt x="248" y="1376" on="1"/>
        <pt x="266" y="1462" on="1"/>
        <pt x="862" y="1462" on="1"/>
        <pt x="844" y="1376" on="1"/>
        <pt x="817" y="1376" on="1"/>
        <pt x="719" y="1376" on="0"/>
        <pt x="633" y="1302" on="0"/>
        <pt x="618" y="1229" on="1"/>
        <pt x="530" y="815" on="1"/>
        <pt x="1114" y="815" on="1"/>
        <pt x="1204" y="1237" on="1"/>
        <pt x="1212" y="1275" on="0"/>
        <pt x="1212" y="1294" on="1"/>
        <pt x="1212" y="1376" on="0"/>
        <pt x="1065" y="1376" on="1"/>
        <pt x="1038" y="1376" on="1"/>
        <pt x="1057" y="1462" on="1"/>
      </contour>
      <contour>
        <pt x="1169" y="102" on="1"/>
        <pt x="1266" y="102" on="1"/>
        <pt x="1657" y="102" on="0"/>
        <pt x="1657" y="451" on="1"/>
        <pt x="1657" y="590" on="0"/>
        <pt x="1516" y="713" on="0"/>
        <pt x="1368" y="713" on="1"/>
        <pt x="1298" y="713" on="1"/>
      </contour>
    </TTGlyph>
    <TTGlyph name="afii10060" xMin="147" yMin="0" xMax="1567" yMax="1462">
      <contour>
        <pt x="1567" y="86" on="1"/>
        <pt x="1548" y="0" on="1"/>
        <pt x="952" y="0" on="1"/>
        <pt x="969" y="86" on="1"/>
        <pt x="995" y="86" on="1"/>
        <pt x="1165" y="86" on="0"/>
        <pt x="1196" y="233" on="1"/>
        <pt x="1223" y="362" on="1"/>
        <pt x="1249" y="486" on="0"/>
        <pt x="1249" y="580" on="1"/>
        <pt x="1249" y="774" on="0"/>
        <pt x="1020" y="774" on="1"/>
        <pt x="876" y="774" on="0"/>
        <pt x="723" y="723" on="1"/>
        <pt x="616" y="225" on="1"/>
        <pt x="608" y="188" on="0"/>
        <pt x="608" y="168" on="1"/>
        <pt x="608" y="86" on="0"/>
        <pt x="756" y="86" on="1"/>
        <pt x="782" y="86" on="1"/>
        <pt x="764" y="0" on="1"/>
        <pt x="147" y="0" on="1"/>
        <pt x="166" y="86" on="1"/>
        <pt x="213" y="86" on="1"/>
        <pt x="316" y="86" on="0"/>
        <pt x="396" y="157" on="0"/>
        <pt x="410" y="223" on="1"/>
        <pt x="651" y="1360" on="1"/>
        <pt x="496" y="1360" on="1"/>
        <pt x="350" y="1360" on="0"/>
        <pt x="291" y="1192" on="1"/>
        <pt x="262" y="1104" on="1"/>
        <pt x="156" y="1104" on="1"/>
        <pt x="242" y="1462" on="1"/>
        <pt x="1313" y="1462" on="1"/>
        <pt x="1247" y="1104" on="1"/>
        <pt x="1141" y="1104" on="1"/>
        <pt x="1151" y="1184" on="0"/>
        <pt x="1151" y="1229" on="1"/>
        <pt x="1151" y="1360" on="0"/>
        <pt x="1016" y="1360" on="1"/>
        <pt x="858" y="1360" on="1"/>
        <pt x="745" y="836" on="1"/>
        <pt x="925" y="897" on="0"/>
        <pt x="1069" y="897" on="1"/>
        <pt x="1460" y="897" on="0"/>
        <pt x="1460" y="594" on="1"/>
        <pt x="1460" y="499" on="0"/>
        <pt x="1432" y="373" on="1"/>
        <pt x="1401" y="225" on="1"/>
        <pt x="1393" y="187" on="0"/>
        <pt x="1393" y="168" on="1"/>
        <pt x="1393" y="86" on="0"/>
        <pt x="1540" y="86" on="1"/>
      </contour>
    </TTGlyph>
    <TTGlyph name="afii10061" xMin="-43" yMin="0" xMax="1520" yMax="1907">
      <component glyphName="afii10028" x="0" y="0" flags="0x204"/>
      <component glyphName="acute" x="367" y="338" flags="0x4"/>
    </TTGlyph>
    <TTGlyph name="afii10062" xMin="86" yMin="-10" xMax="1571" yMax="1940">
      <component glyphName="afii10037" x="0" y="0" flags="0x204"/>
      <component glyphName="glyph00566" x="185" y="338" flags="0x4"/>
    </TTGlyph>
    <TTGlyph name="afii10065" xMin="88" yMin="-20" xMax="1176" yMax="1118">
      <component glyphName="a" x="0" y="0" flags="0x204"/>
    </TTGlyph>
    <TTGlyph name="afii10066" xMin="102" yMin="-20" xMax="1245" yMax="1573">
      <contour>
        <pt x="1155" y="1569" on="1"/>
        <pt x="1245" y="1573" on="1"/>
        <pt x="1216" y="1424" on="0"/>
        <pt x="1077" y="1320" on="0"/>
        <pt x="745" y="1284" on="1"/>
        <pt x="520" y="1258" on="0"/>
        <pt x="329" y="1097" on="0"/>
        <pt x="272" y="838" on="1"/>
        <pt x="287" y="838" on="1"/>
        <pt x="348" y="941" on="0"/>
        <pt x="571" y="1063" on="0"/>
        <pt x="694" y="1063" on="1"/>
        <pt x="877" y="1063" on="0"/>
        <pt x="1102" y="831" on="0"/>
        <pt x="1102" y="631" on="1"/>
        <pt x="1102" y="360" on="0"/>
        <pt x="767" y="-20" on="0"/>
        <pt x="504" y="-20" on="1"/>
        <pt x="315" y="-20" on="0"/>
        <pt x="102" y="268" on="0"/>
        <pt x="102" y="528" on="1"/>
        <pt x="102" y="940" on="0"/>
        <pt x="447" y="1437" on="0"/>
        <pt x="760" y="1473" on="1"/>
        <pt x="1123" y="1514" on="0"/>
      </contour>
      <contour>
        <pt x="530" y="86" on="1"/>
        <pt x="674" y="86" on="0"/>
        <pt x="889" y="421" on="0"/>
        <pt x="889" y="668" on="1"/>
        <pt x="889" y="954" on="0"/>
        <pt x="678" y="954" on="1"/>
        <pt x="534" y="954" on="0"/>
        <pt x="317" y="628" on="0"/>
        <pt x="317" y="375" on="1"/>
        <pt x="317" y="86" on="0"/>
      </contour>
    </TTGlyph>
    <TTGlyph name="afii10067" xMin="88" yMin="-20" xMax="1012" yMax="1118">
      <contour>
        <pt x="639" y="575" on="1"/>
        <pt x="940" y="505" on="0"/>
        <pt x="940" y="303" on="1"/>
        <pt x="940" y="163" on="0"/>
        <pt x="694" y="-20" on="0"/>
        <pt x="498" y="-20" on="1"/>
        <pt x="304" y="-20" on="0"/>
        <pt x="88" y="180" on="0"/>
        <pt x="88" y="362" on="1"/>
        <pt x="88" y="657" on="0"/>
        <pt x="431" y="1118" on="0"/>
        <pt x="698" y="1118" on="1"/>
        <pt x="835" y="1118" on="0"/>
        <pt x="1012" y="986" on="0"/>
        <pt x="1012" y="883" on="1"/>
        <pt x="1012" y="651" on="0"/>
      </contour>
      <contour>
        <pt x="338" y="627" on="1"/>
        <pt x="358" y="627" on="1"/>
        <pt x="566" y="627" on="0"/>
        <pt x="801" y="750" on="0"/>
        <pt x="801" y="864" on="1"/>
        <pt x="801" y="939" on="0"/>
        <pt x="718" y="1020" on="0"/>
        <pt x="653" y="1020" on="1"/>
        <pt x="561" y="1020" on="0"/>
        <pt x="377" y="784" on="0"/>
      </contour>
      <contour>
        <pt x="319" y="532" on="1"/>
        <pt x="301" y="444" on="0"/>
        <pt x="301" y="338" on="1"/>
        <pt x="301" y="92" on="0"/>
        <pt x="506" y="92" on="1"/>
        <pt x="615" y="92" on="0"/>
        <pt x="737" y="206" on="0"/>
        <pt x="737" y="307" on="1"/>
        <pt x="737" y="417" on="0"/>
        <pt x="559" y="541" on="0"/>
        <pt x="516" y="541" on="1"/>
      </contour>
    </TTGlyph>
    <TTGlyph name="afii10068" xMin="74" yMin="-20" xMax="936" yMax="1116">
      <contour>
        <pt x="793" y="254" on="1"/>
        <pt x="815" y="234" on="0"/>
        <pt x="815" y="188" on="1"/>
        <pt x="815" y="90" on="0"/>
        <pt x="631" y="-20" on="0"/>
        <pt x="451" y="-20" on="1"/>
        <pt x="271" y="-20" on="0"/>
        <pt x="74" y="127" on="0"/>
        <pt x="74" y="254" on="1"/>
        <pt x="74" y="342" on="0"/>
        <pt x="158" y="464" on="0"/>
        <pt x="302" y="547" on="0"/>
        <pt x="481" y="614" on="1"/>
        <pt x="629" y="670" on="0"/>
        <pt x="723" y="773" on="0"/>
        <pt x="723" y="846" on="1"/>
        <pt x="723" y="987" on="0"/>
        <pt x="559" y="987" on="1"/>
        <pt x="370" y="987" on="0"/>
        <pt x="276" y="862" on="1"/>
        <pt x="260" y="874" on="0"/>
        <pt x="260" y="913" on="1"/>
        <pt x="260" y="1116" on="0"/>
        <pt x="590" y="1116" on="1"/>
        <pt x="749" y="1116" on="0"/>
        <pt x="936" y="985" on="0"/>
        <pt x="936" y="879" on="1"/>
        <pt x="936" y="687" on="0"/>
        <pt x="687" y="597" on="1"/>
        <pt x="428" y="503" on="0"/>
        <pt x="287" y="388" on="0"/>
        <pt x="287" y="272" on="1"/>
        <pt x="287" y="106" on="0"/>
        <pt x="487" y="106" on="1"/>
        <pt x="680" y="106" on="0"/>
      </contour>
    </TTGlyph>
    <TTGlyph name="afii10069" xMin="88" yMin="-20" xMax="1116" yMax="1577">
      <contour>
        <pt x="911" y="952" on="1"/>
        <pt x="911" y="1194" on="0"/>
        <pt x="765" y="1475" on="0"/>
        <pt x="627" y="1475" on="1"/>
        <pt x="516" y="1475" on="0"/>
        <pt x="416" y="1442" on="1"/>
        <pt x="389" y="1530" on="1"/>
        <pt x="503" y="1577" on="0"/>
        <pt x="655" y="1577" on="1"/>
        <pt x="876" y="1577" on="0"/>
        <pt x="1116" y="1233" on="0"/>
        <pt x="1116" y="909" on="1"/>
        <pt x="1116" y="476" on="0"/>
        <pt x="790" y="-20" on="0"/>
        <pt x="506" y="-20" on="1"/>
        <pt x="306" y="-20" on="0"/>
        <pt x="88" y="201" on="0"/>
        <pt x="88" y="403" on="1"/>
        <pt x="88" y="668" on="0"/>
        <pt x="420" y="1051" on="0"/>
        <pt x="672" y="1051" on="1"/>
        <pt x="837" y="1051" on="0"/>
      </contour>
      <contour>
        <pt x="909" y="778" on="1"/>
        <pt x="836" y="944" on="0"/>
        <pt x="662" y="944" on="1"/>
        <pt x="509" y="944" on="0"/>
        <pt x="299" y="631" on="0"/>
        <pt x="299" y="379" on="1"/>
        <pt x="299" y="80" on="0"/>
        <pt x="537" y="80" on="1"/>
        <pt x="694" y="80" on="0"/>
        <pt x="895" y="468" on="0"/>
      </contour>
    </TTGlyph>
    <TTGlyph name="afii10070" xMin="88" yMin="-20" xMax="971" yMax="1118">
      <component glyphName="e" x="0" y="0" flags="0x204"/>
    </TTGlyph>
    <TTGlyph name="afii10071" xMin="88" yMin="-20" xMax="1009" yMax="1526">
      <component glyphName="e" x="0" y="0" flags="0x204"/>
      <component glyphName="dieresis" x="-5" y="0" flags="0x4"/>
    </TTGlyph>
    <TTGlyph name="afii10072" xMin="2" yMin="-25" xMax="2066" yMax="1118">
      <contour>
        <pt x="827" y="0" on="1"/>
        <pt x="932" y="504" on="1"/>
        <pt x="782" y="504" on="1"/>
        <pt x="720" y="263" on="0"/>
        <pt x="436" y="-25" on="0"/>
        <pt x="256" y="-25" on="1"/>
        <pt x="138" y="-25" on="0"/>
        <pt x="2" y="79" on="0"/>
        <pt x="2" y="164" on="1"/>
        <pt x="2" y="227" on="0"/>
        <pt x="92" y="307" on="0"/>
        <pt x="166" y="307" on="1"/>
        <pt x="166" y="74" on="0"/>
        <pt x="295" y="74" on="1"/>
        <pt x="419" y="74" on="0"/>
        <pt x="621" y="481" on="0"/>
        <pt x="621" y="707" on="1"/>
        <pt x="621" y="985" on="0"/>
        <pt x="446" y="985" on="1"/>
        <pt x="302" y="985" on="0"/>
        <pt x="203" y="838" on="1"/>
        <pt x="186" y="857" on="0"/>
        <pt x="186" y="889" on="1"/>
        <pt x="186" y="972" on="0"/>
        <pt x="350" y="1114" on="0"/>
        <pt x="487" y="1114" on="1"/>
        <pt x="640" y="1114" on="0"/>
        <pt x="811" y="912" on="0"/>
        <pt x="811" y="731" on="1"/>
        <pt x="811" y="664" on="0"/>
        <pt x="801" y="600" on="1"/>
        <pt x="952" y="600" on="1"/>
        <pt x="1057" y="1098" on="1"/>
        <pt x="1235" y="1098" on="1"/>
        <pt x="1128" y="600" on="1"/>
        <pt x="1288" y="600" on="1"/>
        <pt x="1353" y="835" on="0"/>
        <pt x="1635" y="1118" on="0"/>
        <pt x="1812" y="1118" on="1"/>
        <pt x="1929" y="1118" on="0"/>
        <pt x="2066" y="1015" on="0"/>
        <pt x="2066" y="930" on="1"/>
        <pt x="2066" y="867" on="0"/>
        <pt x="1978" y="786" on="0"/>
        <pt x="1903" y="786" on="1"/>
        <pt x="1903" y="1020" on="0"/>
        <pt x="1774" y="1020" on="1"/>
        <pt x="1650" y="1020" on="0"/>
        <pt x="1448" y="613" on="0"/>
        <pt x="1448" y="387" on="1"/>
        <pt x="1448" y="109" on="0"/>
        <pt x="1622" y="109" on="1"/>
        <pt x="1768" y="109" on="0"/>
        <pt x="1866" y="256" on="1"/>
        <pt x="1882" y="238" on="0"/>
        <pt x="1882" y="205" on="1"/>
        <pt x="1882" y="121" on="0"/>
        <pt x="1717" y="-20" on="0"/>
        <pt x="1581" y="-20" on="1"/>
        <pt x="1429" y="-20" on="0"/>
        <pt x="1257" y="181" on="0"/>
        <pt x="1257" y="362" on="1"/>
        <pt x="1257" y="424" on="0"/>
        <pt x="1270" y="504" on="1"/>
        <pt x="1108" y="504" on="1"/>
        <pt x="999" y="0" on="1"/>
      </contour>
    </TTGlyph>
    <TTGlyph name="afii10073" xMin="4" yMin="-20" xMax="926" yMax="1116">
      <contour>
        <pt x="172" y="334" on="1"/>
        <pt x="172" y="216" on="0"/>
        <pt x="300" y="78" on="0"/>
        <pt x="403" y="78" on="1"/>
        <pt x="510" y="78" on="0"/>
        <pt x="649" y="222" on="0"/>
        <pt x="649" y="336" on="1"/>
        <pt x="649" y="417" on="0"/>
        <pt x="537" y="520" on="0"/>
        <pt x="446" y="520" on="1"/>
        <pt x="256" y="520" on="1"/>
        <pt x="279" y="631" on="1"/>
        <pt x="471" y="631" on="1"/>
        <pt x="590" y="631" on="0"/>
        <pt x="725" y="747" on="0"/>
        <pt x="725" y="852" on="1"/>
        <pt x="725" y="929" on="0"/>
        <pt x="634" y="1022" on="0"/>
        <pt x="549" y="1022" on="1"/>
        <pt x="354" y="1022" on="0"/>
        <pt x="305" y="801" on="1"/>
        <pt x="164" y="801" on="0"/>
        <pt x="164" y="891" on="1"/>
        <pt x="164" y="988" on="0"/>
        <pt x="371" y="1116" on="0"/>
        <pt x="565" y="1116" on="1"/>
        <pt x="733" y="1116" on="0"/>
        <pt x="926" y="977" on="0"/>
        <pt x="926" y="864" on="1"/>
        <pt x="926" y="662" on="0"/>
        <pt x="645" y="580" on="1"/>
        <pt x="643" y="569" on="1"/>
        <pt x="848" y="512" on="0"/>
        <pt x="848" y="340" on="1"/>
        <pt x="848" y="169" on="0"/>
        <pt x="599" y="-20" on="0"/>
        <pt x="375" y="-20" on="1"/>
        <pt x="201" y="-20" on="0"/>
        <pt x="4" y="103" on="0"/>
        <pt x="4" y="199" on="1"/>
        <pt x="4" y="257" on="0"/>
        <pt x="87" y="334" on="0"/>
      </contour>
    </TTGlyph>
    <TTGlyph name="afii10074" xMin="117" yMin="-20" xMax="1194" yMax="1098">
      <component glyphName="u" x="0" y="0" flags="0x204"/>
    </TTGlyph>
    <TTGlyph name="afii10075" xMin="117" yMin="-20" xMax="1194" yMax="1602">
      <component glyphName="u" x="0" y="0" flags="0x204"/>
      <component glyphName="glyph00566" x="-27" y="0" flags="0x4"/>
    </TTGlyph>
    <TTGlyph name="afii10076" xMin="88" yMin="0" xMax="1239" yMax="1110">
      <contour>
        <pt x="88" y="0" on="1"/>
        <pt x="258" y="793" on="1"/>
        <pt x="276" y="877" on="0"/>
        <pt x="276" y="915" on="1"/>
        <pt x="276" y="1012" on="0"/>
        <pt x="133" y="1012" on="1"/>
        <pt x="117" y="1012" on="1"/>
        <pt x="135" y="1098" on="1"/>
        <pt x="516" y="1098" on="1"/>
        <pt x="410" y="602" on="1"/>
        <pt x="495" y="602" on="0"/>
        <pt x="606" y="703" on="0"/>
        <pt x="748" y="877" on="1"/>
        <pt x="870" y="1021" on="0"/>
        <pt x="998" y="1110" on="0"/>
        <pt x="1087" y="1110" on="1"/>
        <pt x="1239" y="1110" on="0"/>
        <pt x="1239" y="987" on="1"/>
        <pt x="1239" y="874" on="0"/>
        <pt x="1128" y="856" on="1"/>
        <pt x="1128" y="971" on="0"/>
        <pt x="1038" y="971" on="1"/>
        <pt x="981" y="971" on="0"/>
        <pt x="867" y="878" on="0"/>
        <pt x="752" y="738" on="1"/>
        <pt x="661" y="628" on="0"/>
        <pt x="606" y="596" on="1"/>
        <pt x="670" y="594" on="0"/>
        <pt x="786" y="490" on="0"/>
        <pt x="817" y="416" on="1"/>
        <pt x="889" y="250" on="1"/>
        <pt x="960" y="86" on="0"/>
        <pt x="1098" y="86" on="1"/>
        <pt x="1104" y="86" on="1"/>
        <pt x="1085" y="0" on="1"/>
        <pt x="1014" y="0" on="1"/>
        <pt x="864" y="0" on="0"/>
        <pt x="744" y="81" on="0"/>
        <pt x="698" y="193" on="1"/>
        <pt x="631" y="365" on="1"/>
        <pt x="595" y="457" on="0"/>
        <pt x="498" y="508" on="0"/>
        <pt x="389" y="508" on="1"/>
        <pt x="285" y="0" on="1"/>
      </contour>
    </TTGlyph>
</ttFont>
